G04*
G04 #@! TF.GenerationSoftware,Altium Limited,Altium Designer,22.6.1 (34)*
G04*
G04 Layer_Color=16711935*
%FSLAX25Y25*%
%MOIN*%
G70*
G04*
G04 #@! TF.SameCoordinates,5978FB97-4CE2-4F40-84F9-A025567A3837*
G04*
G04*
G04 #@! TF.FilePolarity,Negative*
G04*
G01*
G75*
%ADD31C,0.07093*%
%ADD32R,0.07093X0.07093*%
%ADD33R,0.07093X0.07093*%
%ADD34O,0.05118X0.08268*%
%ADD35R,0.06394X0.06394*%
%ADD36C,0.06394*%
%ADD37C,0.22638*%
D31*
X391811Y153701D02*
D03*
X386811Y143701D02*
D03*
X381811Y153701D02*
D03*
X148779Y268622D02*
D03*
X138779Y263622D02*
D03*
X148779Y258622D02*
D03*
X185118Y153701D02*
D03*
X190118Y143701D02*
D03*
X195118Y153701D02*
D03*
D32*
X376811Y143701D02*
D03*
X180118D02*
D03*
D33*
X138779Y273622D02*
D03*
D34*
X290748Y112913D02*
D03*
X352952D02*
D03*
X94489Y113189D02*
D03*
X156693D02*
D03*
D35*
X304350Y156614D02*
D03*
X108091Y156890D02*
D03*
D36*
X309350Y166614D02*
D03*
X314350Y156614D02*
D03*
X319350Y166614D02*
D03*
X324350Y156614D02*
D03*
X329350Y166614D02*
D03*
X334350Y156614D02*
D03*
X339350Y166614D02*
D03*
X113091Y166890D02*
D03*
X118091Y156890D02*
D03*
X123091Y166890D02*
D03*
X128091Y156890D02*
D03*
X133091Y166890D02*
D03*
X138091Y156890D02*
D03*
X143091Y166890D02*
D03*
D37*
X405512Y286417D02*
D03*
M02*
