G04*
G04 #@! TF.GenerationSoftware,Altium Limited,Altium Designer,22.6.1 (34)*
G04*
G04 Layer_Physical_Order=2*
G04 Layer_Color=16711680*
%FSLAX25Y25*%
%MOIN*%
G70*
G04*
G04 #@! TF.SameCoordinates,5978FB97-4CE2-4F40-84F9-A025567A3837*
G04*
G04*
G04 #@! TF.FilePolarity,Positive*
G04*
G01*
G75*
%ADD10C,0.01000*%
%ADD14C,0.01968*%
%ADD50C,0.06693*%
%ADD51R,0.06693X0.06693*%
%ADD52R,0.06693X0.06693*%
%ADD53O,0.04724X0.07874*%
%ADD54R,0.06000X0.06000*%
%ADD55C,0.06000*%
%ADD56C,0.01968*%
%ADD57C,0.02362*%
%ADD58C,0.22047*%
G36*
X408791Y298516D02*
X410274Y298119D01*
X411693Y297531D01*
X413024Y296763D01*
X414242Y295828D01*
X415328Y294742D01*
X416263Y293524D01*
X417031Y292193D01*
X417619Y290774D01*
X418016Y289291D01*
X418217Y287768D01*
Y287000D01*
Y99520D01*
Y98752D01*
X418016Y97229D01*
X417619Y95745D01*
X417031Y94326D01*
X416263Y92996D01*
X415328Y91778D01*
X414242Y90692D01*
X413024Y89757D01*
X411693Y88989D01*
X410274Y88401D01*
X408791Y88003D01*
X407268Y87803D01*
X93764D01*
X92241Y88003D01*
X90757Y88401D01*
X89338Y88989D01*
X88008Y89757D01*
X86790Y90692D01*
X85703Y91778D01*
X84768Y92996D01*
X84000Y94326D01*
X83413Y95745D01*
X83015Y97229D01*
X82815Y98752D01*
Y99520D01*
Y287000D01*
Y287768D01*
X83015Y289291D01*
X83413Y290774D01*
X84000Y292193D01*
X84768Y293524D01*
X85703Y294742D01*
X86790Y295828D01*
X88008Y296763D01*
X89338Y297531D01*
X90757Y298119D01*
X92241Y298516D01*
X93764Y298717D01*
X407268D01*
X408791Y298516D01*
D02*
G37*
%LPC*%
G36*
X406419Y297941D02*
X404605D01*
X402813Y297657D01*
X401088Y297097D01*
X399472Y296273D01*
X398005Y295207D01*
X396722Y293924D01*
X395656Y292457D01*
X394832Y290841D01*
X394272Y289116D01*
X393988Y287324D01*
Y285510D01*
X394272Y283719D01*
X394832Y281994D01*
X395656Y280378D01*
X396722Y278910D01*
X398005Y277628D01*
X399472Y276561D01*
X401088Y275738D01*
X402813Y275177D01*
X404605Y274894D01*
X406419D01*
X408210Y275177D01*
X409935Y275738D01*
X411552Y276561D01*
X413019Y277628D01*
X414301Y278910D01*
X415368Y280378D01*
X416191Y281994D01*
X416752Y283719D01*
X417035Y285510D01*
Y287324D01*
X416752Y289116D01*
X416191Y290841D01*
X415368Y292457D01*
X414301Y293924D01*
X413019Y295207D01*
X411552Y296273D01*
X409935Y297097D01*
X408210Y297657D01*
X406419Y297941D01*
D02*
G37*
G36*
X114409Y288323D02*
X113779Y288323D01*
X113149D01*
X113072Y288307D01*
X112993D01*
X111757Y288061D01*
X111683Y288031D01*
X111606Y288016D01*
X110442Y287533D01*
X110376Y287490D01*
X110303Y287459D01*
X109255Y286759D01*
X109199Y286703D01*
X109133Y286659D01*
X108242Y285768D01*
X108198Y285702D01*
X108142Y285646D01*
X107442Y284598D01*
X107412Y284525D01*
X107368Y284460D01*
X106886Y283295D01*
X106870Y283218D01*
X106840Y283145D01*
X106594Y281909D01*
Y281830D01*
X106579Y281752D01*
X106579Y280492D01*
X106594Y280414D01*
Y280335D01*
X106840Y279099D01*
X106870Y279026D01*
X106886Y278949D01*
X107368Y277784D01*
X107412Y277719D01*
X107442Y277646D01*
X108143Y276598D01*
X108198Y276542D01*
X108242Y276476D01*
X109134Y275585D01*
X109199Y275541D01*
X109255Y275485D01*
X110303Y274785D01*
X110376Y274755D01*
X110442Y274711D01*
X111606Y274229D01*
X111684Y274213D01*
X111757Y274183D01*
X112993Y273937D01*
X113072D01*
X113149Y273922D01*
X113779Y273922D01*
X114410D01*
X114487Y273937D01*
X114566D01*
X115802Y274183D01*
X115875Y274213D01*
X115953Y274229D01*
X117117Y274711D01*
X117183Y274755D01*
X117256Y274785D01*
X118304Y275485D01*
X118360Y275541D01*
X118426Y275585D01*
X119317Y276476D01*
X119360Y276542D01*
X119416Y276598D01*
X120117Y277646D01*
X120147Y277719D01*
X120191Y277785D01*
X120673Y278949D01*
X120688Y279026D01*
X120719Y279099D01*
X120965Y280335D01*
Y280415D01*
X120980Y280492D01*
X120980Y281752D01*
X120965Y281830D01*
Y281909D01*
X120719Y283145D01*
X120688Y283218D01*
X120673Y283296D01*
X120191Y284460D01*
X120147Y284526D01*
X120116Y284599D01*
X119416Y285647D01*
X119360Y285702D01*
X119316Y285768D01*
X118425Y286659D01*
X118360Y286703D01*
X118304Y286759D01*
X117256Y287459D01*
X117183Y287490D01*
X117117Y287533D01*
X115953Y288016D01*
X115875Y288031D01*
X115802Y288061D01*
X114566Y288307D01*
X114487D01*
X114409Y288323D01*
D02*
G37*
G36*
X142626Y277468D02*
X134933D01*
Y269776D01*
X142626D01*
Y277468D01*
D02*
G37*
G36*
X149286Y272468D02*
X148273D01*
X147295Y272206D01*
X146418Y271700D01*
X145702Y270984D01*
X145195Y270107D01*
X144933Y269128D01*
Y268116D01*
X145195Y267137D01*
X145702Y266260D01*
X146418Y265544D01*
X147295Y265038D01*
X148273Y264776D01*
X149286D01*
X150264Y265038D01*
X151141Y265544D01*
X151857Y266260D01*
X152364Y267137D01*
X152626Y268116D01*
Y269128D01*
X152364Y270107D01*
X151857Y270984D01*
X151141Y271700D01*
X150264Y272206D01*
X149286Y272468D01*
D02*
G37*
G36*
X139286Y267469D02*
X138273D01*
X137295Y267206D01*
X136418Y266700D01*
X135702Y265984D01*
X135195Y265107D01*
X134933Y264128D01*
Y263116D01*
X135195Y262137D01*
X135702Y261260D01*
X136418Y260544D01*
X137295Y260038D01*
X138273Y259776D01*
X139286D01*
X140264Y260038D01*
X141141Y260544D01*
X141858Y261260D01*
X142364Y262137D01*
X142626Y263116D01*
Y264128D01*
X142364Y265107D01*
X141858Y265984D01*
X141141Y266700D01*
X140264Y267206D01*
X139286Y267469D01*
D02*
G37*
G36*
X149286Y262469D02*
X148273D01*
X147295Y262206D01*
X146418Y261700D01*
X145702Y260984D01*
X145195Y260107D01*
X144933Y259128D01*
Y258116D01*
X145195Y257137D01*
X145702Y256260D01*
X146418Y255544D01*
X147295Y255038D01*
X148273Y254776D01*
X149286D01*
X150264Y255038D01*
X151141Y255544D01*
X151857Y256260D01*
X152364Y257137D01*
X152626Y258116D01*
Y259128D01*
X152364Y260107D01*
X151857Y260984D01*
X151141Y261700D01*
X150264Y262206D01*
X149286Y262469D01*
D02*
G37*
G36*
X212834Y284181D02*
X212166D01*
X211548Y283925D01*
X211075Y283452D01*
X210819Y282834D01*
Y282166D01*
X210987Y281761D01*
Y262241D01*
X202701Y253955D01*
X202296Y253787D01*
X201823Y253314D01*
X201567Y252697D01*
Y252028D01*
X201823Y251410D01*
X202296Y250937D01*
X202914Y250681D01*
X203582D01*
X204200Y250937D01*
X204673Y251410D01*
X204841Y251815D01*
X213570Y260544D01*
X213570Y260544D01*
X213898Y261035D01*
X214013Y261614D01*
Y281761D01*
X214181Y282166D01*
Y282834D01*
X213925Y283452D01*
X213452Y283925D01*
X212834Y284181D01*
D02*
G37*
G36*
X114409Y258323D02*
X113779Y258323D01*
X113149D01*
X113072Y258307D01*
X112993D01*
X111757Y258061D01*
X111683Y258031D01*
X111606Y258016D01*
X110442Y257533D01*
X110376Y257489D01*
X110303Y257459D01*
X109255Y256759D01*
X109199Y256703D01*
X109133Y256659D01*
X108242Y255768D01*
X108198Y255702D01*
X108142Y255646D01*
X107442Y254598D01*
X107412Y254525D01*
X107368Y254460D01*
X106886Y253295D01*
X106870Y253218D01*
X106840Y253145D01*
X106594Y251909D01*
Y251830D01*
X106579Y251752D01*
X106579Y250492D01*
X106594Y250414D01*
Y250335D01*
X106840Y249099D01*
X106870Y249026D01*
X106886Y248949D01*
X107368Y247784D01*
X107412Y247719D01*
X107442Y247646D01*
X108143Y246598D01*
X108198Y246542D01*
X108242Y246476D01*
X109134Y245585D01*
X109199Y245541D01*
X109255Y245485D01*
X110303Y244785D01*
X110376Y244755D01*
X110442Y244711D01*
X111606Y244229D01*
X111684Y244213D01*
X111757Y244183D01*
X112993Y243937D01*
X113072D01*
X113149Y243922D01*
X113779Y243922D01*
X114410D01*
X114487Y243937D01*
X114566D01*
X115802Y244183D01*
X115875Y244213D01*
X115953Y244229D01*
X117117Y244711D01*
X117183Y244755D01*
X117256Y244785D01*
X118304Y245485D01*
X118360Y245541D01*
X118426Y245585D01*
X119317Y246476D01*
X119360Y246542D01*
X119416Y246598D01*
X120117Y247646D01*
X120147Y247719D01*
X120191Y247785D01*
X120673Y248949D01*
X120688Y249026D01*
X120719Y249099D01*
X120965Y250336D01*
Y250415D01*
X120980Y250492D01*
X120980Y251752D01*
X120965Y251830D01*
Y251909D01*
X120719Y253145D01*
X120688Y253218D01*
X120673Y253296D01*
X120191Y254460D01*
X120147Y254526D01*
X120116Y254599D01*
X119416Y255647D01*
X119360Y255702D01*
X119316Y255768D01*
X118425Y256659D01*
X118360Y256703D01*
X118304Y256759D01*
X117256Y257459D01*
X117183Y257490D01*
X117117Y257534D01*
X115953Y258016D01*
X115875Y258031D01*
X115802Y258061D01*
X114566Y258307D01*
X114487D01*
X114409Y258323D01*
D02*
G37*
G36*
X245216Y217921D02*
X244548D01*
X243930Y217665D01*
X243457Y217192D01*
X243201Y216575D01*
Y215906D01*
X243457Y215288D01*
X243930Y214815D01*
X244548Y214559D01*
X245121D01*
X245945Y213735D01*
Y196948D01*
X245445Y196624D01*
X245118Y196760D01*
X244544D01*
X241823Y199481D01*
X241493Y199702D01*
X241102Y199779D01*
X154962D01*
X154571Y199702D01*
X154241Y199481D01*
X124739Y169979D01*
X124442Y170151D01*
X123552Y170390D01*
X122630D01*
X121740Y170151D01*
X120942Y169690D01*
X120290Y169039D01*
X119829Y168241D01*
X119591Y167350D01*
Y166429D01*
X119829Y165539D01*
X120290Y164741D01*
X120622Y164409D01*
X120414Y163909D01*
X115767D01*
X115560Y164409D01*
X115892Y164741D01*
X116352Y165539D01*
X116591Y166429D01*
Y167350D01*
X116352Y168241D01*
X116181Y168538D01*
X151702Y204059D01*
X218426D01*
X218831Y203654D01*
X219449Y203398D01*
X220118D01*
X220736Y203654D01*
X221209Y204127D01*
X221465Y204744D01*
Y205413D01*
X221209Y206031D01*
X220736Y206504D01*
X220118Y206760D01*
X219449D01*
X218831Y206504D01*
X218426Y206098D01*
X151280D01*
X150890Y206021D01*
X150559Y205800D01*
X114739Y169980D01*
X114442Y170151D01*
X113552Y170390D01*
X112630D01*
X111740Y170151D01*
X110942Y169690D01*
X110290Y169039D01*
X109829Y168241D01*
X109591Y167350D01*
Y166429D01*
X109829Y165539D01*
X110290Y164741D01*
X110942Y164089D01*
X111740Y163628D01*
X112358Y163462D01*
X112511Y162908D01*
X110655Y161052D01*
X110434Y160721D01*
X110422Y160663D01*
X110149Y160390D01*
X104591D01*
Y153390D01*
X111591D01*
Y158948D01*
X112097Y159454D01*
X112318Y159784D01*
X112329Y159843D01*
X114357Y161870D01*
X120976D01*
X121167Y161408D01*
X119739Y159980D01*
X119442Y160151D01*
X118552Y160390D01*
X117630D01*
X116740Y160151D01*
X115942Y159690D01*
X115290Y159039D01*
X114829Y158241D01*
X114591Y157350D01*
Y156429D01*
X114829Y155539D01*
X115290Y154741D01*
X115942Y154089D01*
X116740Y153628D01*
X117630Y153390D01*
X118552D01*
X119442Y153628D01*
X120240Y154089D01*
X120892Y154741D01*
X121352Y155539D01*
X121591Y156429D01*
Y157350D01*
X121352Y158241D01*
X121181Y158538D01*
X123013Y160370D01*
X126119D01*
X126253Y159870D01*
X125942Y159690D01*
X125290Y159039D01*
X124829Y158241D01*
X124591Y157350D01*
Y156429D01*
X124829Y155539D01*
X125290Y154741D01*
X125942Y154089D01*
X126740Y153628D01*
X127630Y153390D01*
X128552D01*
X129442Y153628D01*
X129739Y153800D01*
X134905Y148633D01*
X135236Y148412D01*
X135626Y148335D01*
X202144D01*
X202534Y148412D01*
X202865Y148633D01*
X247686Y193454D01*
X247906Y193785D01*
X247984Y194175D01*
Y214158D01*
X247906Y214548D01*
X247686Y214879D01*
X246563Y216001D01*
Y216575D01*
X246307Y217192D01*
X245834Y217665D01*
X245216Y217921D01*
D02*
G37*
G36*
X339811Y170114D02*
X338890D01*
X337999Y169876D01*
X337201Y169415D01*
X336550Y168763D01*
X336089Y167965D01*
X335850Y167075D01*
Y166154D01*
X336089Y165263D01*
X336550Y164465D01*
X337201Y163814D01*
X337999Y163353D01*
X338890Y163114D01*
X339811D01*
X340701Y163353D01*
X341499Y163814D01*
X342151Y164465D01*
X342612Y165263D01*
X342850Y166154D01*
Y167075D01*
X342612Y167965D01*
X342151Y168763D01*
X341499Y169415D01*
X340701Y169876D01*
X339811Y170114D01*
D02*
G37*
G36*
X329811D02*
X328890D01*
X327999Y169876D01*
X327201Y169415D01*
X326550Y168763D01*
X326089Y167965D01*
X325850Y167075D01*
Y166154D01*
X326089Y165263D01*
X326550Y164465D01*
X327201Y163814D01*
X327999Y163353D01*
X328890Y163114D01*
X329811D01*
X330701Y163353D01*
X331499Y163814D01*
X332151Y164465D01*
X332612Y165263D01*
X332850Y166154D01*
Y167075D01*
X332612Y167965D01*
X332151Y168763D01*
X331499Y169415D01*
X330701Y169876D01*
X329811Y170114D01*
D02*
G37*
G36*
X319811D02*
X318890D01*
X317999Y169876D01*
X317201Y169415D01*
X316550Y168763D01*
X316089Y167965D01*
X315850Y167075D01*
Y166154D01*
X316089Y165263D01*
X316550Y164465D01*
X317201Y163814D01*
X317999Y163353D01*
X318890Y163114D01*
X319811D01*
X320701Y163353D01*
X321499Y163814D01*
X322151Y164465D01*
X322612Y165263D01*
X322850Y166154D01*
Y167075D01*
X322612Y167965D01*
X322151Y168763D01*
X321499Y169415D01*
X320701Y169876D01*
X319811Y170114D01*
D02*
G37*
G36*
X309811D02*
X308890D01*
X307999Y169876D01*
X307201Y169415D01*
X306550Y168763D01*
X306089Y167965D01*
X305850Y167075D01*
Y166154D01*
X306089Y165263D01*
X306550Y164465D01*
X307201Y163814D01*
X307999Y163353D01*
X308890Y163114D01*
X309811D01*
X310701Y163353D01*
X311499Y163814D01*
X312151Y164465D01*
X312612Y165263D01*
X312850Y166154D01*
Y167075D01*
X312612Y167965D01*
X312151Y168763D01*
X311499Y169415D01*
X310701Y169876D01*
X309811Y170114D01*
D02*
G37*
G36*
X334811Y160114D02*
X333890D01*
X332999Y159876D01*
X332201Y159415D01*
X331550Y158763D01*
X331089Y157965D01*
X330850Y157075D01*
Y156154D01*
X331089Y155263D01*
X331550Y154465D01*
X332201Y153814D01*
X332999Y153353D01*
X333890Y153114D01*
X334811D01*
X335701Y153353D01*
X336499Y153814D01*
X337151Y154465D01*
X337612Y155263D01*
X337850Y156154D01*
Y157075D01*
X337612Y157965D01*
X337151Y158763D01*
X336499Y159415D01*
X335701Y159876D01*
X334811Y160114D01*
D02*
G37*
G36*
X324811D02*
X323890D01*
X322999Y159876D01*
X322201Y159415D01*
X321550Y158763D01*
X321089Y157965D01*
X320850Y157075D01*
Y156154D01*
X321089Y155263D01*
X321550Y154465D01*
X322201Y153814D01*
X322999Y153353D01*
X323890Y153114D01*
X324811D01*
X325701Y153353D01*
X326499Y153814D01*
X327151Y154465D01*
X327612Y155263D01*
X327850Y156154D01*
Y157075D01*
X327612Y157965D01*
X327151Y158763D01*
X326499Y159415D01*
X325701Y159876D01*
X324811Y160114D01*
D02*
G37*
G36*
X314811D02*
X313890D01*
X312999Y159876D01*
X312201Y159415D01*
X311550Y158763D01*
X311089Y157965D01*
X310850Y157075D01*
Y156154D01*
X311089Y155263D01*
X311550Y154465D01*
X312201Y153814D01*
X312999Y153353D01*
X313890Y153114D01*
X314811D01*
X315701Y153353D01*
X316499Y153814D01*
X317151Y154465D01*
X317612Y155263D01*
X317850Y156154D01*
Y157075D01*
X317612Y157965D01*
X317151Y158763D01*
X316499Y159415D01*
X315701Y159876D01*
X314811Y160114D01*
D02*
G37*
G36*
X307850D02*
X300850D01*
Y153114D01*
X307850D01*
Y160114D01*
D02*
G37*
G36*
X392317Y157547D02*
X391305D01*
X390326Y157285D01*
X389449Y156779D01*
X388733Y156063D01*
X388227Y155185D01*
X387965Y154207D01*
Y153194D01*
X388227Y152216D01*
X388733Y151339D01*
X389449Y150623D01*
X390326Y150117D01*
X391305Y149854D01*
X392317D01*
X393296Y150117D01*
X394173Y150623D01*
X394889Y151339D01*
X395395Y152216D01*
X395657Y153194D01*
Y154207D01*
X395395Y155185D01*
X394889Y156063D01*
X394173Y156779D01*
X393296Y157285D01*
X392317Y157547D01*
D02*
G37*
G36*
X382317D02*
X381305D01*
X380326Y157285D01*
X379449Y156779D01*
X378733Y156063D01*
X378227Y155185D01*
X377965Y154207D01*
Y153194D01*
X378227Y152216D01*
X378733Y151339D01*
X379449Y150623D01*
X380326Y150117D01*
X381305Y149854D01*
X382317D01*
X383296Y150117D01*
X384173Y150623D01*
X384889Y151339D01*
X385395Y152216D01*
X385658Y153194D01*
Y154207D01*
X385395Y155185D01*
X384889Y156063D01*
X384173Y156779D01*
X383296Y157285D01*
X382317Y157547D01*
D02*
G37*
G36*
X387317Y147547D02*
X386305D01*
X385326Y147285D01*
X384449Y146779D01*
X383733Y146063D01*
X383227Y145185D01*
X382965Y144207D01*
Y143194D01*
X383227Y142216D01*
X383733Y141339D01*
X384449Y140623D01*
X385326Y140117D01*
X386305Y139854D01*
X387317D01*
X388296Y140117D01*
X389173Y140623D01*
X389889Y141339D01*
X390395Y142216D01*
X390657Y143194D01*
Y144207D01*
X390395Y145185D01*
X389889Y146063D01*
X389173Y146779D01*
X388296Y147285D01*
X387317Y147547D01*
D02*
G37*
G36*
X380658D02*
X372965D01*
Y139854D01*
X380658D01*
Y147547D01*
D02*
G37*
G36*
X190624D02*
X189612D01*
X188633Y147285D01*
X187756Y146779D01*
X187040Y146063D01*
X186534Y145185D01*
X186272Y144207D01*
Y143194D01*
X186534Y142216D01*
X187040Y141339D01*
X187756Y140623D01*
X188633Y140117D01*
X189612Y139854D01*
X190624D01*
X191603Y140117D01*
X192480Y140623D01*
X193196Y141339D01*
X193702Y142216D01*
X193965Y143194D01*
Y144207D01*
X193702Y145185D01*
X193196Y146063D01*
X192480Y146779D01*
X191603Y147285D01*
X190624Y147547D01*
D02*
G37*
G36*
X183965D02*
X176272D01*
Y139854D01*
X183965D01*
Y147547D01*
D02*
G37*
G36*
X147414Y137386D02*
X147336Y137371D01*
X147257Y137371D01*
X146044Y137130D01*
X145971Y137100D01*
X145894Y137085D01*
X144751Y136613D01*
X144685Y136569D01*
X144612Y136539D01*
X143582Y135854D01*
X143526Y135798D01*
X143461Y135755D01*
X142584Y134882D01*
X142540Y134817D01*
X142484Y134761D01*
X141794Y133735D01*
X141763Y133662D01*
X141719Y133597D01*
X141242Y132456D01*
X141226Y132378D01*
X141196Y132306D01*
X140949Y131093D01*
X140949Y131015D01*
X140933Y130937D01*
X140930Y130319D01*
X140930Y130317D01*
X140930Y130315D01*
X140930Y130313D01*
X140930Y130311D01*
X140933Y129693D01*
X140949Y129615D01*
X140949Y129536D01*
X141196Y128324D01*
X141226Y128252D01*
X141242Y128174D01*
X141719Y127033D01*
X141763Y126968D01*
X141794Y126895D01*
X142484Y125869D01*
X142540Y125813D01*
X142584Y125748D01*
X143461Y124875D01*
X143526Y124832D01*
X143582Y124776D01*
X144612Y124091D01*
X144685Y124061D01*
X144750Y124017D01*
X145894Y123545D01*
X145971Y123530D01*
X146044Y123500D01*
X147257Y123259D01*
X147336Y123259D01*
X147413Y123243D01*
X148650Y123243D01*
X148728Y123259D01*
X148806Y123259D01*
X150020Y123499D01*
X150093Y123530D01*
X150170Y123545D01*
X151313Y124017D01*
X151379Y124060D01*
X151452Y124090D01*
X152482Y124776D01*
X152537Y124831D01*
X152603Y124875D01*
X153480Y125748D01*
X153524Y125813D01*
X153580Y125868D01*
X154270Y126895D01*
X154300Y126968D01*
X154344Y127033D01*
X154822Y128174D01*
X154838Y128251D01*
X154868Y128324D01*
X155115Y129536D01*
X155115Y129615D01*
X155131Y129692D01*
X155134Y130311D01*
X155133Y130313D01*
X155134Y130315D01*
X155133Y130317D01*
X155134Y130318D01*
X155131Y130937D01*
X155115Y131014D01*
X155115Y131093D01*
X154868Y132305D01*
X154838Y132378D01*
X154822Y132455D01*
X154345Y133596D01*
X154301Y133662D01*
X154270Y133734D01*
X153580Y134761D01*
X153524Y134816D01*
X153480Y134882D01*
X152603Y135754D01*
X152538Y135798D01*
X152482Y135854D01*
X151452Y136539D01*
X151379Y136569D01*
X151314Y136613D01*
X150170Y137085D01*
X150093Y137100D01*
X150020Y137130D01*
X148807Y137371D01*
X148728Y137371D01*
X148651Y137386D01*
X147414Y137386D01*
D02*
G37*
G36*
X102532D02*
X102454Y137371D01*
X102375Y137371D01*
X101162Y137130D01*
X101089Y137100D01*
X101012Y137085D01*
X99869Y136613D01*
X99803Y136569D01*
X99730Y136539D01*
X98700Y135854D01*
X98645Y135798D01*
X98579Y135755D01*
X97702Y134882D01*
X97658Y134817D01*
X97602Y134761D01*
X96912Y133735D01*
X96881Y133662D01*
X96837Y133597D01*
X96360Y132456D01*
X96344Y132378D01*
X96314Y132306D01*
X96067Y131093D01*
X96067Y131015D01*
X96051Y130937D01*
X96048Y130319D01*
X96048Y130317D01*
X96048Y130315D01*
X96048Y130313D01*
X96048Y130311D01*
X96051Y129693D01*
X96067Y129615D01*
X96067Y129536D01*
X96314Y128324D01*
X96344Y128252D01*
X96360Y128174D01*
X96837Y127033D01*
X96881Y126968D01*
X96912Y126895D01*
X97602Y125869D01*
X97658Y125813D01*
X97702Y125748D01*
X98579Y124875D01*
X98644Y124832D01*
X98700Y124776D01*
X99730Y124091D01*
X99803Y124061D01*
X99868Y124017D01*
X101012Y123545D01*
X101089Y123530D01*
X101162Y123500D01*
X102375Y123259D01*
X102454Y123259D01*
X102531Y123243D01*
X103768Y123243D01*
X103846Y123259D01*
X103924Y123259D01*
X105138Y123499D01*
X105211Y123530D01*
X105288Y123545D01*
X106431Y124017D01*
X106497Y124060D01*
X106570Y124090D01*
X107600Y124776D01*
X107655Y124831D01*
X107721Y124875D01*
X108598Y125748D01*
X108642Y125813D01*
X108698Y125868D01*
X109388Y126895D01*
X109418Y126968D01*
X109462Y127033D01*
X109940Y128174D01*
X109956Y128251D01*
X109986Y128324D01*
X110233Y129536D01*
X110233Y129615D01*
X110249Y129692D01*
X110252Y130311D01*
X110251Y130313D01*
X110252Y130315D01*
X110251Y130317D01*
X110252Y130318D01*
X110249Y130937D01*
X110233Y131014D01*
X110233Y131093D01*
X109986Y132305D01*
X109956Y132378D01*
X109940Y132455D01*
X109463Y133596D01*
X109419Y133662D01*
X109388Y133734D01*
X108698Y134761D01*
X108642Y134816D01*
X108598Y134882D01*
X107721Y135754D01*
X107656Y135798D01*
X107600Y135854D01*
X106570Y136539D01*
X106497Y136569D01*
X106432Y136613D01*
X105288Y137085D01*
X105211Y137100D01*
X105138Y137130D01*
X103925Y137371D01*
X103846Y137371D01*
X103769Y137386D01*
X102532Y137386D01*
D02*
G37*
G36*
X343673Y137111D02*
X343596Y137095D01*
X343517Y137095D01*
X342304Y136855D01*
X342231Y136825D01*
X342154Y136810D01*
X341010Y136337D01*
X340945Y136294D01*
X340872Y136264D01*
X339842Y135579D01*
X339786Y135523D01*
X339720Y135479D01*
X338843Y134607D01*
X338800Y134541D01*
X338744Y134486D01*
X338053Y133459D01*
X338023Y133387D01*
X337979Y133321D01*
X337501Y132180D01*
X337486Y132103D01*
X337455Y132030D01*
X337209Y130818D01*
X337208Y130739D01*
X337193Y130662D01*
X337190Y130043D01*
X337190Y130042D01*
X337190Y130040D01*
X337190Y130038D01*
X337190Y130036D01*
X337193Y129417D01*
X337208Y129340D01*
X337209Y129261D01*
X337455Y128049D01*
X337486Y127976D01*
X337501Y127899D01*
X337979Y126758D01*
X338023Y126693D01*
X338053Y126620D01*
X338743Y125593D01*
X338799Y125538D01*
X338843Y125472D01*
X339720Y124600D01*
X339786Y124556D01*
X339842Y124501D01*
X340871Y123815D01*
X340944Y123785D01*
X341010Y123741D01*
X342153Y123269D01*
X342231Y123254D01*
X342303Y123224D01*
X343517Y122984D01*
X343596Y122984D01*
X343673Y122968D01*
X344910Y122968D01*
X344987Y122984D01*
X345066Y122984D01*
X346279Y123224D01*
X346352Y123254D01*
X346429Y123269D01*
X347573Y123741D01*
X347638Y123785D01*
X347711Y123815D01*
X348741Y124500D01*
X348797Y124556D01*
X348863Y124600D01*
X349739Y125472D01*
X349783Y125538D01*
X349839Y125593D01*
X350530Y126620D01*
X350560Y126692D01*
X350604Y126758D01*
X351082Y127899D01*
X351097Y127976D01*
X351128Y128049D01*
X351374Y129261D01*
X351375Y129340D01*
X351390Y129417D01*
X351393Y130035D01*
X351393Y130037D01*
X351393Y130039D01*
X351393Y130041D01*
X351393Y130043D01*
X351390Y130662D01*
X351375Y130739D01*
X351374Y130818D01*
X351128Y132030D01*
X351097Y132103D01*
X351082Y132180D01*
X350604Y133321D01*
X350560Y133386D01*
X350530Y133459D01*
X349839Y134485D01*
X349783Y134541D01*
X349740Y134606D01*
X348863Y135479D01*
X348797Y135523D01*
X348741Y135578D01*
X347712Y136264D01*
X347639Y136294D01*
X347573Y136337D01*
X346430Y136809D01*
X346352Y136825D01*
X346280Y136855D01*
X345066Y137095D01*
X344987Y137095D01*
X344910Y137111D01*
X343673Y137111D01*
D02*
G37*
G36*
X298791D02*
X298714Y137095D01*
X298635Y137095D01*
X297422Y136855D01*
X297349Y136825D01*
X297271Y136810D01*
X296128Y136337D01*
X296062Y136294D01*
X295990Y136264D01*
X294960Y135579D01*
X294904Y135523D01*
X294838Y135479D01*
X293962Y134607D01*
X293918Y134541D01*
X293862Y134486D01*
X293171Y133459D01*
X293141Y133387D01*
X293097Y133321D01*
X292619Y132180D01*
X292604Y132103D01*
X292573Y132030D01*
X292327Y130818D01*
X292326Y130739D01*
X292311Y130662D01*
X292307Y130043D01*
X292308Y130042D01*
X292307Y130040D01*
X292308Y130038D01*
X292307Y130036D01*
X292311Y129417D01*
X292326Y129340D01*
X292327Y129261D01*
X292573Y128049D01*
X292603Y127976D01*
X292619Y127899D01*
X293097Y126758D01*
X293141Y126693D01*
X293171Y126620D01*
X293862Y125593D01*
X293917Y125538D01*
X293961Y125472D01*
X294838Y124600D01*
X294904Y124556D01*
X294960Y124501D01*
X295989Y123815D01*
X296062Y123785D01*
X296128Y123741D01*
X297271Y123269D01*
X297348Y123254D01*
X297421Y123224D01*
X298635Y122984D01*
X298713Y122984D01*
X298791Y122968D01*
X300028Y122968D01*
X300105Y122984D01*
X300184Y122984D01*
X301397Y123224D01*
X301470Y123254D01*
X301547Y123269D01*
X302691Y123741D01*
X302756Y123785D01*
X302829Y123815D01*
X303859Y124500D01*
X303915Y124556D01*
X303981Y124600D01*
X304857Y125472D01*
X304901Y125538D01*
X304957Y125593D01*
X305648Y126620D01*
X305678Y126692D01*
X305722Y126758D01*
X306200Y127899D01*
X306215Y127976D01*
X306246Y128049D01*
X306492Y129261D01*
X306493Y129340D01*
X306508Y129417D01*
X306511Y130035D01*
X306511Y130037D01*
X306511Y130039D01*
X306511Y130041D01*
X306511Y130043D01*
X306508Y130662D01*
X306493Y130739D01*
X306492Y130818D01*
X306246Y132030D01*
X306215Y132103D01*
X306200Y132180D01*
X305722Y133321D01*
X305678Y133386D01*
X305648Y133459D01*
X304958Y134485D01*
X304902Y134541D01*
X304858Y134606D01*
X303981Y135479D01*
X303915Y135523D01*
X303859Y135578D01*
X302830Y136264D01*
X302757Y136294D01*
X302691Y136337D01*
X301548Y136809D01*
X301470Y136825D01*
X301398Y136855D01*
X300184Y137095D01*
X300106Y137095D01*
X300028Y137111D01*
X298791Y137111D01*
D02*
G37*
G36*
X94739Y117617D02*
Y113439D01*
X97376D01*
Y114763D01*
X97277Y115511D01*
X96989Y116207D01*
X96530Y116805D01*
X95932Y117264D01*
X95236Y117552D01*
X94739Y117617D01*
D02*
G37*
G36*
X156943D02*
Y113439D01*
X159580D01*
Y114763D01*
X159481Y115511D01*
X159193Y116207D01*
X158734Y116805D01*
X158136Y117264D01*
X157440Y117552D01*
X156943Y117617D01*
D02*
G37*
G36*
X94239D02*
X93742Y117552D01*
X93045Y117264D01*
X92448Y116805D01*
X91989Y116207D01*
X91700Y115511D01*
X91602Y114763D01*
Y113439D01*
X94239D01*
Y117617D01*
D02*
G37*
G36*
X156443D02*
X155946Y117552D01*
X155249Y117264D01*
X154651Y116805D01*
X154193Y116207D01*
X153904Y115511D01*
X153806Y114763D01*
Y113439D01*
X156443D01*
Y117617D01*
D02*
G37*
G36*
X290998Y117342D02*
Y113163D01*
X293635D01*
Y114488D01*
X293537Y115235D01*
X293249Y115931D01*
X292790Y116529D01*
X292192Y116988D01*
X291496Y117277D01*
X290998Y117342D01*
D02*
G37*
G36*
X353202D02*
Y113163D01*
X355839D01*
Y114488D01*
X355741Y115235D01*
X355452Y115931D01*
X354994Y116529D01*
X354396Y116988D01*
X353700Y117277D01*
X353202Y117342D01*
D02*
G37*
G36*
X290498Y117342D02*
X290001Y117277D01*
X289305Y116988D01*
X288707Y116529D01*
X288248Y115931D01*
X287960Y115235D01*
X287861Y114488D01*
Y113163D01*
X290498D01*
Y117342D01*
D02*
G37*
G36*
X352702D02*
X352205Y117277D01*
X351509Y116988D01*
X350911Y116529D01*
X350452Y115931D01*
X350164Y115235D01*
X350065Y114488D01*
Y113163D01*
X352702D01*
Y117342D01*
D02*
G37*
G36*
X399941Y125901D02*
X398681Y125901D01*
X398603Y125886D01*
X398524D01*
X397288Y125640D01*
X397215Y125610D01*
X397137Y125594D01*
X395973Y125112D01*
X395907Y125068D01*
X395834Y125038D01*
X394787Y124338D01*
X394731Y124282D01*
X394665Y124238D01*
X393774Y123347D01*
X393730Y123281D01*
X393674Y123225D01*
X392974Y122177D01*
X392944Y122104D01*
X392900Y122038D01*
X392417Y120874D01*
X392402Y120796D01*
X392372Y120723D01*
X392126Y119487D01*
Y119408D01*
X392110Y119331D01*
X392110Y118701D01*
Y118070D01*
X392126Y117993D01*
Y117914D01*
X392372Y116678D01*
X392402Y116605D01*
X392417Y116527D01*
X392900Y115363D01*
X392944Y115297D01*
X392974Y115224D01*
X393674Y114176D01*
X393730Y114120D01*
X393774Y114055D01*
X394665Y113163D01*
X394731Y113120D01*
X394787Y113064D01*
X395834Y112364D01*
X395908Y112333D01*
X395973Y112289D01*
X397138Y111807D01*
X397215Y111792D01*
X397288Y111761D01*
X398524Y111516D01*
X398603D01*
X398681Y111500D01*
X399941Y111500D01*
X400019Y111516D01*
X400098D01*
X401334Y111761D01*
X401407Y111792D01*
X401484Y111807D01*
X402649Y112290D01*
X402714Y112333D01*
X402787Y112364D01*
X403835Y113064D01*
X403891Y113120D01*
X403957Y113164D01*
X404848Y114055D01*
X404892Y114121D01*
X404948Y114176D01*
X405648Y115224D01*
X405678Y115297D01*
X405722Y115363D01*
X406205Y116527D01*
X406220Y116605D01*
X406250Y116678D01*
X406496Y117914D01*
Y117993D01*
X406511Y118071D01*
X406511Y118701D01*
Y119331D01*
X406496Y119409D01*
Y119488D01*
X406250Y120724D01*
X406220Y120797D01*
X406204Y120874D01*
X405722Y122038D01*
X405678Y122104D01*
X405648Y122177D01*
X404948Y123225D01*
X404892Y123281D01*
X404848Y123347D01*
X403957Y124238D01*
X403891Y124282D01*
X403835Y124338D01*
X402787Y125038D01*
X402714Y125068D01*
X402648Y125112D01*
X401484Y125594D01*
X401407Y125610D01*
X401334Y125640D01*
X400098Y125886D01*
X400019D01*
X399941Y125901D01*
D02*
G37*
G36*
X369941D02*
X368681Y125901D01*
X368603Y125886D01*
X368524D01*
X367288Y125640D01*
X367215Y125610D01*
X367137Y125594D01*
X365973Y125112D01*
X365907Y125068D01*
X365834Y125038D01*
X364787Y124338D01*
X364731Y124282D01*
X364665Y124238D01*
X363774Y123347D01*
X363730Y123281D01*
X363674Y123225D01*
X362974Y122177D01*
X362944Y122104D01*
X362900Y122038D01*
X362417Y120874D01*
X362402Y120796D01*
X362372Y120723D01*
X362126Y119487D01*
Y119408D01*
X362110Y119331D01*
X362110Y118701D01*
Y118070D01*
X362126Y117993D01*
Y117914D01*
X362372Y116678D01*
X362402Y116605D01*
X362417Y116527D01*
X362900Y115363D01*
X362944Y115297D01*
X362974Y115224D01*
X363674Y114176D01*
X363730Y114120D01*
X363774Y114055D01*
X364665Y113163D01*
X364731Y113120D01*
X364787Y113064D01*
X365834Y112364D01*
X365908Y112333D01*
X365973Y112289D01*
X367138Y111807D01*
X367215Y111792D01*
X367288Y111761D01*
X368524Y111516D01*
X368603D01*
X368681Y111500D01*
X369941Y111500D01*
X370019Y111516D01*
X370098D01*
X371334Y111761D01*
X371407Y111792D01*
X371484Y111807D01*
X372649Y112290D01*
X372714Y112333D01*
X372787Y112364D01*
X373835Y113064D01*
X373891Y113120D01*
X373957Y113164D01*
X374848Y114055D01*
X374892Y114121D01*
X374948Y114176D01*
X375648Y115224D01*
X375678Y115297D01*
X375722Y115363D01*
X376204Y116527D01*
X376220Y116605D01*
X376250Y116678D01*
X376496Y117914D01*
Y117993D01*
X376512Y118071D01*
X376511Y118701D01*
Y119331D01*
X376496Y119409D01*
Y119488D01*
X376250Y120724D01*
X376220Y120797D01*
X376204Y120874D01*
X375722Y122038D01*
X375678Y122104D01*
X375648Y122177D01*
X374948Y123225D01*
X374892Y123281D01*
X374848Y123347D01*
X373957Y124238D01*
X373891Y124282D01*
X373835Y124338D01*
X372787Y125038D01*
X372714Y125068D01*
X372649Y125112D01*
X371484Y125594D01*
X371407Y125610D01*
X371334Y125640D01*
X370097Y125886D01*
X370019D01*
X369941Y125901D01*
D02*
G37*
G36*
X203248D02*
X201988Y125901D01*
X201910Y125886D01*
X201831D01*
X200595Y125640D01*
X200522Y125610D01*
X200445Y125594D01*
X199280Y125112D01*
X199214Y125068D01*
X199141Y125038D01*
X198094Y124338D01*
X198038Y124282D01*
X197972Y124238D01*
X197081Y123347D01*
X197037Y123281D01*
X196981Y123225D01*
X196281Y122177D01*
X196251Y122104D01*
X196207Y122038D01*
X195724Y120874D01*
X195709Y120796D01*
X195679Y120723D01*
X195433Y119487D01*
Y119408D01*
X195417Y119331D01*
X195417Y118701D01*
Y118070D01*
X195433Y117993D01*
Y117914D01*
X195679Y116678D01*
X195709Y116605D01*
X195724Y116527D01*
X196207Y115363D01*
X196251Y115297D01*
X196281Y115224D01*
X196981Y114176D01*
X197037Y114120D01*
X197081Y114055D01*
X197972Y113163D01*
X198038Y113120D01*
X198094Y113064D01*
X199142Y112364D01*
X199215Y112333D01*
X199280Y112289D01*
X200445Y111807D01*
X200522Y111792D01*
X200595Y111761D01*
X201831Y111516D01*
X201910D01*
X201988Y111500D01*
X203248Y111500D01*
X203326Y111516D01*
X203405D01*
X204641Y111761D01*
X204714Y111792D01*
X204791Y111807D01*
X205956Y112290D01*
X206021Y112333D01*
X206095Y112364D01*
X207142Y113064D01*
X207198Y113120D01*
X207264Y113164D01*
X208155Y114055D01*
X208199Y114121D01*
X208255Y114176D01*
X208955Y115224D01*
X208985Y115297D01*
X209029Y115363D01*
X209512Y116527D01*
X209527Y116605D01*
X209557Y116678D01*
X209803Y117914D01*
Y117993D01*
X209819Y118071D01*
X209819Y118701D01*
Y119331D01*
X209803Y119409D01*
Y119488D01*
X209557Y120724D01*
X209527Y120797D01*
X209511Y120874D01*
X209029Y122038D01*
X208985Y122104D01*
X208955Y122177D01*
X208255Y123225D01*
X208199Y123281D01*
X208155Y123347D01*
X207264Y124238D01*
X207198Y124282D01*
X207142Y124338D01*
X206094Y125038D01*
X206021Y125068D01*
X205956Y125112D01*
X204791Y125594D01*
X204714Y125610D01*
X204641Y125640D01*
X203405Y125886D01*
X203326D01*
X203248Y125901D01*
D02*
G37*
G36*
X173248D02*
X171988Y125901D01*
X171910Y125886D01*
X171831D01*
X170595Y125640D01*
X170522Y125610D01*
X170445Y125594D01*
X169280Y125112D01*
X169214Y125068D01*
X169141Y125038D01*
X168094Y124338D01*
X168038Y124282D01*
X167972Y124238D01*
X167081Y123347D01*
X167037Y123281D01*
X166981Y123225D01*
X166281Y122177D01*
X166251Y122104D01*
X166207Y122038D01*
X165724Y120874D01*
X165709Y120796D01*
X165679Y120723D01*
X165433Y119487D01*
Y119408D01*
X165418Y119331D01*
X165418Y118701D01*
Y118070D01*
X165433Y117993D01*
Y117914D01*
X165679Y116678D01*
X165709Y116605D01*
X165725Y116527D01*
X166207Y115363D01*
X166251Y115297D01*
X166281Y115224D01*
X166981Y114176D01*
X167037Y114120D01*
X167081Y114055D01*
X167972Y113163D01*
X168038Y113120D01*
X168094Y113064D01*
X169142Y112364D01*
X169215Y112333D01*
X169280Y112289D01*
X170445Y111807D01*
X170522Y111792D01*
X170595Y111761D01*
X171831Y111516D01*
X171911D01*
X171988Y111500D01*
X173248Y111500D01*
X173326Y111516D01*
X173405D01*
X174641Y111761D01*
X174714Y111792D01*
X174792Y111807D01*
X175956Y112290D01*
X176022Y112333D01*
X176095Y112364D01*
X177142Y113064D01*
X177198Y113120D01*
X177264Y113164D01*
X178155Y114055D01*
X178199Y114121D01*
X178255Y114176D01*
X178955Y115224D01*
X178985Y115297D01*
X179029Y115363D01*
X179512Y116527D01*
X179527Y116605D01*
X179557Y116678D01*
X179803Y117914D01*
Y117993D01*
X179818Y118071D01*
X179818Y118701D01*
Y119331D01*
X179803Y119409D01*
Y119488D01*
X179557Y120724D01*
X179527Y120797D01*
X179511Y120874D01*
X179029Y122038D01*
X178985Y122104D01*
X178955Y122177D01*
X178255Y123225D01*
X178199Y123281D01*
X178155Y123347D01*
X177264Y124238D01*
X177198Y124282D01*
X177142Y124338D01*
X176094Y125038D01*
X176021Y125068D01*
X175956Y125112D01*
X174791Y125594D01*
X174714Y125610D01*
X174641Y125640D01*
X173405Y125886D01*
X173326D01*
X173248Y125901D01*
D02*
G37*
G36*
X159580Y112939D02*
X156943D01*
Y108760D01*
X157440Y108825D01*
X158136Y109114D01*
X158734Y109573D01*
X159193Y110170D01*
X159481Y110867D01*
X159580Y111614D01*
Y112939D01*
D02*
G37*
G36*
X97376D02*
X94739D01*
Y108760D01*
X95236Y108825D01*
X95932Y109114D01*
X96530Y109573D01*
X96989Y110170D01*
X97277Y110867D01*
X97376Y111614D01*
Y112939D01*
D02*
G37*
G36*
X156443D02*
X153806D01*
Y111614D01*
X153904Y110867D01*
X154193Y110170D01*
X154651Y109573D01*
X155249Y109114D01*
X155946Y108825D01*
X156443Y108760D01*
Y112939D01*
D02*
G37*
G36*
X94239D02*
X91602D01*
Y111614D01*
X91700Y110867D01*
X91989Y110170D01*
X92448Y109573D01*
X93045Y109114D01*
X93742Y108825D01*
X94239Y108760D01*
Y112939D01*
D02*
G37*
G36*
X293635Y112663D02*
X290998D01*
Y108484D01*
X291496Y108550D01*
X292192Y108838D01*
X292790Y109297D01*
X293249Y109895D01*
X293537Y110591D01*
X293635Y111338D01*
Y112663D01*
D02*
G37*
G36*
X355839D02*
X353202D01*
Y108484D01*
X353700Y108550D01*
X354396Y108838D01*
X354994Y109297D01*
X355452Y109895D01*
X355741Y110591D01*
X355839Y111338D01*
Y112663D01*
D02*
G37*
G36*
X352702D02*
X350065D01*
Y111338D01*
X350164Y110591D01*
X350452Y109895D01*
X350911Y109297D01*
X351509Y108838D01*
X352205Y108550D01*
X352702Y108484D01*
Y112663D01*
D02*
G37*
G36*
X290498D02*
X287861D01*
Y111338D01*
X287960Y110591D01*
X288248Y109895D01*
X288707Y109297D01*
X289305Y108838D01*
X290001Y108550D01*
X290498Y108484D01*
Y112663D01*
D02*
G37*
%LPD*%
G36*
X218626Y197278D02*
X216927Y195579D01*
X216344Y195704D01*
X216209Y196031D01*
X215736Y196504D01*
X215118Y196760D01*
X214449D01*
X213831Y196504D01*
X213426Y196098D01*
X161280D01*
X160890Y196021D01*
X160559Y195800D01*
X134739Y169980D01*
X134442Y170151D01*
X133552Y170390D01*
X132630D01*
X131740Y170151D01*
X130942Y169690D01*
X130290Y169039D01*
X129829Y168241D01*
X129591Y167350D01*
Y166429D01*
X129829Y165539D01*
X130290Y164741D01*
X130622Y164409D01*
X130414Y163909D01*
X125767D01*
X125560Y164409D01*
X125892Y164741D01*
X126352Y165539D01*
X126591Y166429D01*
Y167350D01*
X126352Y168241D01*
X126181Y168537D01*
X155384Y197740D01*
X218434D01*
X218626Y197278D01*
D02*
G37*
G36*
X243102Y195318D02*
Y194744D01*
X243358Y194126D01*
X243831Y193654D01*
X244158Y193518D01*
X244283Y192936D01*
X201721Y150374D01*
X197938D01*
X197731Y150874D01*
X198196Y151339D01*
X198702Y152216D01*
X198965Y153194D01*
Y154207D01*
X198702Y155185D01*
X198196Y156063D01*
X197480Y156779D01*
X196603Y157285D01*
X195624Y157547D01*
X194612D01*
X193633Y157285D01*
X192756Y156779D01*
X192040Y156063D01*
X191534Y155185D01*
X191272Y154207D01*
Y153194D01*
X191534Y152216D01*
X192040Y151339D01*
X192505Y150874D01*
X192298Y150374D01*
X187938D01*
X187731Y150874D01*
X188196Y151339D01*
X188702Y152216D01*
X188965Y153194D01*
Y154207D01*
X188702Y155185D01*
X188196Y156063D01*
X187480Y156779D01*
X186603Y157285D01*
X185625Y157547D01*
X184612D01*
X183633Y157285D01*
X182756Y156779D01*
X182040Y156063D01*
X181534Y155185D01*
X181272Y154207D01*
Y153194D01*
X181534Y152216D01*
X182040Y151339D01*
X182505Y150874D01*
X182298Y150374D01*
X136048D01*
X131181Y155242D01*
X131352Y155539D01*
X131591Y156429D01*
Y157350D01*
X131352Y158241D01*
X130892Y159039D01*
X130240Y159690D01*
X129929Y159870D01*
X130063Y160370D01*
X136119D01*
X136253Y159870D01*
X135942Y159690D01*
X135290Y159039D01*
X134829Y158241D01*
X134591Y157350D01*
Y156429D01*
X134829Y155539D01*
X135290Y154741D01*
X135942Y154089D01*
X136740Y153628D01*
X137630Y153390D01*
X138552D01*
X139442Y153628D01*
X140240Y154089D01*
X140892Y154741D01*
X141352Y155539D01*
X141591Y156429D01*
Y157350D01*
X141352Y158241D01*
X141181Y158538D01*
X141513Y158870D01*
X199594D01*
X199985Y158948D01*
X200315Y159169D01*
X234544Y193398D01*
X235118D01*
X235736Y193654D01*
X236209Y194126D01*
X236465Y194744D01*
Y195413D01*
X236329Y195740D01*
X236653Y196240D01*
X237180D01*
X238102Y195318D01*
Y194744D01*
X238358Y194126D01*
X238831Y193654D01*
X239449Y193398D01*
X240118D01*
X240736Y193654D01*
X241209Y194126D01*
X241465Y194744D01*
Y195413D01*
X241209Y196031D01*
X240736Y196504D01*
X240118Y196760D01*
X239544D01*
X239026Y197278D01*
X239217Y197740D01*
X240680D01*
X243102Y195318D01*
D02*
G37*
G36*
X213831Y193654D02*
X214158Y193518D01*
X214283Y192936D01*
X189257Y167909D01*
X146441D01*
X146352Y168241D01*
X145892Y169039D01*
X145240Y169690D01*
X144442Y170151D01*
X143552Y170390D01*
X142630D01*
X141740Y170151D01*
X140942Y169690D01*
X140290Y169039D01*
X139829Y168241D01*
X139591Y167350D01*
Y166429D01*
X139829Y165539D01*
X140290Y164741D01*
X140622Y164409D01*
X140414Y163909D01*
X135767D01*
X135560Y164409D01*
X135892Y164741D01*
X136352Y165539D01*
X136591Y166429D01*
Y167350D01*
X136352Y168241D01*
X136181Y168538D01*
X161702Y194059D01*
X213426D01*
X213831Y193654D01*
D02*
G37*
G36*
X223238Y195740D02*
X223102Y195413D01*
Y194840D01*
X192172Y163909D01*
X145767D01*
X145560Y164409D01*
X145892Y164741D01*
X146352Y165539D01*
X146441Y165870D01*
X189679D01*
X190069Y165948D01*
X190400Y166169D01*
X220471Y196240D01*
X222914D01*
X223238Y195740D01*
D02*
G37*
G36*
X228238D02*
X228102Y195413D01*
Y194840D01*
X195672Y162409D01*
X194209D01*
X194018Y162871D01*
X224544Y193398D01*
X225118D01*
X225736Y193654D01*
X226209Y194126D01*
X226465Y194744D01*
Y195413D01*
X226329Y195740D01*
X226653Y196240D01*
X227914D01*
X228238Y195740D01*
D02*
G37*
G36*
X233238D02*
X233102Y195413D01*
Y194840D01*
X199172Y160909D01*
X197709D01*
X197518Y161371D01*
X229544Y193398D01*
X230118D01*
X230736Y193654D01*
X231209Y194126D01*
X231465Y194744D01*
Y195413D01*
X231329Y195740D01*
X231653Y196240D01*
X232914D01*
X233238Y195740D01*
D02*
G37*
D10*
X244882Y216240D02*
X246965Y214158D01*
Y194175D02*
Y214158D01*
X202144Y149354D02*
X246965Y194175D01*
X135626Y149354D02*
X202144D01*
X128091Y156889D02*
X135626Y149354D01*
X128091Y156889D02*
Y156890D01*
X151280Y205079D02*
X219783D01*
X113091Y166890D02*
X113091D01*
X151280Y205079D01*
X154962Y198760D02*
X241102D01*
X123091Y166889D02*
X154962Y198760D01*
X241102D02*
X244783Y195079D01*
X237602Y197260D02*
X239784Y195079D01*
X220049Y197260D02*
X237602D01*
X189679Y166890D02*
X220049Y197260D01*
X143091Y166890D02*
X189679D01*
X143091Y166889D02*
X143091Y166890D01*
X141090Y159890D02*
X199594D01*
X138091Y156890D02*
X141090Y159890D01*
X199594D02*
X234784Y195079D01*
X196094Y161390D02*
X229784Y195079D01*
X122591Y161390D02*
X196094D01*
X108091Y156890D02*
X108091D01*
X110591Y159390D01*
Y159390D02*
X111376Y160175D01*
X113934Y162890D02*
X192594D01*
X111376Y160175D02*
Y160331D01*
X113934Y162890D01*
X110591Y159390D02*
Y159390D01*
X118091Y156890D02*
X122591Y161390D01*
X118091Y156890D02*
X118091D01*
X192594Y162890D02*
X224783Y195079D01*
X133091Y166889D02*
X161280Y195079D01*
X214784D01*
X133090Y166889D02*
X133091D01*
D14*
X203248Y252362D02*
X212500Y261614D01*
Y282500D01*
D50*
X391811Y153701D02*
D03*
X386811Y143701D02*
D03*
X381811Y153701D02*
D03*
X148779Y268622D02*
D03*
X138779Y263622D02*
D03*
X148779Y258622D02*
D03*
X185118Y153701D02*
D03*
X190118Y143701D02*
D03*
X195118Y153701D02*
D03*
D51*
X376811Y143701D02*
D03*
X180118D02*
D03*
D52*
X138779Y273622D02*
D03*
D53*
X290748Y112913D02*
D03*
X352952D02*
D03*
X94489Y113189D02*
D03*
X156693D02*
D03*
D54*
X304350Y156614D02*
D03*
X108091Y156890D02*
D03*
D55*
X309350Y166614D02*
D03*
X314350Y156614D02*
D03*
X319350Y166614D02*
D03*
X324350Y156614D02*
D03*
X329350Y166614D02*
D03*
X334350Y156614D02*
D03*
X339350Y166614D02*
D03*
X113091Y166890D02*
D03*
X118091Y156890D02*
D03*
X123091Y166890D02*
D03*
X128091Y156890D02*
D03*
X133091Y166890D02*
D03*
X138091Y156890D02*
D03*
X143091Y166890D02*
D03*
D56*
X410000Y271969D02*
D03*
X415000Y261968D02*
D03*
X410000Y251969D02*
D03*
X415000Y241968D02*
D03*
X410000Y231968D02*
D03*
X415000Y221969D02*
D03*
X410000Y211968D02*
D03*
X415000Y201969D02*
D03*
X410000Y191969D02*
D03*
X415000Y181968D02*
D03*
X410000Y171968D02*
D03*
X415000Y161969D02*
D03*
X410000Y151969D02*
D03*
X415000Y141969D02*
D03*
X410000Y131968D02*
D03*
X415000Y121968D02*
D03*
X410000Y111969D02*
D03*
X415000Y101969D02*
D03*
X410000Y91969D02*
D03*
X400000Y271969D02*
D03*
X405000Y261968D02*
D03*
X400000Y251969D02*
D03*
X405000Y241968D02*
D03*
X400000Y231968D02*
D03*
X405000Y221969D02*
D03*
X400000Y211968D02*
D03*
X405000Y201969D02*
D03*
X400000Y191969D02*
D03*
X405000Y181968D02*
D03*
X400000Y171968D02*
D03*
X405000Y161969D02*
D03*
X400000Y151969D02*
D03*
X405000Y141969D02*
D03*
X400000Y131968D02*
D03*
X405000Y101969D02*
D03*
X400000Y91969D02*
D03*
X390000Y291968D02*
D03*
X395000Y261968D02*
D03*
X390000Y251969D02*
D03*
X395000Y241968D02*
D03*
X390000Y231968D02*
D03*
X395000Y221969D02*
D03*
X390000Y211968D02*
D03*
X395000Y201969D02*
D03*
Y181968D02*
D03*
X390000Y171968D02*
D03*
X395000Y161969D02*
D03*
Y141969D02*
D03*
X390000Y131968D02*
D03*
Y111969D02*
D03*
X395000Y101969D02*
D03*
X390000Y91969D02*
D03*
X380000Y291968D02*
D03*
X385000Y281968D02*
D03*
Y261968D02*
D03*
X380000Y251969D02*
D03*
X385000Y241968D02*
D03*
X380000Y231968D02*
D03*
X385000Y221969D02*
D03*
X380000Y211968D02*
D03*
X385000Y201969D02*
D03*
X380000Y171968D02*
D03*
Y131968D02*
D03*
X385000Y121968D02*
D03*
X380000Y111969D02*
D03*
X385000Y101969D02*
D03*
X380000Y91969D02*
D03*
X370000Y291968D02*
D03*
X375000Y281968D02*
D03*
Y261968D02*
D03*
X370000Y251969D02*
D03*
X375000Y241968D02*
D03*
X370000Y231968D02*
D03*
X375000Y221969D02*
D03*
X370000Y211968D02*
D03*
X375000Y201969D02*
D03*
X370000Y191969D02*
D03*
X375000Y181968D02*
D03*
X370000Y171968D02*
D03*
X375000Y161969D02*
D03*
X370000Y131968D02*
D03*
X375000Y101969D02*
D03*
X370000Y91969D02*
D03*
X360000Y291968D02*
D03*
X365000Y281968D02*
D03*
Y261968D02*
D03*
X360000Y251969D02*
D03*
X365000Y241968D02*
D03*
X360000Y231968D02*
D03*
X365000Y221969D02*
D03*
X360000Y211968D02*
D03*
X365000Y201969D02*
D03*
X360000Y191969D02*
D03*
X365000Y181968D02*
D03*
X360000Y171968D02*
D03*
X365000Y161969D02*
D03*
X360000Y131968D02*
D03*
Y111969D02*
D03*
X365000Y101969D02*
D03*
X360000Y91969D02*
D03*
X350000Y291968D02*
D03*
X355000Y281968D02*
D03*
Y261968D02*
D03*
X350000Y251969D02*
D03*
X355000Y241968D02*
D03*
X350000Y231968D02*
D03*
X355000Y221969D02*
D03*
X350000Y211968D02*
D03*
X355000Y201969D02*
D03*
X350000Y191969D02*
D03*
X355000Y181968D02*
D03*
X350000Y171968D02*
D03*
X355000Y161969D02*
D03*
Y121968D02*
D03*
Y101969D02*
D03*
X350000Y91969D02*
D03*
X340000Y291968D02*
D03*
X345000Y281968D02*
D03*
Y261968D02*
D03*
X340000Y251969D02*
D03*
X345000Y241968D02*
D03*
X340000Y231968D02*
D03*
X345000Y221969D02*
D03*
X340000Y211968D02*
D03*
X345000Y201969D02*
D03*
X340000Y191969D02*
D03*
X345000Y181968D02*
D03*
X340000Y171968D02*
D03*
X345000Y161969D02*
D03*
Y121968D02*
D03*
X340000Y111969D02*
D03*
X345000Y101969D02*
D03*
X340000Y91969D02*
D03*
X335000Y281968D02*
D03*
Y261968D02*
D03*
X330000Y251969D02*
D03*
X335000Y241968D02*
D03*
X330000Y211968D02*
D03*
X335000Y201969D02*
D03*
X330000Y191969D02*
D03*
X335000Y181968D02*
D03*
X330000Y131968D02*
D03*
X335000Y121968D02*
D03*
X330000Y111969D02*
D03*
X335000Y101969D02*
D03*
X330000Y91969D02*
D03*
X320000Y291968D02*
D03*
X325000Y281968D02*
D03*
Y261968D02*
D03*
X320000Y251969D02*
D03*
X325000Y241968D02*
D03*
X320000Y211968D02*
D03*
Y191969D02*
D03*
Y131968D02*
D03*
X325000Y121968D02*
D03*
X320000Y111969D02*
D03*
X325000Y101969D02*
D03*
X320000Y91969D02*
D03*
X315000Y281968D02*
D03*
X310000Y191969D02*
D03*
X315000Y141969D02*
D03*
X310000Y131968D02*
D03*
X315000Y121968D02*
D03*
X310000Y111969D02*
D03*
X315000Y101969D02*
D03*
X310000Y91969D02*
D03*
X300000Y291968D02*
D03*
X305000Y281968D02*
D03*
X300000Y251969D02*
D03*
X305000Y241968D02*
D03*
X300000Y191969D02*
D03*
X305000Y161969D02*
D03*
X300000Y151969D02*
D03*
X305000Y141969D02*
D03*
Y121968D02*
D03*
X300000Y111969D02*
D03*
X305000Y101969D02*
D03*
X300000Y91969D02*
D03*
X295000Y281968D02*
D03*
Y261968D02*
D03*
Y241968D02*
D03*
Y221969D02*
D03*
X290000Y191969D02*
D03*
X295000Y161969D02*
D03*
X290000Y151969D02*
D03*
X295000Y141969D02*
D03*
X290000Y131968D02*
D03*
X295000Y121968D02*
D03*
Y101969D02*
D03*
X290000Y91969D02*
D03*
X280000Y291968D02*
D03*
X285000Y281968D02*
D03*
X280000Y271969D02*
D03*
X285000Y261968D02*
D03*
X280000Y251969D02*
D03*
X285000Y241968D02*
D03*
X280000Y191969D02*
D03*
X285000Y161969D02*
D03*
Y141969D02*
D03*
Y121968D02*
D03*
Y101969D02*
D03*
X270000Y291968D02*
D03*
X275000Y281968D02*
D03*
X270000Y271969D02*
D03*
X275000Y261968D02*
D03*
X270000Y251969D02*
D03*
X275000Y241968D02*
D03*
X270000Y231968D02*
D03*
X275000Y221969D02*
D03*
X270000Y211968D02*
D03*
Y191969D02*
D03*
X260000Y291968D02*
D03*
X265000Y281968D02*
D03*
X260000Y271969D02*
D03*
X265000Y261968D02*
D03*
X260000Y251969D02*
D03*
X265000Y241968D02*
D03*
Y221969D02*
D03*
X260000Y191969D02*
D03*
Y131968D02*
D03*
Y111969D02*
D03*
X255000Y281968D02*
D03*
X250000Y271969D02*
D03*
X255000Y261968D02*
D03*
X250000Y251969D02*
D03*
X255000Y241968D02*
D03*
X250000Y231968D02*
D03*
Y191969D02*
D03*
X255000Y181968D02*
D03*
X250000Y111969D02*
D03*
X255000Y101969D02*
D03*
X240000Y271969D02*
D03*
X245000Y261968D02*
D03*
X240000Y251969D02*
D03*
X245000Y241968D02*
D03*
X240000Y231968D02*
D03*
Y211968D02*
D03*
Y191969D02*
D03*
X245000Y181968D02*
D03*
X240000Y171968D02*
D03*
Y151969D02*
D03*
Y131968D02*
D03*
Y111969D02*
D03*
Y91969D02*
D03*
X235000Y281968D02*
D03*
Y261968D02*
D03*
Y241968D02*
D03*
X230000Y211968D02*
D03*
Y171968D02*
D03*
X220000Y271969D02*
D03*
Y251969D02*
D03*
X225000Y241968D02*
D03*
Y181968D02*
D03*
X220000Y91969D02*
D03*
X210000Y231968D02*
D03*
Y191969D02*
D03*
X215000Y121968D02*
D03*
Y101969D02*
D03*
X210000Y91969D02*
D03*
X200000Y151969D02*
D03*
X205000Y141969D02*
D03*
X200000Y131968D02*
D03*
X205000Y101969D02*
D03*
X200000Y91969D02*
D03*
X190000Y291968D02*
D03*
X195000Y281968D02*
D03*
X190000Y251969D02*
D03*
Y211968D02*
D03*
X195000Y141969D02*
D03*
X190000Y131968D02*
D03*
X195000Y121968D02*
D03*
X190000Y111969D02*
D03*
X195000Y101969D02*
D03*
X190000Y91969D02*
D03*
X185000Y261968D02*
D03*
X180000Y251969D02*
D03*
X185000Y241968D02*
D03*
X180000Y211968D02*
D03*
X185000Y201969D02*
D03*
X180000Y131968D02*
D03*
X185000Y121968D02*
D03*
X180000Y111969D02*
D03*
X185000Y101969D02*
D03*
X180000Y91969D02*
D03*
X170000Y291968D02*
D03*
Y271969D02*
D03*
Y251969D02*
D03*
X175000Y241968D02*
D03*
X170000Y231968D02*
D03*
Y211968D02*
D03*
Y131968D02*
D03*
X175000Y101969D02*
D03*
X170000Y91969D02*
D03*
X160000Y291968D02*
D03*
X165000Y281968D02*
D03*
X160000Y271969D02*
D03*
X165000Y261968D02*
D03*
X160000Y251969D02*
D03*
X165000Y241968D02*
D03*
X160000Y231968D02*
D03*
X165000Y221969D02*
D03*
X160000Y211968D02*
D03*
X165000Y201969D02*
D03*
X160000Y131968D02*
D03*
X165000Y121968D02*
D03*
Y101969D02*
D03*
X160000Y91969D02*
D03*
X150000Y291968D02*
D03*
X155000Y281968D02*
D03*
Y261968D02*
D03*
Y241968D02*
D03*
X150000Y231968D02*
D03*
X155000Y221969D02*
D03*
X150000Y211968D02*
D03*
X155000Y201969D02*
D03*
Y121968D02*
D03*
X150000Y111969D02*
D03*
X155000Y101969D02*
D03*
X150000Y91969D02*
D03*
X140000Y291968D02*
D03*
X145000Y281968D02*
D03*
Y261968D02*
D03*
X140000Y251969D02*
D03*
X145000Y241968D02*
D03*
X140000Y231968D02*
D03*
X145000Y221969D02*
D03*
X140000Y211968D02*
D03*
X145000Y201969D02*
D03*
X140000Y131968D02*
D03*
X145000Y121968D02*
D03*
X140000Y111969D02*
D03*
X145000Y101969D02*
D03*
X140000Y91969D02*
D03*
X130000Y291968D02*
D03*
X135000Y281968D02*
D03*
X130000Y271969D02*
D03*
Y251969D02*
D03*
X135000Y241968D02*
D03*
X130000Y231968D02*
D03*
X135000Y221969D02*
D03*
X130000Y211968D02*
D03*
X135000Y201969D02*
D03*
X130000Y131968D02*
D03*
X135000Y121968D02*
D03*
X130000Y111969D02*
D03*
X135000Y101969D02*
D03*
X130000Y91969D02*
D03*
X120000Y291968D02*
D03*
X125000Y281968D02*
D03*
X120000Y271969D02*
D03*
X125000Y261968D02*
D03*
Y241968D02*
D03*
X120000Y231968D02*
D03*
X125000Y221969D02*
D03*
X120000Y211968D02*
D03*
X125000Y201969D02*
D03*
X120000Y191969D02*
D03*
Y131968D02*
D03*
X125000Y121968D02*
D03*
X120000Y111969D02*
D03*
X125000Y101969D02*
D03*
X120000Y91969D02*
D03*
X110000Y291968D02*
D03*
Y271969D02*
D03*
X115000Y261968D02*
D03*
Y241968D02*
D03*
X110000Y231968D02*
D03*
X115000Y221969D02*
D03*
X110000Y211968D02*
D03*
X115000Y201969D02*
D03*
X110000Y191969D02*
D03*
X115000Y181968D02*
D03*
X110000Y151969D02*
D03*
X115000Y141969D02*
D03*
Y121968D02*
D03*
X110000Y111969D02*
D03*
X115000Y101969D02*
D03*
X110000Y91969D02*
D03*
X100000Y291968D02*
D03*
X105000Y281968D02*
D03*
X100000Y271969D02*
D03*
X105000Y261968D02*
D03*
X100000Y251969D02*
D03*
X105000Y241968D02*
D03*
X100000Y231968D02*
D03*
X105000Y221969D02*
D03*
X100000Y211968D02*
D03*
X105000Y201969D02*
D03*
X100000Y191969D02*
D03*
X105000Y181968D02*
D03*
X100000Y171968D02*
D03*
X105000Y161969D02*
D03*
X100000Y151969D02*
D03*
X105000Y141969D02*
D03*
Y121968D02*
D03*
X100000Y111969D02*
D03*
X105000Y101969D02*
D03*
X100000Y91969D02*
D03*
X90000Y291968D02*
D03*
X95000Y281968D02*
D03*
X90000Y271969D02*
D03*
X95000Y261968D02*
D03*
X90000Y251969D02*
D03*
X95000Y241968D02*
D03*
X90000Y231968D02*
D03*
X95000Y221969D02*
D03*
X90000Y211968D02*
D03*
X95000Y201969D02*
D03*
X90000Y191969D02*
D03*
X95000Y181968D02*
D03*
X90000Y171968D02*
D03*
X95000Y161969D02*
D03*
X90000Y151969D02*
D03*
X95000Y141969D02*
D03*
X90000Y131968D02*
D03*
X95000Y121968D02*
D03*
X90000Y111969D02*
D03*
X95000Y101969D02*
D03*
X90000Y91969D02*
D03*
D57*
X203248Y252362D02*
D03*
X212500Y282500D02*
D03*
X244882Y216240D02*
D03*
X219783Y205079D02*
D03*
X244783Y195079D02*
D03*
X239784D02*
D03*
X234784D02*
D03*
X229784D02*
D03*
X224783D02*
D03*
X214784D02*
D03*
D58*
X405512Y286417D02*
D03*
M02*
