G04*
G04 #@! TF.GenerationSoftware,Altium Limited,Altium Designer,22.6.1 (34)*
G04*
G04 Layer_Color=16711935*
%FSLAX25Y25*%
%MOIN*%
G70*
G04*
G04 #@! TF.SameCoordinates,5978FB97-4CE2-4F40-84F9-A025567A3837*
G04*
G04*
G04 #@! TF.FilePolarity,Positive*
G04*
G01*
G75*
%ADD59C,0.00020*%
%ADD60C,0.00008*%
D59*
X405709Y118701D02*
X405630Y119702D01*
X405396Y120678D01*
X405011Y121605D01*
X404487Y122461D01*
X403835Y123225D01*
X403071Y123877D01*
X402215Y124401D01*
X401288Y124785D01*
X400312Y125020D01*
X399311Y125098D01*
X398310Y125020D01*
X397334Y124785D01*
X396407Y124401D01*
X395551Y123877D01*
X394787Y123225D01*
X394135Y122461D01*
X393611Y121605D01*
X393227Y120678D01*
X392992Y119702D01*
X392913Y118701D01*
X392992Y117700D01*
X393227Y116724D01*
X393611Y115796D01*
X394135Y114940D01*
X394787Y114177D01*
X395551Y113525D01*
X396407Y113001D01*
X397334Y112616D01*
X398310Y112382D01*
X399311Y112303D01*
X400312Y112382D01*
X401288Y112616D01*
X402215Y113001D01*
X403071Y113525D01*
X403835Y114177D01*
X404487Y114940D01*
X405011Y115796D01*
X405396Y116724D01*
X405630Y117700D01*
X405709Y118701D01*
X375709D02*
X375630Y119702D01*
X375395Y120678D01*
X375011Y121605D01*
X374487Y122461D01*
X373835Y123225D01*
X373071Y123877D01*
X372216Y124401D01*
X371288Y124785D01*
X370312Y125020D01*
X369311Y125098D01*
X368310Y125020D01*
X367334Y124785D01*
X366407Y124401D01*
X365551Y123877D01*
X364787Y123225D01*
X364135Y122461D01*
X363611Y121605D01*
X363227Y120678D01*
X362992Y119702D01*
X362913Y118701D01*
X362992Y117700D01*
X363227Y116724D01*
X363611Y115796D01*
X364135Y114940D01*
X364787Y114177D01*
X365551Y113525D01*
X366407Y113001D01*
X367334Y112616D01*
X368310Y112382D01*
X369311Y112303D01*
X370312Y112382D01*
X371288Y112616D01*
X372216Y113001D01*
X373071Y113525D01*
X373835Y114177D01*
X374487Y114940D01*
X375011Y115796D01*
X375395Y116724D01*
X375630Y117700D01*
X375709Y118701D01*
X120177Y281122D02*
X120098Y282123D01*
X119864Y283099D01*
X119480Y284027D01*
X118955Y284882D01*
X118303Y285646D01*
X117540Y286298D01*
X116684Y286822D01*
X115756Y287207D01*
X114780Y287441D01*
X113779Y287520D01*
X112779Y287441D01*
X111803Y287207D01*
X110875Y286822D01*
X110019Y286298D01*
X109256Y285646D01*
X108604Y284882D01*
X108079Y284027D01*
X107695Y283099D01*
X107461Y282123D01*
X107382Y281122D01*
X107461Y280121D01*
X107695Y279145D01*
X108079Y278218D01*
X108604Y277362D01*
X109256Y276598D01*
X110019Y275946D01*
X110875Y275422D01*
X111803Y275038D01*
X112779Y274803D01*
X113779Y274724D01*
X114780Y274803D01*
X115756Y275038D01*
X116684Y275422D01*
X117540Y275946D01*
X118303Y276598D01*
X118955Y277362D01*
X119480Y278218D01*
X119864Y279145D01*
X120098Y280121D01*
X120177Y281122D01*
Y251122D02*
X120098Y252123D01*
X119864Y253099D01*
X119480Y254027D01*
X118955Y254883D01*
X118303Y255646D01*
X117540Y256298D01*
X116684Y256822D01*
X115756Y257207D01*
X114780Y257441D01*
X113779Y257520D01*
X112779Y257441D01*
X111803Y257207D01*
X110875Y256822D01*
X110019Y256298D01*
X109256Y255646D01*
X108604Y254883D01*
X108079Y254027D01*
X107695Y253099D01*
X107461Y252123D01*
X107382Y251122D01*
X107461Y250121D01*
X107695Y249145D01*
X108079Y248218D01*
X108604Y247362D01*
X109256Y246598D01*
X110019Y245946D01*
X110875Y245422D01*
X111803Y245038D01*
X112779Y244803D01*
X113779Y244724D01*
X114780Y244803D01*
X115756Y245038D01*
X116684Y245422D01*
X117540Y245946D01*
X118303Y246598D01*
X118955Y247362D01*
X119480Y248218D01*
X119864Y249145D01*
X120098Y250121D01*
X120177Y251122D01*
X350591Y130039D02*
X350513Y131025D01*
X350282Y131986D01*
X349904Y132899D01*
X349388Y133742D01*
X348746Y134494D01*
X347994Y135135D01*
X347151Y135652D01*
X346238Y136030D01*
X345277Y136261D01*
X344291Y136338D01*
X343306Y136261D01*
X342345Y136030D01*
X341432Y135652D01*
X340589Y135135D01*
X339837Y134494D01*
X339195Y133742D01*
X338679Y132899D01*
X338300Y131986D01*
X338070Y131025D01*
X337992Y130039D01*
X338070Y129054D01*
X338300Y128093D01*
X338679Y127180D01*
X339195Y126337D01*
X339837Y125585D01*
X340589Y124943D01*
X341432Y124427D01*
X342345Y124048D01*
X343306Y123818D01*
X344291Y123740D01*
X345277Y123818D01*
X346238Y124048D01*
X347151Y124427D01*
X347994Y124943D01*
X348746Y125585D01*
X349388Y126337D01*
X349904Y127180D01*
X350282Y128093D01*
X350513Y129054D01*
X350591Y130039D01*
X305709D02*
X305631Y131025D01*
X305400Y131986D01*
X305022Y132899D01*
X304505Y133742D01*
X303864Y134494D01*
X303112Y135135D01*
X302269Y135652D01*
X301356Y136030D01*
X300395Y136261D01*
X299409Y136338D01*
X298424Y136261D01*
X297463Y136030D01*
X296550Y135652D01*
X295707Y135135D01*
X294955Y134494D01*
X294313Y133742D01*
X293797Y132899D01*
X293419Y131986D01*
X293188Y131025D01*
X293110Y130039D01*
X293188Y129054D01*
X293419Y128093D01*
X293797Y127180D01*
X294313Y126337D01*
X294955Y125585D01*
X295707Y124943D01*
X296550Y124427D01*
X297463Y124048D01*
X298424Y123818D01*
X299409Y123740D01*
X300395Y123818D01*
X301356Y124048D01*
X302269Y124427D01*
X303112Y124943D01*
X303864Y125585D01*
X304505Y126337D01*
X305022Y127180D01*
X305400Y128093D01*
X305631Y129054D01*
X305709Y130039D01*
X179016Y118701D02*
X178937Y119702D01*
X178703Y120678D01*
X178318Y121605D01*
X177794Y122461D01*
X177142Y123225D01*
X176379Y123877D01*
X175523Y124401D01*
X174595Y124785D01*
X173619Y125020D01*
X172618Y125098D01*
X171617Y125020D01*
X170641Y124785D01*
X169714Y124401D01*
X168858Y123877D01*
X168094Y123225D01*
X167442Y122461D01*
X166918Y121605D01*
X166534Y120678D01*
X166299Y119702D01*
X166220Y118701D01*
X166299Y117700D01*
X166534Y116724D01*
X166918Y115796D01*
X167442Y114940D01*
X168094Y114177D01*
X168858Y113525D01*
X169714Y113001D01*
X170641Y112616D01*
X171617Y112382D01*
X172618Y112303D01*
X173619Y112382D01*
X174595Y112616D01*
X175523Y113001D01*
X176379Y113525D01*
X177142Y114177D01*
X177794Y114940D01*
X178318Y115796D01*
X178703Y116724D01*
X178937Y117700D01*
X179016Y118701D01*
X209016D02*
X208937Y119702D01*
X208703Y120678D01*
X208318Y121605D01*
X207794Y122461D01*
X207142Y123225D01*
X206379Y123877D01*
X205523Y124401D01*
X204595Y124785D01*
X203619Y125020D01*
X202618Y125098D01*
X201617Y125020D01*
X200641Y124785D01*
X199714Y124401D01*
X198858Y123877D01*
X198094Y123225D01*
X197442Y122461D01*
X196918Y121605D01*
X196534Y120678D01*
X196299Y119702D01*
X196221Y118701D01*
X196299Y117700D01*
X196534Y116724D01*
X196918Y115796D01*
X197442Y114940D01*
X198094Y114177D01*
X198858Y113525D01*
X199714Y113001D01*
X200641Y112616D01*
X201617Y112382D01*
X202618Y112303D01*
X203619Y112382D01*
X204595Y112616D01*
X205523Y113001D01*
X206379Y113525D01*
X207142Y114177D01*
X207794Y114940D01*
X208318Y115796D01*
X208703Y116724D01*
X208937Y117700D01*
X209016Y118701D01*
X154331Y130315D02*
X154253Y131300D01*
X154023Y132261D01*
X153645Y133174D01*
X153128Y134017D01*
X152486Y134769D01*
X151734Y135411D01*
X150892Y135927D01*
X149978Y136305D01*
X149017Y136536D01*
X148032Y136614D01*
X147046Y136536D01*
X146085Y136305D01*
X145172Y135927D01*
X144329Y135411D01*
X143578Y134769D01*
X142936Y134017D01*
X142419Y133174D01*
X142041Y132261D01*
X141810Y131300D01*
X141733Y130315D01*
X141810Y129329D01*
X142041Y128368D01*
X142419Y127455D01*
X142936Y126612D01*
X143578Y125860D01*
X144329Y125218D01*
X145172Y124702D01*
X146085Y124324D01*
X147046Y124093D01*
X148032Y124015D01*
X149017Y124093D01*
X149978Y124324D01*
X150892Y124702D01*
X151734Y125218D01*
X152486Y125860D01*
X153128Y126612D01*
X153645Y127455D01*
X154023Y128368D01*
X154253Y129329D01*
X154331Y130315D01*
X109449D02*
X109371Y131300D01*
X109141Y132261D01*
X108763Y133174D01*
X108246Y134017D01*
X107604Y134769D01*
X106852Y135411D01*
X106010Y135927D01*
X105096Y136305D01*
X104135Y136536D01*
X103150Y136614D01*
X102164Y136536D01*
X101203Y136305D01*
X100290Y135927D01*
X99447Y135411D01*
X98696Y134769D01*
X98054Y134017D01*
X97537Y133174D01*
X97159Y132261D01*
X96928Y131300D01*
X96851Y130315D01*
X96928Y129329D01*
X97159Y128368D01*
X97537Y127455D01*
X98054Y126612D01*
X98696Y125860D01*
X99447Y125218D01*
X100290Y124702D01*
X101203Y124324D01*
X102164Y124093D01*
X103150Y124015D01*
X104135Y124093D01*
X105096Y124324D01*
X106010Y124702D01*
X106852Y125218D01*
X107604Y125860D01*
X108246Y126612D01*
X108763Y127455D01*
X109141Y128368D01*
X109371Y129329D01*
X109449Y130315D01*
D60*
X82012Y99520D02*
X82050Y98537D01*
X82166Y97561D01*
X82358Y96597D01*
X82625Y95651D01*
X82965Y94729D01*
X83376Y93836D01*
X83857Y92978D01*
X84403Y92161D01*
X85012Y91389D01*
X85679Y90667D01*
X86401Y90000D01*
X87173Y89391D01*
X87990Y88845D01*
X88848Y88365D01*
X89740Y87953D01*
X90663Y87613D01*
X91609Y87346D01*
X92573Y87154D01*
X93549Y87039D01*
X94532Y87000D01*
X406500D02*
X407482Y87039D01*
X408459Y87154D01*
X409423Y87346D01*
X410369Y87613D01*
X411291Y87953D01*
X412184Y88365D01*
X413041Y88845D01*
X413859Y89391D01*
X414631Y90000D01*
X415353Y90667D01*
X416020Y91389D01*
X416629Y92161D01*
X417175Y92978D01*
X417655Y93836D01*
X418067Y94729D01*
X418407Y95651D01*
X418674Y96597D01*
X418865Y97561D01*
X418981Y98537D01*
X419020Y99520D01*
Y287000D02*
X418981Y287982D01*
X418865Y288959D01*
X418674Y289923D01*
X418407Y290869D01*
X418067Y291791D01*
X417655Y292684D01*
X417175Y293542D01*
X416629Y294359D01*
X416020Y295131D01*
X415353Y295853D01*
X414631Y296520D01*
X413859Y297129D01*
X413041Y297675D01*
X412184Y298155D01*
X411291Y298567D01*
X410369Y298907D01*
X409423Y299174D01*
X408459Y299365D01*
X407482Y299481D01*
X406500Y299520D01*
X94532D02*
X93549Y299481D01*
X92573Y299365D01*
X91609Y299174D01*
X90663Y298907D01*
X89740Y298567D01*
X88848Y298155D01*
X87990Y297675D01*
X87173Y297129D01*
X86401Y296520D01*
X85679Y295853D01*
X85012Y295131D01*
X84403Y294359D01*
X83857Y293542D01*
X83376Y292684D01*
X82965Y291791D01*
X82625Y290869D01*
X82358Y289923D01*
X82166Y288959D01*
X82050Y287982D01*
X82012Y287000D01*
X94532Y299520D02*
X406500D01*
X109449Y130315D02*
X109449Y130315D01*
Y130315D02*
Y130315D01*
X109446Y129696D02*
X109449Y130315D01*
X109200Y128484D02*
X109446Y129696D01*
X108722Y127343D02*
X109200Y128484D01*
X108032Y126317D02*
X108722Y127343D01*
X107155Y125444D02*
X108032Y126317D01*
X106125Y124759D02*
X107155Y125444D01*
X104982Y124287D02*
X106125Y124759D01*
X103768Y124046D02*
X104982Y124287D01*
X102531Y124046D02*
X103768Y124046D01*
X101318Y124287D02*
X102531Y124046D01*
X100175Y124759D02*
X101318Y124287D01*
X99145Y125444D02*
X100175Y124759D01*
X98268Y126317D02*
X99145Y125444D01*
X97578Y127343D02*
X98268Y126317D01*
X97100Y128484D02*
X97578Y127343D01*
X96854Y129697D02*
X97100Y128484D01*
X96851Y130315D02*
X96854Y129697D01*
X96851Y130315D02*
X96851D01*
X96851D02*
X96854Y130933D01*
X97100Y132146D01*
X97578Y133287D01*
X98268Y134313D01*
X99145Y135186D01*
X100175Y135871D01*
X101318Y136343D01*
X102532Y136583D01*
X103769Y136583D01*
X104982Y136343D01*
X106125Y135871D01*
X107155Y135185D01*
X108032Y134313D01*
X108722Y133286D01*
X109200Y132145D01*
X109446Y130933D01*
X109449Y130315D01*
X154331D02*
X154331Y130315D01*
Y130315D02*
Y130315D01*
X154328Y129696D02*
X154331Y130315D01*
X154081Y128484D02*
X154328Y129696D01*
X153604Y127343D02*
X154081Y128484D01*
X152914Y126317D02*
X153604Y127343D01*
X152037Y125444D02*
X152914Y126317D01*
X151007Y124759D02*
X152037Y125444D01*
X149864Y124287D02*
X151007Y124759D01*
X148650Y124046D02*
X149864Y124287D01*
X147413Y124046D02*
X148650Y124046D01*
X146200Y124287D02*
X147413Y124046D01*
X145057Y124759D02*
X146200Y124287D01*
X144027Y125444D02*
X145057Y124759D01*
X143150Y126317D02*
X144027Y125444D01*
X142460Y127343D02*
X143150Y126317D01*
X141982Y128484D02*
X142460Y127343D01*
X141736Y129697D02*
X141982Y128484D01*
X141733Y130315D02*
X141736Y129697D01*
X141733Y130315D02*
X141733D01*
X141733D02*
X141736Y130933D01*
X141982Y132146D01*
X142460Y133287D01*
X143150Y134313D01*
X144027Y135186D01*
X145057Y135871D01*
X146200Y136343D01*
X147414Y136583D01*
X148651Y136583D01*
X149864Y136343D01*
X151007Y135871D01*
X152037Y135185D01*
X152914Y134313D01*
X153604Y133286D01*
X154082Y132145D01*
X154328Y130933D01*
X154331Y130315D01*
X209016Y118701D02*
X209016D01*
X209016D02*
X209016D01*
X209016D02*
X209016Y118071D01*
X208770Y116835D02*
X209016Y118071D01*
X208288Y115670D02*
X208770Y116835D01*
X207588Y114622D02*
X208288Y115670D01*
X206696Y113731D02*
X207588Y114622D01*
X205648Y113031D02*
X206696Y113731D01*
X204484Y112549D02*
X205648Y113031D01*
X203248Y112303D02*
X204484Y112549D01*
X201988Y112303D02*
X203248Y112303D01*
X200752Y112549D02*
X201988Y112303D01*
X199588Y113031D02*
X200752Y112549D01*
X198540Y113731D02*
X199588Y113031D01*
X197649Y114622D02*
X198540Y113731D01*
X196949Y115670D02*
X197649Y114622D01*
X196466Y116834D02*
X196949Y115670D01*
X196220Y118070D02*
X196466Y116834D01*
X196220Y118070D02*
Y118701D01*
X196220Y119331D02*
X196220Y118701D01*
X196220Y119331D02*
X196466Y120567D01*
X196948Y121731D01*
X197649Y122779D01*
X198540Y123670D01*
X199588Y124370D01*
X200752Y124853D01*
X201988Y125098D01*
X203248Y125098D01*
X204484Y124853D01*
X205648Y124370D01*
X206696Y123670D01*
X207587Y122779D01*
X208288Y121731D01*
X208770Y120567D01*
X209016Y119331D01*
Y118701D02*
Y119331D01*
X179016Y118701D02*
X179016D01*
X179016D02*
X179016D01*
X179016D02*
X179016Y118071D01*
X178770Y116835D02*
X179016Y118071D01*
X178288Y115670D02*
X178770Y116835D01*
X177587Y114622D02*
X178288Y115670D01*
X176696Y113731D02*
X177587Y114622D01*
X175648Y113031D02*
X176696Y113731D01*
X174484Y112549D02*
X175648Y113031D01*
X173248Y112303D02*
X174484Y112549D01*
X171988Y112303D02*
X173248Y112303D01*
X170752Y112549D02*
X171988Y112303D01*
X169588Y113031D02*
X170752Y112549D01*
X168540Y113731D02*
X169588Y113031D01*
X167649Y114622D02*
X168540Y113731D01*
X166948Y115670D02*
X167649Y114622D01*
X166466Y116834D02*
X166948Y115670D01*
X166220Y118070D02*
X166466Y116834D01*
X166220Y118070D02*
Y118701D01*
X166220Y119331D02*
X166220Y118701D01*
X166220Y119331D02*
X166466Y120567D01*
X166948Y121731D01*
X167648Y122779D01*
X168540Y123670D01*
X169588Y124370D01*
X170752Y124853D01*
X171988Y125098D01*
X173248Y125098D01*
X174484Y124853D01*
X175648Y124370D01*
X176696Y123670D01*
X177587Y122779D01*
X178287Y121731D01*
X178770Y120567D01*
X179016Y119331D01*
Y118701D02*
Y119331D01*
X405709Y118701D02*
X405709D01*
X405709D02*
X405709D01*
X405709D02*
X405709Y118071D01*
X405463Y116835D02*
X405709Y118071D01*
X404981Y115670D02*
X405463Y116835D01*
X404280Y114622D02*
X404981Y115670D01*
X403389Y113731D02*
X404280Y114622D01*
X402341Y113031D02*
X403389Y113731D01*
X401177Y112549D02*
X402341Y113031D01*
X399941Y112303D02*
X401177Y112549D01*
X398681Y112303D02*
X399941Y112303D01*
X397445Y112549D02*
X398681Y112303D01*
X396281Y113031D02*
X397445Y112549D01*
X395233Y113731D02*
X396281Y113031D01*
X394342Y114622D02*
X395233Y113731D01*
X393641Y115670D02*
X394342Y114622D01*
X393159Y116834D02*
X393641Y115670D01*
X392913Y118070D02*
X393159Y116834D01*
X392913Y118070D02*
Y118701D01*
X392913Y119331D02*
X392913Y118701D01*
X392913Y119331D02*
X393159Y120567D01*
X393641Y121731D01*
X394341Y122779D01*
X395233Y123670D01*
X396280Y124370D01*
X397445Y124853D01*
X398681Y125098D01*
X399941Y125098D01*
X401177Y124853D01*
X402341Y124370D01*
X403389Y123670D01*
X404280Y122779D01*
X404980Y121731D01*
X405463Y120567D01*
X405709Y119331D01*
Y118701D02*
Y119331D01*
X375709Y118701D02*
X375709D01*
X375709D02*
X375709D01*
X375709D02*
X375709Y118071D01*
X375463Y116835D02*
X375709Y118071D01*
X374980Y115670D02*
X375463Y116835D01*
X374280Y114622D02*
X374980Y115670D01*
X373389Y113731D02*
X374280Y114622D01*
X372341Y113031D02*
X373389Y113731D01*
X371177Y112549D02*
X372341Y113031D01*
X369941Y112303D02*
X371177Y112549D01*
X368681Y112303D02*
X369941Y112303D01*
X367445Y112549D02*
X368681Y112303D01*
X366281Y113031D02*
X367445Y112549D01*
X365233Y113731D02*
X366281Y113031D01*
X364342Y114622D02*
X365233Y113731D01*
X363641Y115670D02*
X364342Y114622D01*
X363159Y116834D02*
X363641Y115670D01*
X362913Y118070D02*
X363159Y116834D01*
X362913Y118070D02*
Y118701D01*
X362913Y119331D02*
X362913Y118701D01*
X362913Y119331D02*
X363159Y120567D01*
X363641Y121731D01*
X364341Y122779D01*
X365232Y123670D01*
X366280Y124370D01*
X367445Y124853D01*
X368681Y125098D01*
X369941Y125098D01*
X371177Y124853D01*
X372341Y124370D01*
X373389Y123670D01*
X374280Y122779D01*
X374980Y121731D01*
X375463Y120567D01*
X375709Y119331D01*
Y118701D02*
Y119331D01*
X305709Y130039D02*
X305709Y130039D01*
Y130039D02*
Y130039D01*
X305706Y129421D02*
X305709Y130039D01*
X305459Y128209D02*
X305706Y129421D01*
X304981Y127068D02*
X305459Y128209D01*
X304291Y126041D02*
X304981Y127068D01*
X303414Y125169D02*
X304291Y126041D01*
X302384Y124483D02*
X303414Y125169D01*
X301241Y124012D02*
X302384Y124483D01*
X300028Y123771D02*
X301241Y124012D01*
X298791Y123771D02*
X300028Y123771D01*
X297578Y124012D02*
X298791Y123771D01*
X296434Y124484D02*
X297578Y124012D01*
X295404Y125169D02*
X296434Y124484D01*
X294528Y126041D02*
X295404Y125169D01*
X293837Y127068D02*
X294528Y126041D01*
X293360Y128209D02*
X293837Y127068D01*
X293113Y129421D02*
X293360Y128209D01*
X293110Y130040D02*
X293113Y129421D01*
X293110Y130040D02*
X293110D01*
X293110D02*
X293113Y130658D01*
X293360Y131870D01*
X293837Y133011D01*
X294528Y134038D01*
X295405Y134910D01*
X296434Y135595D01*
X297578Y136067D01*
X298791Y136308D01*
X300028Y136308D01*
X301241Y136067D01*
X302385Y135595D01*
X303415Y134910D01*
X304291Y134037D01*
X304982Y133011D01*
X305459Y131870D01*
X305706Y130658D01*
X305709Y130039D01*
X350591D02*
X350591Y130039D01*
Y130039D02*
Y130039D01*
X350588Y129421D02*
X350591Y130039D01*
X350341Y128209D02*
X350588Y129421D01*
X349864Y127068D02*
X350341Y128209D01*
X349173Y126041D02*
X349864Y127068D01*
X348296Y125169D02*
X349173Y126041D01*
X347267Y124483D02*
X348296Y125169D01*
X346123Y124012D02*
X347267Y124483D01*
X344910Y123771D02*
X346123Y124012D01*
X343673Y123771D02*
X344910Y123771D01*
X342460Y124012D02*
X343673Y123771D01*
X341316Y124484D02*
X342460Y124012D01*
X340286Y125169D02*
X341316Y124484D01*
X339410Y126041D02*
X340286Y125169D01*
X338719Y127068D02*
X339410Y126041D01*
X338242Y128209D02*
X338719Y127068D01*
X337995Y129421D02*
X338242Y128209D01*
X337992Y130040D02*
X337995Y129421D01*
X337992Y130040D02*
X337992D01*
X337992D02*
X337995Y130658D01*
X338242Y131870D01*
X338720Y133011D01*
X339410Y134038D01*
X340287Y134910D01*
X341316Y135595D01*
X342460Y136067D01*
X343673Y136308D01*
X344910Y136308D01*
X346123Y136067D01*
X347267Y135595D01*
X348296Y134910D01*
X349173Y134037D01*
X349864Y133011D01*
X350341Y131870D01*
X350588Y130658D01*
X350591Y130039D01*
X113779Y244724D02*
Y244724D01*
Y244724D02*
Y244724D01*
X113149Y244724D02*
X113779Y244724D01*
X111913Y244970D02*
X113149Y244724D01*
X110749Y245452D02*
X111913Y244970D01*
X109701Y246153D02*
X110749Y245452D01*
X108810Y247044D02*
X109701Y246153D01*
X108110Y248092D02*
X108810Y247044D01*
X107628Y249256D02*
X108110Y248092D01*
X107382Y250492D02*
X107628Y249256D01*
X107382Y251752D02*
X107382Y250492D01*
X107382Y251752D02*
X107628Y252988D01*
X108110Y254152D01*
X108810Y255200D01*
X109701Y256091D01*
X110749Y256792D01*
X111913Y257274D01*
X113149Y257520D01*
X113779D01*
X114409Y257520D01*
X115646Y257274D01*
X116810Y256792D01*
X117858Y256092D01*
X118749Y255201D01*
X119449Y254153D01*
X119931Y252988D01*
X120177Y251752D01*
X120177Y250492D01*
X119931Y249256D02*
X120177Y250492D01*
X119449Y248092D02*
X119931Y249256D01*
X118749Y247044D02*
X119449Y248092D01*
X117858Y246153D02*
X118749Y247044D01*
X116810Y245453D02*
X117858Y246153D01*
X115646Y244970D02*
X116810Y245453D01*
X114410Y244724D02*
X115646Y244970D01*
X113779Y244724D02*
X114410D01*
X113779Y274724D02*
Y274725D01*
Y274724D02*
Y274725D01*
X113149Y274724D02*
X113779Y274725D01*
X111913Y274970D02*
X113149Y274724D01*
X110749Y275452D02*
X111913Y274970D01*
X109701Y276153D02*
X110749Y275452D01*
X108810Y277044D02*
X109701Y276153D01*
X108110Y278092D02*
X108810Y277044D01*
X107628Y279256D02*
X108110Y278092D01*
X107382Y280492D02*
X107628Y279256D01*
X107382Y281752D02*
X107382Y280492D01*
X107382Y281752D02*
X107628Y282988D01*
X108110Y284153D01*
X108810Y285200D01*
X109701Y286091D01*
X110749Y286792D01*
X111913Y287274D01*
X113149Y287520D01*
X113779D01*
X114409Y287520D01*
X115646Y287274D01*
X116810Y286792D01*
X117858Y286092D01*
X118749Y285201D01*
X119449Y284153D01*
X119931Y282988D01*
X120177Y281752D01*
X120177Y280492D01*
X119931Y279256D02*
X120177Y280492D01*
X119449Y278092D02*
X119931Y279256D01*
X118749Y277044D02*
X119449Y278092D01*
X117858Y276153D02*
X118749Y277044D01*
X116810Y275453D02*
X117858Y276153D01*
X115646Y274970D02*
X116810Y275453D01*
X114410Y274725D02*
X115646Y274970D01*
X113779Y274725D02*
X114410D01*
X94532Y87000D02*
X406500D01*
X419020Y99520D02*
Y287000D01*
X82012Y99520D02*
Y287000D01*
M02*
