G04*
G04 #@! TF.GenerationSoftware,Altium Limited,Altium Designer,22.6.1 (34)*
G04*
G04 Layer_Physical_Order=1*
G04 Layer_Color=255*
%FSLAX25Y25*%
%MOIN*%
G70*
G04*
G04 #@! TF.SameCoordinates,5978FB97-4CE2-4F40-84F9-A025567A3837*
G04*
G04*
G04 #@! TF.FilePolarity,Positive*
G04*
G01*
G75*
%ADD10C,0.01000*%
%ADD14C,0.01968*%
%ADD17R,0.06754X0.08583*%
%ADD21R,0.04724X0.09843*%
G04:AMPARAMS|DCode=22|XSize=61.02mil|YSize=23.62mil|CornerRadius=2.01mil|HoleSize=0mil|Usage=FLASHONLY|Rotation=90.000|XOffset=0mil|YOffset=0mil|HoleType=Round|Shape=RoundedRectangle|*
%AMROUNDEDRECTD22*
21,1,0.06102,0.01961,0,0,90.0*
21,1,0.05701,0.02362,0,0,90.0*
1,1,0.00402,0.00980,0.02850*
1,1,0.00402,0.00980,-0.02850*
1,1,0.00402,-0.00980,-0.02850*
1,1,0.00402,-0.00980,0.02850*
%
%ADD22ROUNDEDRECTD22*%
%ADD29R,0.03937X0.09843*%
%ADD38R,0.03543X0.04134*%
%ADD39R,0.04134X0.03543*%
G04:AMPARAMS|DCode=40|XSize=25.59mil|YSize=47.24mil|CornerRadius=1.92mil|HoleSize=0mil|Usage=FLASHONLY|Rotation=270.000|XOffset=0mil|YOffset=0mil|HoleType=Round|Shape=RoundedRectangle|*
%AMROUNDEDRECTD40*
21,1,0.02559,0.04341,0,0,270.0*
21,1,0.02175,0.04724,0,0,270.0*
1,1,0.00384,-0.02170,-0.01088*
1,1,0.00384,-0.02170,0.01088*
1,1,0.00384,0.02170,0.01088*
1,1,0.00384,0.02170,-0.01088*
%
%ADD40ROUNDEDRECTD40*%
%ADD41R,0.04724X0.04724*%
G04:AMPARAMS|DCode=42|XSize=23.62mil|YSize=57.09mil|CornerRadius=2.01mil|HoleSize=0mil|Usage=FLASHONLY|Rotation=180.000|XOffset=0mil|YOffset=0mil|HoleType=Round|Shape=RoundedRectangle|*
%AMROUNDEDRECTD42*
21,1,0.02362,0.05307,0,0,180.0*
21,1,0.01961,0.05709,0,0,180.0*
1,1,0.00402,-0.00980,0.02653*
1,1,0.00402,0.00980,0.02653*
1,1,0.00402,0.00980,-0.02653*
1,1,0.00402,-0.00980,-0.02653*
%
%ADD42ROUNDEDRECTD42*%
%ADD43R,0.10236X0.11811*%
%ADD44R,0.05709X0.05118*%
%ADD45R,0.04331X0.03740*%
%ADD46R,0.14173X0.11811*%
%ADD47R,0.04724X0.04724*%
G04:AMPARAMS|DCode=48|XSize=21.65mil|YSize=49.21mil|CornerRadius=1.95mil|HoleSize=0mil|Usage=FLASHONLY|Rotation=0.000|XOffset=0mil|YOffset=0mil|HoleType=Round|Shape=RoundedRectangle|*
%AMROUNDEDRECTD48*
21,1,0.02165,0.04532,0,0,0.0*
21,1,0.01776,0.04921,0,0,0.0*
1,1,0.00390,0.00888,-0.02266*
1,1,0.00390,-0.00888,-0.02266*
1,1,0.00390,-0.00888,0.02266*
1,1,0.00390,0.00888,0.02266*
%
%ADD48ROUNDEDRECTD48*%
%ADD49C,0.03937*%
%ADD50C,0.06693*%
%ADD51R,0.06693X0.06693*%
%ADD52R,0.06693X0.06693*%
%ADD53O,0.04724X0.07874*%
%ADD54R,0.06000X0.06000*%
%ADD55C,0.06000*%
%ADD56C,0.01968*%
%ADD57C,0.02362*%
%ADD58C,0.22047*%
G36*
X408791Y298516D02*
X410274Y298119D01*
X411693Y297531D01*
X413024Y296763D01*
X414242Y295828D01*
X415328Y294742D01*
X416263Y293524D01*
X417031Y292193D01*
X417619Y290774D01*
X418016Y289291D01*
X418217Y287768D01*
Y287000D01*
Y99520D01*
Y98752D01*
X418016Y97229D01*
X417619Y95745D01*
X417031Y94326D01*
X416263Y92996D01*
X415328Y91778D01*
X414242Y90692D01*
X413024Y89757D01*
X411693Y88989D01*
X410274Y88401D01*
X408791Y88003D01*
X407268Y87803D01*
X93764D01*
X92241Y88003D01*
X90757Y88401D01*
X89338Y88989D01*
X88008Y89757D01*
X86790Y90692D01*
X85703Y91778D01*
X84768Y92996D01*
X84000Y94326D01*
X83413Y95745D01*
X83015Y97229D01*
X82815Y98752D01*
Y99520D01*
Y287000D01*
Y287768D01*
X83015Y289291D01*
X83413Y290774D01*
X84000Y292193D01*
X84768Y293524D01*
X85703Y294742D01*
X86790Y295828D01*
X88008Y296763D01*
X89338Y297531D01*
X90757Y298119D01*
X92241Y298516D01*
X93764Y298717D01*
X407268D01*
X408791Y298516D01*
D02*
G37*
%LPC*%
G36*
X253847Y291445D02*
X251234D01*
Y288833D01*
X253847D01*
Y291445D01*
D02*
G37*
G36*
X250734D02*
X248122D01*
Y288833D01*
X250734D01*
Y291445D01*
D02*
G37*
G36*
X208765Y288014D02*
X206844D01*
Y286471D01*
X209470D01*
Y287308D01*
X209417Y287578D01*
X209264Y287807D01*
X209035Y287960D01*
X208765Y288014D01*
D02*
G37*
G36*
X206345D02*
X204424D01*
X204154Y287960D01*
X203925Y287807D01*
X203772Y287578D01*
X203719Y287308D01*
Y286471D01*
X206345D01*
Y288014D01*
D02*
G37*
G36*
X253847Y288333D02*
X251234D01*
Y285720D01*
X253847D01*
Y288333D01*
D02*
G37*
G36*
X250734D02*
X248122D01*
Y285720D01*
X250734D01*
Y288333D01*
D02*
G37*
G36*
X237991Y298168D02*
X237991Y298168D01*
X201379D01*
X200800Y298053D01*
X200309Y297725D01*
X200309Y297725D01*
X193910Y291326D01*
X193582Y290835D01*
X193467Y290256D01*
X193467Y290256D01*
Y288014D01*
X192810D01*
X192540Y287960D01*
X192311Y287807D01*
X192158Y287578D01*
X192105Y287308D01*
Y285133D01*
X192158Y284863D01*
X192311Y284634D01*
X192540Y284481D01*
X192810Y284427D01*
X197151D01*
X197421Y284481D01*
X197650Y284634D01*
X197802Y284863D01*
X197856Y285133D01*
Y287308D01*
X197802Y287578D01*
X197650Y287807D01*
X197421Y287960D01*
X197151Y288014D01*
X196494D01*
Y289629D01*
X198897Y292032D01*
X199337Y291831D01*
X199364Y291793D01*
X199274Y291339D01*
X199274Y291338D01*
Y281139D01*
X198389Y280254D01*
X197698D01*
X197650Y280327D01*
X197421Y280480D01*
X197151Y280533D01*
X192810D01*
X192540Y280480D01*
X192311Y280327D01*
X192158Y280098D01*
X192105Y279828D01*
Y277653D01*
X192158Y277383D01*
X192311Y277154D01*
X192540Y277001D01*
X192810Y276947D01*
X197151D01*
X197421Y277001D01*
X197650Y277154D01*
X197698Y277227D01*
X199016D01*
X199016Y277227D01*
X199595Y277342D01*
X200086Y277670D01*
X201857Y279442D01*
X201857Y279442D01*
X202186Y279933D01*
X202301Y280512D01*
Y290712D01*
X204262Y292673D01*
X221449D01*
Y287787D01*
X222207D01*
Y286355D01*
X219846Y283994D01*
X213287D01*
X212834Y284181D01*
X212166D01*
X211713Y283994D01*
X209732D01*
X209264Y284473D01*
Y284632D01*
X209270Y284644D01*
X209417Y284863D01*
X209470Y285133D01*
Y285970D01*
X206594D01*
X203719D01*
Y285133D01*
X203772Y284863D01*
X203919Y284644D01*
X203925Y284632D01*
Y284350D01*
Y284069D01*
X203919Y284057D01*
X203772Y283838D01*
X203719Y283568D01*
Y281393D01*
X203772Y281123D01*
X203925Y280894D01*
Y280327D01*
X203772Y280098D01*
X203719Y279828D01*
Y277653D01*
X203772Y277383D01*
X203925Y277154D01*
X204154Y277001D01*
X204424Y276947D01*
X206774D01*
Y270789D01*
X206745Y270746D01*
X206691Y270474D01*
Y265943D01*
X206721Y265793D01*
X206513Y265419D01*
X206397Y265293D01*
X205166D01*
X204899Y265560D01*
Y268209D01*
X204884Y268286D01*
Y270474D01*
X204830Y270746D01*
X204801Y270789D01*
Y271937D01*
X204685Y272517D01*
X204358Y273007D01*
X204358Y273007D01*
X203204Y274161D01*
X202713Y274489D01*
X202134Y274604D01*
X202134Y274604D01*
X193087D01*
X188368Y279323D01*
Y287554D01*
X188368Y287554D01*
X188253Y288133D01*
X187925Y288624D01*
X187925Y288624D01*
X185449Y291101D01*
X184958Y291429D01*
X184378Y291544D01*
X184378Y291544D01*
X183079D01*
Y292921D01*
X178535D01*
Y287787D01*
X183079D01*
Y288518D01*
X183751D01*
X185342Y286928D01*
Y278696D01*
X185342Y278696D01*
X185457Y278117D01*
X185785Y277626D01*
X191391Y272021D01*
X191391Y272021D01*
X191882Y271692D01*
X192140Y271641D01*
Y271131D01*
X192129Y271129D01*
X191899Y270975D01*
X191745Y270746D01*
X191691Y270474D01*
Y268459D01*
X194884D01*
Y270474D01*
X194830Y270746D01*
X194676Y270975D01*
X194524Y271077D01*
X194549Y271415D01*
X194607Y271577D01*
X196968D01*
X197026Y271415D01*
X197051Y271077D01*
X196899Y270975D01*
X196745Y270746D01*
X196691Y270474D01*
Y265943D01*
X196745Y265672D01*
X196774Y265628D01*
Y262537D01*
X191572D01*
X188521Y265587D01*
Y269685D01*
X188521Y269685D01*
X188406Y270264D01*
X188078Y270755D01*
X188078Y270755D01*
X183157Y275676D01*
X182666Y276004D01*
X182087Y276120D01*
X182087Y276120D01*
X154764D01*
X154764Y276120D01*
X154185Y276004D01*
X153694Y275676D01*
X153694Y275676D01*
X150232Y272215D01*
X149286Y272468D01*
X148273D01*
X147295Y272206D01*
X146418Y271700D01*
X145702Y270984D01*
X145195Y270107D01*
X144933Y269128D01*
Y268116D01*
X145195Y267137D01*
X145702Y266260D01*
X146418Y265544D01*
X147295Y265038D01*
X148273Y264776D01*
X149286D01*
X150264Y265038D01*
X151141Y265544D01*
X151857Y266260D01*
X152364Y267137D01*
X152626Y268116D01*
Y269128D01*
X152372Y270075D01*
X155391Y273093D01*
X181460D01*
X182785Y271768D01*
X182578Y271268D01*
X181057D01*
Y268951D01*
X183079D01*
Y270767D01*
X183579Y270974D01*
X185494Y269058D01*
Y264961D01*
X185494Y264961D01*
X185610Y264382D01*
X185938Y263891D01*
X189875Y259954D01*
X189875Y259953D01*
X190366Y259626D01*
X190945Y259510D01*
X196774D01*
Y250120D01*
X196745Y250076D01*
X196691Y249805D01*
Y245274D01*
X196745Y245003D01*
X196872Y244812D01*
Y244748D01*
X196872Y244748D01*
X196988Y244168D01*
X197316Y243677D01*
X197892Y243101D01*
X197701Y242639D01*
X196509D01*
X194801Y244347D01*
Y244959D01*
X194830Y245003D01*
X194884Y245274D01*
Y249805D01*
X194830Y250076D01*
X194801Y250120D01*
Y252579D01*
X194685Y253158D01*
X194358Y253649D01*
X194358Y253649D01*
X189062Y258944D01*
X188571Y259272D01*
X187992Y259387D01*
X187992Y259387D01*
X183079D01*
Y260441D01*
X178535D01*
Y255307D01*
X183079D01*
Y256361D01*
X187365D01*
X191774Y251952D01*
Y250120D01*
X191745Y250076D01*
X191691Y249805D01*
Y245274D01*
X191745Y245003D01*
X191774Y244959D01*
Y243721D01*
X191774Y243721D01*
X191889Y243141D01*
X192217Y242650D01*
X194812Y240056D01*
X194812Y240056D01*
X195035Y239907D01*
X194883Y239407D01*
X176645D01*
X176066Y239292D01*
X175575Y238964D01*
X175575Y238964D01*
X174422Y237811D01*
X174094Y237320D01*
X173979Y236741D01*
X173979Y236740D01*
Y234850D01*
X173221D01*
Y229716D01*
X174323D01*
Y225598D01*
X173516D01*
Y220858D01*
X178847D01*
Y221715D01*
X186671D01*
Y218409D01*
X186726Y218136D01*
X186881Y217904D01*
X187112Y217749D01*
X187386Y217695D01*
X189347D01*
X189620Y217749D01*
X189852Y217904D01*
X190007Y218136D01*
X190061Y218409D01*
Y224110D01*
X190007Y224384D01*
X189852Y224616D01*
X189620Y224770D01*
X189347Y224825D01*
X187386D01*
X187112Y224770D01*
X187069Y224742D01*
X178847D01*
Y225598D01*
X177350D01*
Y229716D01*
X177764D01*
Y234850D01*
X177006D01*
Y236114D01*
X177272Y236380D01*
X213270D01*
Y224476D01*
X213143Y224285D01*
X213089Y224012D01*
Y218705D01*
X213143Y218431D01*
X213270Y218241D01*
Y217379D01*
X202296Y206405D01*
X201968Y205914D01*
X201853Y205335D01*
X201853Y205335D01*
Y203314D01*
X201726Y203124D01*
X201671Y202850D01*
Y197150D01*
X201726Y196876D01*
X201881Y196644D01*
X202112Y196490D01*
X202386Y196435D01*
X204346D01*
X204620Y196490D01*
X204852Y196644D01*
X205007Y196876D01*
X205061Y197150D01*
Y202850D01*
X205007Y203124D01*
X204879Y203314D01*
Y204708D01*
X215854Y215682D01*
X215854Y215682D01*
X216182Y216173D01*
X216297Y216752D01*
Y218241D01*
X216424Y218431D01*
X216478Y218705D01*
Y224012D01*
X216424Y224285D01*
X216297Y224476D01*
Y236380D01*
X256024D01*
X256291Y236114D01*
Y233692D01*
X256291Y233692D01*
X256320Y233546D01*
Y226508D01*
X256361D01*
Y214437D01*
X256320D01*
Y206405D01*
X255858Y206214D01*
X254853Y207219D01*
Y224513D01*
X254775Y224903D01*
X254554Y225234D01*
X252690Y227099D01*
X252359Y227320D01*
X251969Y227397D01*
X223461D01*
Y229716D01*
X225008D01*
Y234850D01*
X220465D01*
Y229716D01*
X221421D01*
Y227397D01*
X220980D01*
X220590Y227320D01*
X220259Y227099D01*
X219674Y226513D01*
X219453Y226182D01*
X219375Y225792D01*
Y224726D01*
X218803D01*
X218530Y224672D01*
X218298Y224517D01*
X218143Y224285D01*
X218089Y224012D01*
Y218705D01*
X218143Y218431D01*
X218298Y218199D01*
X218530Y218045D01*
X218803Y217990D01*
X220764D01*
X221037Y218045D01*
X221269Y218199D01*
X221424Y218431D01*
X221478Y218705D01*
Y224012D01*
X221424Y224285D01*
X221414Y224300D01*
Y225358D01*
X251546D01*
X252814Y224091D01*
Y207013D01*
X252314Y206805D01*
X250803Y208316D01*
Y217998D01*
X251037Y218045D01*
X251269Y218199D01*
X251424Y218431D01*
X251478Y218705D01*
Y224012D01*
X251424Y224285D01*
X251269Y224517D01*
X251037Y224672D01*
X250764Y224726D01*
X248803D01*
X248530Y224672D01*
X248298Y224517D01*
X248143Y224285D01*
X248089Y224012D01*
Y218705D01*
X248143Y218431D01*
X248298Y218199D01*
X248530Y218045D01*
X248764Y217998D01*
Y208864D01*
X248302Y208673D01*
X245803Y211172D01*
Y214802D01*
X245834Y214815D01*
X246307Y215288D01*
X246563Y215906D01*
Y216575D01*
X246307Y217192D01*
X245977Y217523D01*
X246017Y217868D01*
X246061Y218061D01*
X246269Y218199D01*
X246424Y218431D01*
X246478Y218705D01*
Y224012D01*
X246424Y224285D01*
X246269Y224517D01*
X246037Y224672D01*
X245764Y224726D01*
X243803D01*
X243530Y224672D01*
X243298Y224517D01*
X243143Y224285D01*
X243089Y224012D01*
Y218705D01*
X243143Y218431D01*
X243298Y218199D01*
X243530Y218045D01*
X243714Y218008D01*
X243773Y217560D01*
X243769Y217504D01*
X243457Y217192D01*
X243201Y216575D01*
Y215906D01*
X243457Y215288D01*
X243764Y214981D01*
Y210749D01*
X243842Y210359D01*
X244062Y210029D01*
X250321Y203770D01*
X250114Y203270D01*
X250033D01*
Y200152D01*
X251478D01*
Y201906D01*
X251978Y202113D01*
X256977Y197114D01*
X257308Y196893D01*
X257698Y196815D01*
X320866D01*
X321256Y196893D01*
X321587Y197114D01*
X322571Y198098D01*
X322792Y198429D01*
X322870Y198819D01*
Y199303D01*
X324713D01*
Y210146D01*
X318988D01*
Y199303D01*
X318988D01*
X318865Y198854D01*
X314993D01*
X314870Y199303D01*
X314870Y199354D01*
Y210146D01*
X311165D01*
Y210524D01*
X311088Y210914D01*
X310867Y211245D01*
X309776Y212335D01*
X309445Y212556D01*
X309055Y212634D01*
X299219D01*
X299028Y213096D01*
X303235Y217303D01*
X303563Y217794D01*
X303679Y218373D01*
X303679Y218373D01*
Y220957D01*
X305028D01*
Y231799D01*
X302301D01*
Y231918D01*
X302186Y232497D01*
X301857Y232988D01*
X301857Y232988D01*
X300704Y234141D01*
X300213Y234469D01*
X299634Y234584D01*
X299634Y234584D01*
X289164D01*
X289164Y234584D01*
X289063Y234564D01*
X285819D01*
Y230021D01*
X290953D01*
Y231557D01*
X299007D01*
X299274Y231291D01*
Y227756D01*
X299274Y227756D01*
X299303Y227610D01*
Y220957D01*
X300652D01*
Y219000D01*
X291710Y210058D01*
X291248Y210249D01*
Y211167D01*
X288386D01*
X285524D01*
Y209084D01*
X279328D01*
Y214437D01*
X271574D01*
Y204854D01*
X271113Y204760D01*
X264534D01*
X264074Y204854D01*
Y214437D01*
X259387D01*
Y226508D01*
X264074D01*
Y236090D01*
X259317D01*
Y236741D01*
X259202Y237320D01*
X258874Y237811D01*
X258874Y237811D01*
X257721Y238964D01*
X257230Y239292D01*
X256651Y239407D01*
X256651Y239407D01*
X221456D01*
X221304Y239907D01*
X221527Y240056D01*
X224081Y242610D01*
X224081Y242610D01*
X224409Y243101D01*
X224524Y243680D01*
X224524Y243680D01*
Y244480D01*
X225992D01*
Y249614D01*
X221449D01*
Y244480D01*
X221252Y244062D01*
X219830Y242639D01*
X215236D01*
X215045Y243101D01*
X216621Y244677D01*
X216621Y244677D01*
X216949Y245168D01*
X217064Y245748D01*
X217064Y245748D01*
Y253310D01*
X220115Y256361D01*
X221449D01*
Y255307D01*
X225992D01*
Y260441D01*
X221449D01*
Y259387D01*
X219488D01*
X218909Y259272D01*
X218418Y258944D01*
X218418Y258944D01*
X214481Y255007D01*
X214153Y254516D01*
X214038Y253937D01*
X214038Y253937D01*
Y246374D01*
X212771Y245108D01*
X210020D01*
X209884Y245274D01*
Y249805D01*
X209830Y250076D01*
X209801Y250120D01*
Y254905D01*
X216670Y261774D01*
X227522D01*
Y260441D01*
X226764D01*
Y255307D01*
X227522D01*
Y249614D01*
X226764D01*
Y244480D01*
X231307D01*
Y245534D01*
X284449D01*
X284449Y245534D01*
X285028Y245649D01*
X285519Y245977D01*
X289456Y249914D01*
X289456Y249914D01*
X289784Y250405D01*
X289899Y250984D01*
X289899Y250984D01*
Y272995D01*
X292950Y276046D01*
X310855D01*
X310855Y276046D01*
X311434Y276161D01*
X311925Y276489D01*
X313078Y277642D01*
X313078Y277642D01*
X313406Y278133D01*
X313521Y278712D01*
Y282965D01*
X314476D01*
Y286873D01*
X322827D01*
Y286803D01*
X327370D01*
Y291937D01*
X322827D01*
Y289899D01*
X314476D01*
Y293807D01*
X309539D01*
Y282965D01*
X310494D01*
Y279339D01*
X310228Y279072D01*
X292323D01*
X291744Y278957D01*
X291253Y278629D01*
X291253Y278629D01*
X287316Y274692D01*
X286988Y274201D01*
X286873Y273622D01*
X286873Y273622D01*
Y251611D01*
X283822Y248561D01*
X231307D01*
Y249614D01*
X230549D01*
Y255307D01*
X231307D01*
Y260441D01*
X230549D01*
Y263287D01*
Y266134D01*
X231307D01*
Y271268D01*
X230549D01*
Y276961D01*
X231307D01*
Y282095D01*
X230549D01*
Y287787D01*
X231307D01*
Y292921D01*
X229761D01*
Y293033D01*
X229646Y293612D01*
X229318Y294103D01*
X229318Y294103D01*
X228742Y294679D01*
X228933Y295141D01*
X237364D01*
X241597Y290909D01*
Y289378D01*
X240543D01*
Y284835D01*
X245677D01*
Y289378D01*
X244624D01*
Y291535D01*
X244508Y292115D01*
X244180Y292605D01*
X244180Y292605D01*
X239061Y297725D01*
X238570Y298053D01*
X238474Y298072D01*
X237991Y298168D01*
D02*
G37*
G36*
X294791Y293807D02*
X289854D01*
Y282965D01*
X294791D01*
Y293807D01*
D02*
G37*
G36*
X183079Y282095D02*
X181057D01*
Y279778D01*
X183079D01*
Y282095D01*
D02*
G37*
G36*
X180557D02*
X178535D01*
Y279778D01*
X180557D01*
Y282095D01*
D02*
G37*
G36*
X326484Y280421D02*
X323872D01*
Y277809D01*
X326484D01*
Y280421D01*
D02*
G37*
G36*
X323372D02*
X320760D01*
Y277809D01*
X323372D01*
Y280421D01*
D02*
G37*
G36*
X245677Y284063D02*
X240543D01*
Y279520D01*
X245677D01*
Y279589D01*
X248122D01*
Y277453D01*
X253847D01*
Y283177D01*
X248122D01*
Y282616D01*
X245677D01*
Y284063D01*
D02*
G37*
G36*
X183079Y279278D02*
X181057D01*
Y276961D01*
X183079D01*
Y279278D01*
D02*
G37*
G36*
X180557D02*
X178535D01*
Y276961D01*
X180557D01*
Y279278D01*
D02*
G37*
G36*
X177764Y292921D02*
X173221D01*
Y287787D01*
X173979D01*
Y282095D01*
X173221D01*
Y276961D01*
X177764D01*
Y282095D01*
X177006D01*
Y287787D01*
X177764D01*
Y292921D01*
D02*
G37*
G36*
X406419Y297941D02*
X404605D01*
X402813Y297657D01*
X401088Y297097D01*
X399472Y296273D01*
X398005Y295207D01*
X396722Y293924D01*
X395656Y292457D01*
X394832Y290841D01*
X394272Y289116D01*
X393988Y287324D01*
Y285510D01*
X394272Y283719D01*
X394832Y281994D01*
X395656Y280378D01*
X396722Y278910D01*
X398005Y277628D01*
X399472Y276561D01*
X401088Y275738D01*
X402813Y275177D01*
X404605Y274894D01*
X406419D01*
X408210Y275177D01*
X409935Y275738D01*
X411552Y276561D01*
X413019Y277628D01*
X414301Y278910D01*
X415368Y280378D01*
X416191Y281994D01*
X416752Y283719D01*
X417035Y285510D01*
Y287324D01*
X416752Y289116D01*
X416191Y290841D01*
X415368Y292457D01*
X414301Y293924D01*
X413019Y295207D01*
X411552Y296273D01*
X409935Y297097D01*
X408210Y297657D01*
X406419Y297941D01*
D02*
G37*
G36*
X332685Y291937D02*
X328142D01*
Y286803D01*
X329589D01*
Y280421D01*
X329028D01*
Y274697D01*
X334752D01*
Y280421D01*
X332616D01*
Y286803D01*
X332685D01*
Y291937D01*
D02*
G37*
G36*
X326484Y277309D02*
X323872D01*
Y274697D01*
X326484D01*
Y277309D01*
D02*
G37*
G36*
X323372D02*
X320760D01*
Y274697D01*
X323372D01*
Y277309D01*
D02*
G37*
G36*
X114409Y288323D02*
X113779Y288323D01*
X113149D01*
X113072Y288307D01*
X112993D01*
X111757Y288061D01*
X111683Y288031D01*
X111606Y288016D01*
X110442Y287533D01*
X110376Y287490D01*
X110303Y287459D01*
X109255Y286759D01*
X109199Y286703D01*
X109133Y286659D01*
X108242Y285768D01*
X108198Y285702D01*
X108142Y285646D01*
X107442Y284598D01*
X107412Y284525D01*
X107368Y284460D01*
X106886Y283295D01*
X106870Y283218D01*
X106840Y283145D01*
X106594Y281909D01*
Y281830D01*
X106579Y281752D01*
X106579Y280492D01*
X106594Y280414D01*
Y280335D01*
X106840Y279099D01*
X106870Y279026D01*
X106886Y278949D01*
X107368Y277784D01*
X107412Y277719D01*
X107442Y277646D01*
X108143Y276598D01*
X108198Y276542D01*
X108242Y276476D01*
X109134Y275585D01*
X109199Y275541D01*
X109255Y275485D01*
X110303Y274785D01*
X110376Y274755D01*
X110442Y274711D01*
X111606Y274229D01*
X111684Y274213D01*
X111757Y274183D01*
X112993Y273937D01*
X113072D01*
X113149Y273922D01*
X113779Y273922D01*
X114410D01*
X114487Y273937D01*
X114566D01*
X115802Y274183D01*
X115875Y274213D01*
X115953Y274229D01*
X117117Y274711D01*
X117183Y274755D01*
X117256Y274785D01*
X118304Y275485D01*
X118360Y275541D01*
X118426Y275585D01*
X119317Y276476D01*
X119360Y276542D01*
X119416Y276598D01*
X120117Y277646D01*
X120147Y277719D01*
X120191Y277785D01*
X120673Y278949D01*
X120688Y279026D01*
X120719Y279099D01*
X120965Y280335D01*
Y280415D01*
X120980Y280492D01*
X120980Y281752D01*
X120965Y281830D01*
Y281909D01*
X120719Y283145D01*
X120688Y283218D01*
X120673Y283296D01*
X120191Y284460D01*
X120147Y284526D01*
X120116Y284599D01*
X119416Y285647D01*
X119360Y285702D01*
X119316Y285768D01*
X118425Y286659D01*
X118360Y286703D01*
X118304Y286759D01*
X117256Y287459D01*
X117183Y287490D01*
X117117Y287533D01*
X115953Y288016D01*
X115875Y288031D01*
X115802Y288061D01*
X114566Y288307D01*
X114487D01*
X114409Y288323D01*
D02*
G37*
G36*
X142626Y277468D02*
X134933D01*
Y269776D01*
X142626D01*
Y277468D01*
D02*
G37*
G36*
X180557Y271268D02*
X178535D01*
Y268951D01*
X180557D01*
Y271268D01*
D02*
G37*
G36*
X183079Y268451D02*
X181057D01*
Y266134D01*
X183079D01*
Y268451D01*
D02*
G37*
G36*
X180557D02*
X178535D01*
Y266134D01*
X180557D01*
Y268451D01*
D02*
G37*
G36*
X194884Y267959D02*
X193537D01*
Y265234D01*
X194175D01*
X194446Y265288D01*
X194676Y265442D01*
X194830Y265672D01*
X194884Y265943D01*
Y267959D01*
D02*
G37*
G36*
X193037D02*
X191691D01*
Y265943D01*
X191745Y265672D01*
X191899Y265442D01*
X192129Y265288D01*
X192400Y265234D01*
X193037D01*
Y267959D01*
D02*
G37*
G36*
X393413Y276091D02*
X378240D01*
Y272202D01*
X302165D01*
X301922Y272153D01*
X299697D01*
Y269928D01*
X299648Y269685D01*
Y266732D01*
X299697Y266489D01*
Y261311D01*
X304634D01*
Y266489D01*
X304682Y266732D01*
Y267168D01*
X309491D01*
Y231799D01*
X309146D01*
Y220957D01*
X314870D01*
Y231799D01*
X314525D01*
Y267168D01*
X378240D01*
Y263280D01*
X393413D01*
Y276091D01*
D02*
G37*
G36*
X177764Y271268D02*
X173221D01*
Y266134D01*
X173831D01*
Y260441D01*
X173221D01*
Y255307D01*
X177764D01*
Y260441D01*
X176858D01*
Y266134D01*
X177764D01*
Y271268D01*
D02*
G37*
G36*
X183079Y249614D02*
X181057D01*
Y247297D01*
X183079D01*
Y249614D01*
D02*
G37*
G36*
X180557D02*
X178535D01*
Y247297D01*
X180557D01*
Y249614D01*
D02*
G37*
G36*
X183079Y246797D02*
X181057D01*
Y244480D01*
X183079D01*
Y246797D01*
D02*
G37*
G36*
X180557D02*
X178535D01*
Y244480D01*
X180557D01*
Y246797D01*
D02*
G37*
G36*
X139286Y267469D02*
X138273D01*
X137295Y267206D01*
X136418Y266700D01*
X135702Y265984D01*
X135195Y265107D01*
X134933Y264128D01*
Y263116D01*
X135195Y262137D01*
X135702Y261260D01*
X136418Y260544D01*
X137295Y260038D01*
X138273Y259776D01*
X138654D01*
X152453Y245977D01*
X152453Y245977D01*
X152944Y245649D01*
X153523Y245534D01*
X173221D01*
Y244480D01*
X177764D01*
Y249614D01*
X173221D01*
Y248561D01*
X154149D01*
X148434Y254276D01*
X148642Y254776D01*
X149286D01*
X150264Y255038D01*
X151141Y255544D01*
X151857Y256260D01*
X152364Y257137D01*
X152626Y258116D01*
Y259128D01*
X152364Y260107D01*
X151857Y260984D01*
X151141Y261700D01*
X150264Y262206D01*
X149286Y262469D01*
X148273D01*
X147295Y262206D01*
X146418Y261700D01*
X145702Y260984D01*
X145195Y260107D01*
X144933Y259128D01*
Y258484D01*
X144433Y258277D01*
X141654Y261056D01*
X141858Y261260D01*
X142364Y262137D01*
X142626Y263116D01*
Y264128D01*
X142364Y265107D01*
X141858Y265984D01*
X141141Y266700D01*
X140264Y267206D01*
X139286Y267469D01*
D02*
G37*
G36*
X114409Y258323D02*
X113779Y258323D01*
X113149D01*
X113072Y258307D01*
X112993D01*
X111757Y258061D01*
X111683Y258031D01*
X111606Y258016D01*
X110442Y257533D01*
X110376Y257489D01*
X110303Y257459D01*
X109255Y256759D01*
X109199Y256703D01*
X109133Y256659D01*
X108242Y255768D01*
X108198Y255702D01*
X108142Y255646D01*
X107442Y254598D01*
X107412Y254525D01*
X107368Y254460D01*
X106886Y253295D01*
X106870Y253218D01*
X106840Y253145D01*
X106594Y251909D01*
Y251830D01*
X106579Y251752D01*
X106579Y250492D01*
X106594Y250414D01*
Y250335D01*
X106840Y249099D01*
X106870Y249026D01*
X106886Y248949D01*
X107368Y247784D01*
X107412Y247719D01*
X107442Y247646D01*
X108143Y246598D01*
X108198Y246542D01*
X108242Y246476D01*
X109134Y245585D01*
X109199Y245541D01*
X109255Y245485D01*
X110303Y244785D01*
X110376Y244755D01*
X110442Y244711D01*
X111606Y244229D01*
X111684Y244213D01*
X111757Y244183D01*
X112993Y243937D01*
X113072D01*
X113149Y243922D01*
X113779Y243922D01*
X114410D01*
X114487Y243937D01*
X114566D01*
X115802Y244183D01*
X115875Y244213D01*
X115953Y244229D01*
X117117Y244711D01*
X117183Y244755D01*
X117256Y244785D01*
X118304Y245485D01*
X118360Y245541D01*
X118426Y245585D01*
X119317Y246476D01*
X119360Y246542D01*
X119416Y246598D01*
X120117Y247646D01*
X120147Y247719D01*
X120191Y247785D01*
X120673Y248949D01*
X120688Y249026D01*
X120719Y249099D01*
X120965Y250336D01*
Y250415D01*
X120980Y250492D01*
X120980Y251752D01*
X120965Y251830D01*
Y251909D01*
X120719Y253145D01*
X120688Y253218D01*
X120673Y253296D01*
X120191Y254460D01*
X120147Y254526D01*
X120116Y254599D01*
X119416Y255647D01*
X119360Y255702D01*
X119316Y255768D01*
X118425Y256659D01*
X118360Y256703D01*
X118304Y256759D01*
X117256Y257459D01*
X117183Y257490D01*
X117117Y257534D01*
X115953Y258016D01*
X115875Y258031D01*
X115802Y258061D01*
X114566Y258307D01*
X114487D01*
X114409Y258323D01*
D02*
G37*
G36*
X195480Y234850D02*
X190937D01*
Y233303D01*
X183079D01*
Y234850D01*
X178535D01*
Y229716D01*
X183079D01*
Y231264D01*
X190937D01*
Y229716D01*
X192347D01*
Y224817D01*
X192112Y224770D01*
X191881Y224616D01*
X191726Y224384D01*
X191671Y224110D01*
Y218409D01*
X191726Y218136D01*
X191881Y217904D01*
X192112Y217749D01*
X192386Y217695D01*
X194346D01*
X194620Y217749D01*
X194852Y217904D01*
X195007Y218136D01*
X195061Y218409D01*
Y224110D01*
X195007Y224384D01*
X194852Y224616D01*
X194620Y224770D01*
X194386Y224817D01*
Y229716D01*
X195480D01*
Y234850D01*
D02*
G37*
G36*
X230323D02*
X228301D01*
Y232534D01*
X230323D01*
Y234850D01*
D02*
G37*
G36*
X227801D02*
X225780D01*
Y232534D01*
X227801D01*
Y234850D01*
D02*
G37*
G36*
X228051Y232283D02*
D01*
D01*
D01*
D02*
G37*
G36*
X303937Y238521D02*
X303937Y238521D01*
X278996D01*
X278417Y238406D01*
X277926Y238078D01*
X277926Y238078D01*
X276773Y236925D01*
X276445Y236434D01*
X276377Y236090D01*
X271574D01*
Y226508D01*
X279328D01*
Y233546D01*
X279357Y233692D01*
X279357Y233692D01*
Y235228D01*
X279623Y235494D01*
X303310D01*
X305573Y233231D01*
Y220079D01*
X305573Y220079D01*
X305689Y219500D01*
X306016Y219009D01*
X307198Y217828D01*
X307198Y217828D01*
X307689Y217499D01*
X308268Y217384D01*
X308268Y217384D01*
X319291D01*
X319291Y217384D01*
X319870Y217499D01*
X320361Y217828D01*
X321620Y219086D01*
X321620Y219086D01*
X321948Y219577D01*
X322063Y220156D01*
Y220957D01*
X324713D01*
Y227610D01*
X324742Y227756D01*
X324742Y227756D01*
Y231286D01*
X325008Y231553D01*
X333063D01*
Y230021D01*
X338197D01*
Y234564D01*
X334934D01*
X334856Y234579D01*
X334856Y234579D01*
X324381D01*
X323802Y234464D01*
X323311Y234136D01*
X323311Y234136D01*
X322158Y232983D01*
X321830Y232492D01*
X321715Y231913D01*
X321235Y231799D01*
X318988D01*
Y220957D01*
X318792Y220538D01*
X318665Y220411D01*
X308895D01*
X308600Y220706D01*
Y233858D01*
X308600Y233858D01*
X308485Y234437D01*
X308157Y234928D01*
X305007Y238078D01*
X304516Y238406D01*
X304420Y238425D01*
X303937Y238521D01*
D02*
G37*
G36*
X230323Y232033D02*
X228301D01*
Y229716D01*
X230323D01*
Y232033D01*
D02*
G37*
G36*
X227801D02*
X225780D01*
Y229716D01*
X227801D01*
Y232033D01*
D02*
G37*
G36*
X230764Y224726D02*
X230033D01*
Y221608D01*
X231478D01*
Y224012D01*
X231424Y224285D01*
X231269Y224517D01*
X231037Y224672D01*
X230764Y224726D01*
D02*
G37*
G36*
X229533D02*
X228803D01*
X228530Y224672D01*
X228298Y224517D01*
X228143Y224285D01*
X228089Y224012D01*
Y221608D01*
X229533D01*
Y224726D01*
D02*
G37*
G36*
X240764D02*
X238803D01*
X238530Y224672D01*
X238298Y224517D01*
X238143Y224285D01*
X238089Y224012D01*
Y218705D01*
X238143Y218431D01*
X238298Y218199D01*
X238530Y218045D01*
X238803Y217990D01*
X240764D01*
X241037Y218045D01*
X241269Y218199D01*
X241424Y218431D01*
X241478Y218705D01*
Y224012D01*
X241424Y224285D01*
X241269Y224517D01*
X241037Y224672D01*
X240764Y224726D01*
D02*
G37*
G36*
X235764D02*
X233803D01*
X233530Y224672D01*
X233298Y224517D01*
X233143Y224285D01*
X233089Y224012D01*
Y218705D01*
X233143Y218431D01*
X233298Y218199D01*
X233530Y218045D01*
X233803Y217990D01*
X235764D01*
X236037Y218045D01*
X236269Y218199D01*
X236424Y218431D01*
X236478Y218705D01*
Y224012D01*
X236424Y224285D01*
X236269Y224517D01*
X236037Y224672D01*
X235764Y224726D01*
D02*
G37*
G36*
X231478Y221108D02*
X230033D01*
Y217990D01*
X230764D01*
X231037Y218045D01*
X231269Y218199D01*
X231424Y218431D01*
X231478Y218705D01*
Y221108D01*
D02*
G37*
G36*
X229533D02*
X228089D01*
Y218705D01*
X228143Y218431D01*
X228298Y218199D01*
X228530Y218045D01*
X228803Y217990D01*
X229533D01*
Y221108D01*
D02*
G37*
G36*
X178847Y219890D02*
X176431D01*
Y217770D01*
X178847D01*
Y219890D01*
D02*
G37*
G36*
X175931D02*
X173516D01*
Y217770D01*
X175931D01*
Y219890D01*
D02*
G37*
G36*
X204346Y224825D02*
X202386D01*
X202112Y224770D01*
X201881Y224616D01*
X201726Y224384D01*
X201671Y224110D01*
Y218409D01*
X201726Y218136D01*
X201881Y217904D01*
X202112Y217749D01*
X202386Y217695D01*
X204346D01*
X204620Y217749D01*
X204852Y217904D01*
X205007Y218136D01*
X205061Y218409D01*
Y224110D01*
X205007Y224384D01*
X204852Y224616D01*
X204620Y224770D01*
X204346Y224825D01*
D02*
G37*
G36*
X338197Y229249D02*
X333063D01*
Y224706D01*
X334117D01*
Y222547D01*
X332768D01*
Y216823D01*
X338492D01*
Y222547D01*
X337143D01*
Y224706D01*
X338197D01*
Y229249D01*
D02*
G37*
G36*
X290953Y229249D02*
X285819D01*
Y224706D01*
X286873D01*
Y222547D01*
X285524D01*
Y216823D01*
X291248D01*
Y222547D01*
X289899D01*
Y224706D01*
X290953D01*
Y229249D01*
D02*
G37*
G36*
X178847Y217270D02*
X176431D01*
Y215150D01*
X178847D01*
Y217270D01*
D02*
G37*
G36*
X175931D02*
X173516D01*
Y215150D01*
X175931D01*
Y217270D01*
D02*
G37*
G36*
X338492Y214280D02*
X335880D01*
Y211667D01*
X338492D01*
Y214280D01*
D02*
G37*
G36*
X335380D02*
X332768D01*
Y211667D01*
X335380D01*
Y214280D01*
D02*
G37*
G36*
X291248Y214280D02*
X288636D01*
Y211667D01*
X291248D01*
Y214280D01*
D02*
G37*
G36*
X288136D02*
X285524D01*
Y211667D01*
X288136D01*
Y214280D01*
D02*
G37*
G36*
X338492Y211167D02*
X335880D01*
Y208555D01*
X338492D01*
Y211167D01*
D02*
G37*
G36*
X335380D02*
X332768D01*
Y208555D01*
X335380D01*
Y211167D01*
D02*
G37*
G36*
X179535Y209063D02*
X176431D01*
Y206254D01*
X179535D01*
Y209063D01*
D02*
G37*
G36*
X175931D02*
X172827D01*
Y206254D01*
X175931D01*
Y209063D01*
D02*
G37*
G36*
X189347Y203565D02*
X188616D01*
Y200250D01*
X190061D01*
Y202850D01*
X190007Y203124D01*
X189852Y203356D01*
X189620Y203510D01*
X189347Y203565D01*
D02*
G37*
G36*
X188116D02*
X187386D01*
X187112Y203510D01*
X186881Y203356D01*
X186726Y203124D01*
X186671Y202850D01*
Y200250D01*
X188116D01*
Y203565D01*
D02*
G37*
G36*
X249533Y203270D02*
X248803D01*
X248530Y203215D01*
X248298Y203060D01*
X248143Y202829D01*
X248089Y202555D01*
Y200152D01*
X249533D01*
Y203270D01*
D02*
G37*
G36*
X251478Y199652D02*
X250033D01*
Y196534D01*
X250764D01*
X251037Y196588D01*
X251269Y196743D01*
X251424Y196975D01*
X251478Y197248D01*
Y199652D01*
D02*
G37*
G36*
X249533D02*
X248089D01*
Y197248D01*
X248143Y196975D01*
X248298Y196743D01*
X248530Y196588D01*
X248803Y196534D01*
X249533D01*
Y199652D01*
D02*
G37*
G36*
X220118Y206760D02*
X219449D01*
X218831Y206504D01*
X218358Y206031D01*
X218102Y205413D01*
Y204744D01*
X218358Y204127D01*
X218749Y203736D01*
X218697Y203249D01*
X218530Y203215D01*
X218298Y203060D01*
X218143Y202829D01*
X218089Y202555D01*
Y197248D01*
X218143Y196975D01*
X218298Y196743D01*
X218530Y196588D01*
X218803Y196534D01*
X220764D01*
X221037Y196588D01*
X221269Y196743D01*
X221424Y196975D01*
X221478Y197248D01*
Y202555D01*
X221424Y202829D01*
X221269Y203060D01*
X221037Y203215D01*
X220870Y203249D01*
X220818Y203736D01*
X221209Y204127D01*
X221465Y204744D01*
Y205413D01*
X221209Y206031D01*
X220736Y206504D01*
X220118Y206760D01*
D02*
G37*
G36*
X190061Y199750D02*
X188616D01*
Y196435D01*
X189347D01*
X189620Y196490D01*
X189852Y196644D01*
X190007Y196876D01*
X190061Y197150D01*
Y199750D01*
D02*
G37*
G36*
X188116D02*
X186671D01*
Y197150D01*
X186726Y196876D01*
X186881Y196644D01*
X187112Y196490D01*
X187386Y196435D01*
X188116D01*
Y199750D01*
D02*
G37*
G36*
X225764Y224726D02*
X223803D01*
X223530Y224672D01*
X223298Y224517D01*
X223143Y224285D01*
X223089Y224012D01*
Y218705D01*
X223143Y218431D01*
X223298Y218199D01*
X223530Y218045D01*
X223764Y217998D01*
Y217332D01*
X208925Y202493D01*
X208704Y202162D01*
X208626Y201772D01*
Y197273D01*
X207255Y195902D01*
X199386D01*
Y196443D01*
X199620Y196490D01*
X199852Y196644D01*
X200007Y196876D01*
X200061Y197150D01*
Y202850D01*
X200007Y203124D01*
X199852Y203356D01*
X199620Y203510D01*
X199346Y203565D01*
X197386D01*
X197112Y203510D01*
X196881Y203356D01*
X196726Y203124D01*
X196671Y202850D01*
Y197150D01*
X196726Y196876D01*
X196881Y196644D01*
X197112Y196490D01*
X197347Y196443D01*
Y195468D01*
X197424Y195078D01*
X197645Y194747D01*
X198231Y194161D01*
X198562Y193940D01*
X198952Y193862D01*
X207677D01*
X208067Y193940D01*
X208398Y194161D01*
X210367Y196129D01*
X210588Y196460D01*
X210665Y196850D01*
Y201349D01*
X225504Y216189D01*
X225725Y216519D01*
X225803Y216909D01*
Y217998D01*
X226037Y218045D01*
X226269Y218199D01*
X226424Y218431D01*
X226478Y218705D01*
Y224012D01*
X226424Y224285D01*
X226269Y224517D01*
X226037Y224672D01*
X225764Y224726D01*
D02*
G37*
G36*
X200795Y234850D02*
X196252D01*
Y229716D01*
X197347D01*
Y224817D01*
X197112Y224770D01*
X196881Y224616D01*
X196726Y224384D01*
X196671Y224110D01*
Y218409D01*
X196726Y218136D01*
X196881Y217904D01*
X197112Y217749D01*
X197347Y217703D01*
Y213552D01*
X192645Y208851D01*
X192424Y208520D01*
X192347Y208130D01*
Y203557D01*
X192112Y203510D01*
X191881Y203356D01*
X191726Y203124D01*
X191671Y202850D01*
Y197150D01*
X191726Y196876D01*
X191881Y196644D01*
X192112Y196490D01*
X192347Y196443D01*
Y195902D01*
X177201D01*
Y196449D01*
X179535D01*
Y202445D01*
X179535Y202567D01*
Y202945D01*
X179535Y203067D01*
Y205754D01*
X176181D01*
X172827D01*
Y203067D01*
X172827Y202945D01*
Y202567D01*
X172827Y202445D01*
Y196449D01*
X175162D01*
Y195468D01*
X175239Y195078D01*
X175460Y194747D01*
X176046Y194161D01*
X176377Y193940D01*
X176767Y193862D01*
X192780D01*
X193170Y193940D01*
X193501Y194161D01*
X194087Y194747D01*
X194308Y195078D01*
X194386Y195468D01*
Y196443D01*
X194620Y196490D01*
X194852Y196644D01*
X195007Y196876D01*
X195061Y197150D01*
Y202850D01*
X195007Y203124D01*
X194852Y203356D01*
X194620Y203510D01*
X194386Y203557D01*
Y207708D01*
X199087Y212409D01*
X199308Y212740D01*
X199386Y213130D01*
Y217703D01*
X199620Y217749D01*
X199852Y217904D01*
X200007Y218136D01*
X200061Y218409D01*
Y224110D01*
X200007Y224384D01*
X199852Y224616D01*
X199620Y224770D01*
X199386Y224817D01*
Y229716D01*
X200795D01*
Y234850D01*
D02*
G37*
G36*
X245764Y203270D02*
X243803D01*
X243530Y203215D01*
X243298Y203060D01*
X243143Y202829D01*
X243089Y202555D01*
Y197248D01*
X243143Y196975D01*
X243298Y196743D01*
X243337Y196717D01*
X243446Y196189D01*
X243428Y196100D01*
X243358Y196031D01*
X243102Y195413D01*
Y194744D01*
X243358Y194126D01*
X243831Y193654D01*
X244449Y193398D01*
X245118D01*
X245736Y193654D01*
X246209Y194126D01*
X246465Y194744D01*
Y195413D01*
X246209Y196031D01*
X246139Y196100D01*
X246121Y196189D01*
X246230Y196717D01*
X246269Y196743D01*
X246424Y196975D01*
X246478Y197248D01*
Y202555D01*
X246424Y202829D01*
X246269Y203060D01*
X246037Y203215D01*
X245764Y203270D01*
D02*
G37*
G36*
X240764D02*
X238803D01*
X238530Y203215D01*
X238298Y203060D01*
X238143Y202829D01*
X238089Y202555D01*
Y197248D01*
X238143Y196975D01*
X238298Y196743D01*
X238337Y196717D01*
X238446Y196189D01*
X238428Y196100D01*
X238358Y196031D01*
X238102Y195413D01*
Y194744D01*
X238358Y194126D01*
X238831Y193654D01*
X239449Y193398D01*
X240118D01*
X240736Y193654D01*
X241209Y194126D01*
X241465Y194744D01*
Y195413D01*
X241209Y196031D01*
X241139Y196100D01*
X241121Y196189D01*
X241230Y196717D01*
X241269Y196743D01*
X241424Y196975D01*
X241478Y197248D01*
Y202555D01*
X241424Y202829D01*
X241269Y203060D01*
X241037Y203215D01*
X240764Y203270D01*
D02*
G37*
G36*
X235764D02*
X233803D01*
X233530Y203215D01*
X233298Y203060D01*
X233143Y202829D01*
X233089Y202555D01*
Y197248D01*
X233143Y196975D01*
X233298Y196743D01*
X233337Y196717D01*
X233446Y196189D01*
X233428Y196100D01*
X233358Y196031D01*
X233102Y195413D01*
Y194744D01*
X233358Y194126D01*
X233831Y193654D01*
X234449Y193398D01*
X235118D01*
X235736Y193654D01*
X236209Y194126D01*
X236465Y194744D01*
Y195413D01*
X236209Y196031D01*
X236139Y196100D01*
X236121Y196189D01*
X236230Y196717D01*
X236269Y196743D01*
X236424Y196975D01*
X236478Y197248D01*
Y202555D01*
X236424Y202829D01*
X236269Y203060D01*
X236037Y203215D01*
X235764Y203270D01*
D02*
G37*
G36*
X230764D02*
X228803D01*
X228530Y203215D01*
X228298Y203060D01*
X228143Y202829D01*
X228089Y202555D01*
Y197248D01*
X228143Y196975D01*
X228298Y196743D01*
X228337Y196717D01*
X228446Y196189D01*
X228428Y196100D01*
X228358Y196031D01*
X228102Y195413D01*
Y194744D01*
X228358Y194126D01*
X228831Y193654D01*
X229449Y193398D01*
X230118D01*
X230736Y193654D01*
X231209Y194126D01*
X231465Y194744D01*
Y195413D01*
X231209Y196031D01*
X231139Y196100D01*
X231121Y196189D01*
X231230Y196717D01*
X231269Y196743D01*
X231424Y196975D01*
X231478Y197248D01*
Y202555D01*
X231424Y202829D01*
X231269Y203060D01*
X231037Y203215D01*
X230764Y203270D01*
D02*
G37*
G36*
X225764D02*
X223803D01*
X223530Y203215D01*
X223298Y203060D01*
X223143Y202829D01*
X223089Y202555D01*
Y197248D01*
X223143Y196975D01*
X223298Y196743D01*
X223337Y196717D01*
X223446Y196189D01*
X223428Y196100D01*
X223358Y196031D01*
X223102Y195413D01*
Y194744D01*
X223358Y194126D01*
X223831Y193654D01*
X224449Y193398D01*
X225118D01*
X225736Y193654D01*
X226209Y194126D01*
X226465Y194744D01*
Y195413D01*
X226209Y196031D01*
X226139Y196100D01*
X226121Y196189D01*
X226230Y196717D01*
X226269Y196743D01*
X226424Y196975D01*
X226478Y197248D01*
Y202555D01*
X226424Y202829D01*
X226269Y203060D01*
X226037Y203215D01*
X225764Y203270D01*
D02*
G37*
G36*
X215764D02*
X213803D01*
X213530Y203215D01*
X213298Y203060D01*
X213143Y202829D01*
X213089Y202555D01*
Y197248D01*
X213143Y196975D01*
X213298Y196743D01*
X213337Y196717D01*
X213446Y196189D01*
X213428Y196100D01*
X213358Y196031D01*
X213102Y195413D01*
Y194744D01*
X213358Y194126D01*
X213831Y193654D01*
X214449Y193398D01*
X215118D01*
X215736Y193654D01*
X216209Y194126D01*
X216465Y194744D01*
Y195413D01*
X216209Y196031D01*
X216139Y196100D01*
X216121Y196189D01*
X216230Y196717D01*
X216269Y196743D01*
X216424Y196975D01*
X216478Y197248D01*
Y202555D01*
X216424Y202829D01*
X216269Y203060D01*
X216037Y203215D01*
X215764Y203270D01*
D02*
G37*
G36*
X391445Y191839D02*
X386077D01*
Y185683D01*
X391445D01*
Y191839D01*
D02*
G37*
G36*
X385577D02*
X380209D01*
Y185683D01*
X385577D01*
Y191839D01*
D02*
G37*
G36*
X391445Y185183D02*
X386077D01*
Y179028D01*
X391445D01*
Y185183D01*
D02*
G37*
G36*
X385577D02*
X380209D01*
Y179028D01*
X385577D01*
Y185183D01*
D02*
G37*
G36*
X250992Y180717D02*
X248971D01*
Y178400D01*
X250992D01*
Y180717D01*
D02*
G37*
G36*
X248470D02*
X246449D01*
Y178400D01*
X248470D01*
Y180717D01*
D02*
G37*
G36*
X224713D02*
X222691D01*
Y178400D01*
X224713D01*
Y180717D01*
D02*
G37*
G36*
X222191D02*
X220169D01*
Y178400D01*
X222191D01*
Y180717D01*
D02*
G37*
G36*
X248721Y178150D02*
D01*
D01*
D01*
D02*
G37*
G36*
X248470Y177900D02*
X246449D01*
Y175583D01*
X248470D01*
Y177900D01*
D02*
G37*
G36*
X224713Y177900D02*
X222691D01*
Y175583D01*
X224713D01*
Y177900D01*
D02*
G37*
G36*
X222191D02*
X220169D01*
Y175583D01*
X222191D01*
Y177900D01*
D02*
G37*
G36*
X316988Y189996D02*
X265748D01*
X265358Y189918D01*
X265027Y189697D01*
X251454Y176124D01*
X250992Y176316D01*
Y177900D01*
X248971D01*
Y175583D01*
X250259D01*
X250450Y175121D01*
X248295Y172965D01*
X248074Y172634D01*
X247996Y172244D01*
Y116929D01*
X248074Y116539D01*
X248295Y116208D01*
X268595Y95908D01*
Y92146D01*
X246895D01*
X244425Y94615D01*
Y175583D01*
X245677D01*
Y180717D01*
X241134D01*
Y175583D01*
X242386D01*
Y94193D01*
X242463Y93803D01*
X242685Y93472D01*
X245752Y90405D01*
X246082Y90184D01*
X246473Y90106D01*
X276362D01*
X276752Y90184D01*
X277083Y90405D01*
X278304Y91626D01*
X282587D01*
Y97350D01*
X280744D01*
Y101469D01*
X282587D01*
Y107193D01*
X280744D01*
Y111311D01*
X282587D01*
Y117035D01*
X280744D01*
Y121153D01*
X282587D01*
Y126878D01*
X280744D01*
Y130996D01*
X282587D01*
Y136721D01*
X280744D01*
Y140839D01*
X282587D01*
Y146563D01*
X280744D01*
Y150681D01*
X282587D01*
Y156405D01*
X280744D01*
Y160524D01*
X282587D01*
Y166248D01*
X276862D01*
Y160524D01*
X278705D01*
Y156405D01*
X276862D01*
Y150681D01*
X278705D01*
Y146563D01*
X276862D01*
Y140839D01*
X278705D01*
Y136721D01*
X276862D01*
Y130996D01*
X278705D01*
Y126878D01*
X276862D01*
Y121153D01*
X278705D01*
Y117035D01*
X276862D01*
Y111311D01*
X278705D01*
Y107193D01*
X276862D01*
Y101469D01*
X278705D01*
Y97350D01*
X276862D01*
Y93068D01*
X275940Y92146D01*
X274319D01*
Y97350D01*
X270036D01*
X250035Y117351D01*
Y171822D01*
X266170Y187957D01*
X316566D01*
X336260Y168262D01*
X336089Y167965D01*
X335870Y167148D01*
X335370Y167214D01*
Y167271D01*
X335292Y167661D01*
X335071Y167992D01*
X316319Y186745D01*
X315988Y186966D01*
X315598Y187043D01*
X266732D01*
X266342Y186966D01*
X266011Y186745D01*
X251248Y171981D01*
X251027Y171650D01*
X250949Y171260D01*
Y123819D01*
X251027Y123429D01*
X251248Y123098D01*
X268595Y105751D01*
Y101469D01*
X274319D01*
Y107193D01*
X270036D01*
X252988Y124241D01*
Y170837D01*
X267155Y185004D01*
X315176D01*
X329565Y170614D01*
X329358Y170114D01*
X328890D01*
X327999Y169876D01*
X327702Y169704D01*
X313615Y183792D01*
X313284Y184013D01*
X312894Y184090D01*
X267717D01*
X267326Y184013D01*
X266996Y183792D01*
X254200Y170997D01*
X253979Y170666D01*
X253902Y170276D01*
Y130688D01*
X253979Y130298D01*
X254200Y129967D01*
X265991Y118177D01*
X266053Y118135D01*
X268595Y115594D01*
Y111311D01*
X274319D01*
Y117035D01*
X270036D01*
X267453Y119619D01*
X267391Y119660D01*
X255941Y131111D01*
Y169853D01*
X268139Y182051D01*
X312472D01*
X326260Y168262D01*
X326089Y167965D01*
X325870Y167148D01*
X325370Y167214D01*
Y167271D01*
X325292Y167661D01*
X325071Y167992D01*
X312224Y180839D01*
X311894Y181060D01*
X311503Y181138D01*
X268701D01*
X268311Y181060D01*
X267980Y180839D01*
X257153Y170012D01*
X256932Y169682D01*
X256854Y169291D01*
Y137598D01*
X256932Y137208D01*
X257153Y136878D01*
X268595Y125436D01*
Y121153D01*
X274319D01*
Y126878D01*
X270036D01*
X258894Y138021D01*
Y168869D01*
X269123Y179098D01*
X311081D01*
X319565Y170614D01*
X319358Y170114D01*
X318890D01*
X317999Y169876D01*
X317702Y169704D01*
X309520Y177886D01*
X309190Y178107D01*
X308799Y178185D01*
X269685D01*
X269295Y178107D01*
X268964Y177886D01*
X260106Y169028D01*
X259885Y168697D01*
X259807Y168307D01*
Y144488D01*
X259885Y144098D01*
X260106Y143767D01*
X268595Y135278D01*
Y130996D01*
X274319D01*
Y136721D01*
X270036D01*
X261846Y144911D01*
Y167885D01*
X270107Y176146D01*
X308377D01*
X316260Y168262D01*
X316089Y167965D01*
X315870Y167148D01*
X315370Y167214D01*
Y167271D01*
X315292Y167661D01*
X315071Y167992D01*
X308130Y174934D01*
X307799Y175155D01*
X307409Y175232D01*
X270669D01*
X270279Y175155D01*
X269948Y174934D01*
X263059Y168044D01*
X262838Y167713D01*
X262760Y167323D01*
Y151378D01*
X262838Y150988D01*
X263059Y150657D01*
X268595Y145121D01*
Y140839D01*
X274319D01*
Y146563D01*
X270036D01*
X264799Y151800D01*
Y166901D01*
X271092Y173193D01*
X306987D01*
X309565Y170614D01*
X309358Y170114D01*
X308890D01*
X307999Y169876D01*
X307702Y169704D01*
X305426Y171981D01*
X305095Y172202D01*
X304705Y172279D01*
X271654D01*
X271263Y172202D01*
X270933Y171981D01*
X266011Y167060D01*
X265790Y166729D01*
X265713Y166339D01*
Y158268D01*
X265790Y157878D01*
X266011Y157547D01*
X268595Y154964D01*
Y150681D01*
X274319D01*
Y156405D01*
X270036D01*
X267752Y158690D01*
Y165916D01*
X268102Y166267D01*
X268595Y166052D01*
X268595Y165829D01*
Y160524D01*
X274319D01*
Y164806D01*
X276800Y167288D01*
X292235D01*
X300850Y158672D01*
Y153114D01*
X306409D01*
X316544Y142980D01*
X316874Y142759D01*
X317265Y142681D01*
X372965D01*
Y139854D01*
X380658D01*
Y147547D01*
X374052D01*
X373861Y148009D01*
X377834Y151982D01*
X378393Y151928D01*
X378733Y151339D01*
X379449Y150623D01*
X380326Y150117D01*
X381305Y149854D01*
X382317D01*
X383296Y150117D01*
X384173Y150623D01*
X384889Y151339D01*
X385291Y152036D01*
X385791Y151902D01*
Y147410D01*
X385326Y147285D01*
X384449Y146779D01*
X383733Y146063D01*
X383227Y145185D01*
X382965Y144207D01*
Y143194D01*
X383227Y142216D01*
X383733Y141339D01*
X384449Y140623D01*
X385326Y140117D01*
X386305Y139854D01*
X387317D01*
X388296Y140117D01*
X389173Y140623D01*
X389889Y141339D01*
X390395Y142216D01*
X390657Y143194D01*
Y144207D01*
X390395Y145185D01*
X389889Y146063D01*
X389173Y146779D01*
X388296Y147285D01*
X387831Y147410D01*
Y151902D01*
X388331Y152036D01*
X388733Y151339D01*
X389449Y150623D01*
X390326Y150117D01*
X391305Y149854D01*
X392317D01*
X393296Y150117D01*
X394173Y150623D01*
X394889Y151339D01*
X395395Y152216D01*
X395657Y153194D01*
Y154207D01*
X395395Y155185D01*
X394889Y156063D01*
X394173Y156779D01*
X393296Y157285D01*
X392317Y157547D01*
X391305D01*
X390326Y157285D01*
X389909Y157044D01*
X385800Y161154D01*
X385469Y161375D01*
X385079Y161453D01*
X378937D01*
X378547Y161375D01*
X378216Y161154D01*
X370696Y153634D01*
X337027D01*
X336820Y154134D01*
X337151Y154465D01*
X337612Y155263D01*
X337850Y156154D01*
Y157075D01*
X337612Y157965D01*
X337151Y158763D01*
X336499Y159415D01*
X335701Y159876D01*
X335370Y159965D01*
Y166015D01*
X335870Y166080D01*
X336089Y165263D01*
X336550Y164465D01*
X337201Y163814D01*
X337999Y163353D01*
X338890Y163114D01*
X339811D01*
X340701Y163353D01*
X341499Y163814D01*
X342151Y164465D01*
X342612Y165263D01*
X342850Y166154D01*
Y167075D01*
X342612Y167965D01*
X342151Y168763D01*
X341499Y169415D01*
X340701Y169876D01*
X339811Y170114D01*
X338890D01*
X337999Y169876D01*
X337702Y169704D01*
X317709Y189697D01*
X317378Y189918D01*
X316988Y189996D01*
D02*
G37*
G36*
X199606Y190980D02*
X130505D01*
X130115Y190903D01*
X129784Y190682D01*
X108370Y169267D01*
X108149Y168937D01*
X108071Y168546D01*
Y160390D01*
X104591D01*
Y153390D01*
X110149D01*
X120559Y142980D01*
X120890Y142759D01*
X121280Y142681D01*
X176272D01*
Y139854D01*
X183965D01*
Y147547D01*
X177201D01*
X177010Y148009D01*
X180692Y151691D01*
X181837D01*
X182040Y151339D01*
X182756Y150623D01*
X183633Y150117D01*
X184612Y149854D01*
X185625D01*
X186603Y150117D01*
X187480Y150623D01*
X188196Y151339D01*
X188599Y152036D01*
X189099Y151902D01*
Y147410D01*
X188633Y147285D01*
X187756Y146779D01*
X187040Y146063D01*
X186534Y145185D01*
X186272Y144207D01*
Y143194D01*
X186534Y142216D01*
X187040Y141339D01*
X187756Y140623D01*
X188633Y140117D01*
X189612Y139854D01*
X190624D01*
X191603Y140117D01*
X192480Y140623D01*
X193196Y141339D01*
X193702Y142216D01*
X193965Y143194D01*
Y144207D01*
X193702Y145185D01*
X193196Y146063D01*
X192480Y146779D01*
X191603Y147285D01*
X191138Y147410D01*
Y151902D01*
X191638Y152036D01*
X192040Y151339D01*
X192756Y150623D01*
X193633Y150117D01*
X194612Y149854D01*
X195624D01*
X196603Y150117D01*
X197480Y150623D01*
X198196Y151339D01*
X198702Y152216D01*
X198965Y153194D01*
Y154207D01*
X198702Y155185D01*
X198196Y156063D01*
X197480Y156779D01*
X196603Y157285D01*
X195624Y157547D01*
X194612D01*
X193633Y157285D01*
X193217Y157044D01*
X189107Y161154D01*
X188776Y161375D01*
X188386Y161453D01*
X182087D01*
X181696Y161375D01*
X181366Y161154D01*
X173790Y153579D01*
X140356D01*
X140222Y154079D01*
X140240Y154089D01*
X140892Y154741D01*
X141352Y155539D01*
X141591Y156429D01*
Y157350D01*
X141352Y158241D01*
X140892Y159039D01*
X140240Y159690D01*
X139442Y160151D01*
X139111Y160240D01*
Y166290D01*
X139611Y166356D01*
X139829Y165539D01*
X140290Y164741D01*
X140942Y164089D01*
X141740Y163628D01*
X142630Y163390D01*
X143552D01*
X144442Y163628D01*
X145240Y164089D01*
X145892Y164741D01*
X146352Y165539D01*
X146591Y166429D01*
Y167350D01*
X146463Y167828D01*
X146826Y168272D01*
X191507D01*
X209610Y150168D01*
Y121942D01*
X209110Y121843D01*
X209029Y122038D01*
X208985Y122104D01*
X208955Y122177D01*
X208255Y123225D01*
X208199Y123281D01*
X208155Y123347D01*
X207264Y124238D01*
X207198Y124282D01*
X207142Y124338D01*
X206094Y125038D01*
X206021Y125068D01*
X205956Y125112D01*
X204791Y125594D01*
X204714Y125610D01*
X204641Y125640D01*
X203405Y125886D01*
X203326D01*
X203248Y125901D01*
X201988Y125901D01*
X201910Y125886D01*
X201831D01*
X200595Y125640D01*
X200522Y125610D01*
X200445Y125594D01*
X199280Y125112D01*
X199214Y125068D01*
X199141Y125038D01*
X198094Y124338D01*
X198038Y124282D01*
X197972Y124238D01*
X197081Y123347D01*
X197037Y123281D01*
X196981Y123225D01*
X196281Y122177D01*
X196251Y122104D01*
X196207Y122038D01*
X195724Y120874D01*
X195709Y120796D01*
X195679Y120723D01*
X195433Y119487D01*
Y119408D01*
X195417Y119331D01*
X195417Y118701D01*
Y118070D01*
X195433Y117993D01*
Y117914D01*
X195679Y116678D01*
X195709Y116605D01*
X195724Y116527D01*
X196207Y115363D01*
X196251Y115297D01*
X196281Y115224D01*
X196981Y114176D01*
X197037Y114120D01*
X197081Y114055D01*
X197972Y113163D01*
X198038Y113120D01*
X198094Y113064D01*
X199142Y112364D01*
X199215Y112333D01*
X199280Y112289D01*
X200445Y111807D01*
X200522Y111792D01*
X200595Y111761D01*
X201831Y111516D01*
X201910D01*
X201988Y111500D01*
X203248Y111500D01*
X203326Y111516D01*
X203405D01*
X204641Y111761D01*
X204714Y111792D01*
X204791Y111807D01*
X205956Y112290D01*
X206021Y112333D01*
X206095Y112364D01*
X207142Y113064D01*
X207198Y113120D01*
X207264Y113164D01*
X208155Y114055D01*
X208199Y114121D01*
X208255Y114176D01*
X208955Y115224D01*
X208985Y115297D01*
X209029Y115363D01*
X209110Y115559D01*
X209610Y115459D01*
Y110039D01*
X209688Y109649D01*
X209909Y109318D01*
X223319Y95908D01*
Y91626D01*
X229043D01*
Y97350D01*
X224761D01*
X211649Y110462D01*
Y116767D01*
X212111Y116958D01*
X223319Y105751D01*
Y101469D01*
X229043D01*
Y107193D01*
X224761D01*
X213149Y118804D01*
Y125110D01*
X213612Y125301D01*
X223319Y115594D01*
Y111311D01*
X229043D01*
Y117035D01*
X224761D01*
X214650Y127147D01*
Y133452D01*
X215111Y133643D01*
X223319Y125436D01*
Y121153D01*
X229043D01*
Y126878D01*
X224761D01*
X216149Y135489D01*
Y141795D01*
X216612Y141986D01*
X223319Y135278D01*
Y130996D01*
X229043D01*
Y136721D01*
X224761D01*
X217650Y143832D01*
Y150137D01*
X218111Y150329D01*
X223319Y145121D01*
Y140839D01*
X229043D01*
Y146563D01*
X224761D01*
X219149Y152174D01*
Y158480D01*
X219612Y158671D01*
X223319Y154964D01*
Y150681D01*
X229043D01*
Y156405D01*
X224761D01*
X220650Y160517D01*
Y166197D01*
X220572Y166587D01*
X220351Y166918D01*
X199540Y187729D01*
X199209Y187950D01*
X198819Y188028D01*
X133209D01*
X132819Y187950D01*
X132488Y187729D01*
X114739Y169980D01*
X114442Y170151D01*
X113552Y170390D01*
X113083D01*
X112876Y170890D01*
X130927Y188941D01*
X199184D01*
X223319Y164806D01*
Y160524D01*
X229043D01*
Y166248D01*
X224761D01*
X200327Y190682D01*
X199996Y190903D01*
X199606Y190980D01*
D02*
G37*
G36*
X147414Y137386D02*
X147336Y137371D01*
X147257Y137371D01*
X146044Y137130D01*
X145971Y137100D01*
X145894Y137085D01*
X144751Y136613D01*
X144685Y136569D01*
X144612Y136539D01*
X143582Y135854D01*
X143526Y135798D01*
X143461Y135755D01*
X142584Y134882D01*
X142540Y134817D01*
X142484Y134761D01*
X141794Y133735D01*
X141763Y133662D01*
X141719Y133597D01*
X141242Y132456D01*
X141226Y132378D01*
X141196Y132306D01*
X140949Y131093D01*
X140949Y131015D01*
X140933Y130937D01*
X140930Y130319D01*
X140930Y130317D01*
X140930Y130315D01*
X140930Y130313D01*
X140930Y130311D01*
X140933Y129693D01*
X140949Y129615D01*
X140949Y129536D01*
X141196Y128324D01*
X141226Y128252D01*
X141242Y128174D01*
X141719Y127033D01*
X141763Y126968D01*
X141794Y126895D01*
X142484Y125869D01*
X142540Y125813D01*
X142584Y125748D01*
X143461Y124875D01*
X143526Y124832D01*
X143582Y124776D01*
X144612Y124091D01*
X144685Y124061D01*
X144750Y124017D01*
X145894Y123545D01*
X145971Y123530D01*
X146044Y123500D01*
X147257Y123259D01*
X147336Y123259D01*
X147413Y123243D01*
X148650Y123243D01*
X148728Y123259D01*
X148806Y123259D01*
X150020Y123499D01*
X150093Y123530D01*
X150170Y123545D01*
X151313Y124017D01*
X151379Y124060D01*
X151452Y124090D01*
X152482Y124776D01*
X152537Y124831D01*
X152603Y124875D01*
X153480Y125748D01*
X153524Y125813D01*
X153580Y125868D01*
X154270Y126895D01*
X154300Y126968D01*
X154344Y127033D01*
X154822Y128174D01*
X154838Y128251D01*
X154868Y128324D01*
X155115Y129536D01*
X155115Y129615D01*
X155131Y129692D01*
X155134Y130311D01*
X155133Y130313D01*
X155134Y130315D01*
X155133Y130317D01*
X155134Y130318D01*
X155131Y130937D01*
X155115Y131014D01*
X155115Y131093D01*
X154868Y132305D01*
X154838Y132378D01*
X154822Y132455D01*
X154345Y133596D01*
X154301Y133662D01*
X154270Y133734D01*
X153580Y134761D01*
X153524Y134816D01*
X153480Y134882D01*
X152603Y135754D01*
X152538Y135798D01*
X152482Y135854D01*
X151452Y136539D01*
X151379Y136569D01*
X151314Y136613D01*
X150170Y137085D01*
X150093Y137100D01*
X150020Y137130D01*
X148807Y137371D01*
X148728Y137371D01*
X148651Y137386D01*
X147414Y137386D01*
D02*
G37*
G36*
X102532D02*
X102454Y137371D01*
X102375Y137371D01*
X101162Y137130D01*
X101089Y137100D01*
X101012Y137085D01*
X99869Y136613D01*
X99803Y136569D01*
X99730Y136539D01*
X98700Y135854D01*
X98645Y135798D01*
X98579Y135755D01*
X97702Y134882D01*
X97658Y134817D01*
X97602Y134761D01*
X96912Y133735D01*
X96881Y133662D01*
X96837Y133597D01*
X96360Y132456D01*
X96344Y132378D01*
X96314Y132306D01*
X96067Y131093D01*
X96067Y131015D01*
X96051Y130937D01*
X96048Y130319D01*
X96048Y130317D01*
X96048Y130315D01*
X96048Y130313D01*
X96048Y130311D01*
X96051Y129693D01*
X96067Y129615D01*
X96067Y129536D01*
X96314Y128324D01*
X96344Y128252D01*
X96360Y128174D01*
X96837Y127033D01*
X96881Y126968D01*
X96912Y126895D01*
X97602Y125869D01*
X97658Y125813D01*
X97702Y125748D01*
X98579Y124875D01*
X98644Y124832D01*
X98700Y124776D01*
X99730Y124091D01*
X99803Y124061D01*
X99868Y124017D01*
X101012Y123545D01*
X101089Y123530D01*
X101162Y123500D01*
X102375Y123259D01*
X102454Y123259D01*
X102531Y123243D01*
X103768Y123243D01*
X103846Y123259D01*
X103924Y123259D01*
X105138Y123499D01*
X105211Y123530D01*
X105288Y123545D01*
X106431Y124017D01*
X106497Y124060D01*
X106570Y124090D01*
X107600Y124776D01*
X107655Y124831D01*
X107721Y124875D01*
X108598Y125748D01*
X108642Y125813D01*
X108698Y125868D01*
X109388Y126895D01*
X109418Y126968D01*
X109462Y127033D01*
X109940Y128174D01*
X109956Y128251D01*
X109986Y128324D01*
X110233Y129536D01*
X110233Y129615D01*
X110249Y129692D01*
X110252Y130311D01*
X110251Y130313D01*
X110252Y130315D01*
X110251Y130317D01*
X110252Y130318D01*
X110249Y130937D01*
X110233Y131014D01*
X110233Y131093D01*
X109986Y132305D01*
X109956Y132378D01*
X109940Y132455D01*
X109463Y133596D01*
X109419Y133662D01*
X109388Y133734D01*
X108698Y134761D01*
X108642Y134816D01*
X108598Y134882D01*
X107721Y135754D01*
X107656Y135798D01*
X107600Y135854D01*
X106570Y136539D01*
X106497Y136569D01*
X106432Y136613D01*
X105288Y137085D01*
X105211Y137100D01*
X105138Y137130D01*
X103925Y137371D01*
X103846Y137371D01*
X103769Y137386D01*
X102532Y137386D01*
D02*
G37*
G36*
X343673Y137111D02*
X343596Y137095D01*
X343517Y137095D01*
X342304Y136855D01*
X342231Y136825D01*
X342154Y136810D01*
X341010Y136337D01*
X340945Y136294D01*
X340872Y136264D01*
X339842Y135579D01*
X339786Y135523D01*
X339720Y135479D01*
X338843Y134607D01*
X338800Y134541D01*
X338744Y134486D01*
X338053Y133459D01*
X338023Y133387D01*
X337979Y133321D01*
X337501Y132180D01*
X337486Y132103D01*
X337455Y132030D01*
X337209Y130818D01*
X337208Y130739D01*
X337193Y130662D01*
X337190Y130043D01*
X337190Y130042D01*
X337190Y130040D01*
X337190Y130038D01*
X337190Y130036D01*
X337193Y129417D01*
X337208Y129340D01*
X337209Y129261D01*
X337455Y128049D01*
X337486Y127976D01*
X337501Y127899D01*
X337979Y126758D01*
X338023Y126693D01*
X338053Y126620D01*
X338743Y125593D01*
X338799Y125538D01*
X338843Y125472D01*
X339720Y124600D01*
X339786Y124556D01*
X339842Y124501D01*
X340871Y123815D01*
X340944Y123785D01*
X341010Y123741D01*
X342153Y123269D01*
X342231Y123254D01*
X342303Y123224D01*
X343517Y122984D01*
X343596Y122984D01*
X343673Y122968D01*
X344910Y122968D01*
X344987Y122984D01*
X345066Y122984D01*
X346279Y123224D01*
X346352Y123254D01*
X346429Y123269D01*
X347573Y123741D01*
X347638Y123785D01*
X347711Y123815D01*
X348741Y124500D01*
X348797Y124556D01*
X348863Y124600D01*
X349739Y125472D01*
X349783Y125538D01*
X349839Y125593D01*
X350530Y126620D01*
X350560Y126692D01*
X350604Y126758D01*
X351082Y127899D01*
X351097Y127976D01*
X351128Y128049D01*
X351374Y129261D01*
X351375Y129340D01*
X351390Y129417D01*
X351393Y130035D01*
X351393Y130037D01*
X351393Y130039D01*
X351393Y130041D01*
X351393Y130043D01*
X351390Y130662D01*
X351375Y130739D01*
X351374Y130818D01*
X351128Y132030D01*
X351097Y132103D01*
X351082Y132180D01*
X350604Y133321D01*
X350560Y133386D01*
X350530Y133459D01*
X349839Y134485D01*
X349783Y134541D01*
X349740Y134606D01*
X348863Y135479D01*
X348797Y135523D01*
X348741Y135578D01*
X347712Y136264D01*
X347639Y136294D01*
X347573Y136337D01*
X346430Y136809D01*
X346352Y136825D01*
X346280Y136855D01*
X345066Y137095D01*
X344987Y137095D01*
X344910Y137111D01*
X343673Y137111D01*
D02*
G37*
G36*
X298791D02*
X298714Y137095D01*
X298635Y137095D01*
X297422Y136855D01*
X297349Y136825D01*
X297271Y136810D01*
X296128Y136337D01*
X296062Y136294D01*
X295990Y136264D01*
X294960Y135579D01*
X294904Y135523D01*
X294838Y135479D01*
X293962Y134607D01*
X293918Y134541D01*
X293862Y134486D01*
X293171Y133459D01*
X293141Y133387D01*
X293097Y133321D01*
X292619Y132180D01*
X292604Y132103D01*
X292573Y132030D01*
X292327Y130818D01*
X292326Y130739D01*
X292311Y130662D01*
X292307Y130043D01*
X292308Y130042D01*
X292307Y130040D01*
X292308Y130038D01*
X292307Y130036D01*
X292311Y129417D01*
X292326Y129340D01*
X292327Y129261D01*
X292573Y128049D01*
X292603Y127976D01*
X292619Y127899D01*
X293097Y126758D01*
X293141Y126693D01*
X293171Y126620D01*
X293862Y125593D01*
X293917Y125538D01*
X293961Y125472D01*
X294838Y124600D01*
X294904Y124556D01*
X294960Y124501D01*
X295989Y123815D01*
X296062Y123785D01*
X296128Y123741D01*
X297271Y123269D01*
X297348Y123254D01*
X297421Y123224D01*
X298635Y122984D01*
X298713Y122984D01*
X298791Y122968D01*
X300028Y122968D01*
X300105Y122984D01*
X300184Y122984D01*
X301397Y123224D01*
X301470Y123254D01*
X301547Y123269D01*
X302691Y123741D01*
X302756Y123785D01*
X302829Y123815D01*
X303859Y124500D01*
X303915Y124556D01*
X303981Y124600D01*
X304857Y125472D01*
X304901Y125538D01*
X304957Y125593D01*
X305648Y126620D01*
X305678Y126692D01*
X305722Y126758D01*
X306200Y127899D01*
X306215Y127976D01*
X306246Y128049D01*
X306492Y129261D01*
X306493Y129340D01*
X306508Y129417D01*
X306511Y130035D01*
X306511Y130037D01*
X306511Y130039D01*
X306511Y130041D01*
X306511Y130043D01*
X306508Y130662D01*
X306493Y130739D01*
X306492Y130818D01*
X306246Y132030D01*
X306215Y132103D01*
X306200Y132180D01*
X305722Y133321D01*
X305678Y133386D01*
X305648Y133459D01*
X304958Y134485D01*
X304902Y134541D01*
X304858Y134606D01*
X303981Y135479D01*
X303915Y135523D01*
X303859Y135578D01*
X302830Y136264D01*
X302757Y136294D01*
X302691Y136337D01*
X301548Y136809D01*
X301470Y136825D01*
X301398Y136855D01*
X300184Y137095D01*
X300106Y137095D01*
X300028Y137111D01*
X298791Y137111D01*
D02*
G37*
G36*
X94739Y117617D02*
Y113439D01*
X97376D01*
Y114763D01*
X97277Y115511D01*
X96989Y116207D01*
X96530Y116805D01*
X95932Y117264D01*
X95236Y117552D01*
X94739Y117617D01*
D02*
G37*
G36*
X156943D02*
Y113439D01*
X159580D01*
Y114763D01*
X159481Y115511D01*
X159193Y116207D01*
X158734Y116805D01*
X158136Y117264D01*
X157440Y117552D01*
X156943Y117617D01*
D02*
G37*
G36*
X94239D02*
X93742Y117552D01*
X93045Y117264D01*
X92448Y116805D01*
X91989Y116207D01*
X91700Y115511D01*
X91602Y114763D01*
Y113439D01*
X94239D01*
Y117617D01*
D02*
G37*
G36*
X156443D02*
X155946Y117552D01*
X155249Y117264D01*
X154651Y116805D01*
X154193Y116207D01*
X153904Y115511D01*
X153806Y114763D01*
Y113439D01*
X156443D01*
Y117617D01*
D02*
G37*
G36*
X290998Y117342D02*
Y113163D01*
X293635D01*
Y114488D01*
X293537Y115235D01*
X293249Y115931D01*
X292790Y116529D01*
X292192Y116988D01*
X291496Y117277D01*
X290998Y117342D01*
D02*
G37*
G36*
X353202D02*
Y113163D01*
X355839D01*
Y114488D01*
X355741Y115235D01*
X355452Y115931D01*
X354994Y116529D01*
X354396Y116988D01*
X353700Y117277D01*
X353202Y117342D01*
D02*
G37*
G36*
X290498Y117342D02*
X290001Y117277D01*
X289305Y116988D01*
X288707Y116529D01*
X288248Y115931D01*
X287960Y115235D01*
X287861Y114488D01*
Y113163D01*
X290498D01*
Y117342D01*
D02*
G37*
G36*
X352702D02*
X352205Y117277D01*
X351509Y116988D01*
X350911Y116529D01*
X350452Y115931D01*
X350164Y115235D01*
X350065Y114488D01*
Y113163D01*
X352702D01*
Y117342D01*
D02*
G37*
G36*
X399941Y125901D02*
X398681Y125901D01*
X398603Y125886D01*
X398524D01*
X397288Y125640D01*
X397215Y125610D01*
X397137Y125594D01*
X395973Y125112D01*
X395907Y125068D01*
X395834Y125038D01*
X394787Y124338D01*
X394731Y124282D01*
X394665Y124238D01*
X393774Y123347D01*
X393730Y123281D01*
X393674Y123225D01*
X392974Y122177D01*
X392944Y122104D01*
X392900Y122038D01*
X392417Y120874D01*
X392402Y120796D01*
X392372Y120723D01*
X392126Y119487D01*
Y119408D01*
X392110Y119331D01*
X392110Y118701D01*
Y118070D01*
X392126Y117993D01*
Y117914D01*
X392372Y116678D01*
X392402Y116605D01*
X392417Y116527D01*
X392900Y115363D01*
X392944Y115297D01*
X392974Y115224D01*
X393674Y114176D01*
X393730Y114120D01*
X393774Y114055D01*
X394665Y113163D01*
X394731Y113120D01*
X394787Y113064D01*
X395834Y112364D01*
X395908Y112333D01*
X395973Y112289D01*
X397138Y111807D01*
X397215Y111792D01*
X397288Y111761D01*
X398524Y111516D01*
X398603D01*
X398681Y111500D01*
X399941Y111500D01*
X400019Y111516D01*
X400098D01*
X401334Y111761D01*
X401407Y111792D01*
X401484Y111807D01*
X402649Y112290D01*
X402714Y112333D01*
X402787Y112364D01*
X403835Y113064D01*
X403891Y113120D01*
X403957Y113164D01*
X404848Y114055D01*
X404892Y114121D01*
X404948Y114176D01*
X405648Y115224D01*
X405678Y115297D01*
X405722Y115363D01*
X406205Y116527D01*
X406220Y116605D01*
X406250Y116678D01*
X406496Y117914D01*
Y117993D01*
X406511Y118071D01*
X406511Y118701D01*
Y119331D01*
X406496Y119409D01*
Y119488D01*
X406250Y120724D01*
X406220Y120797D01*
X406204Y120874D01*
X405722Y122038D01*
X405678Y122104D01*
X405648Y122177D01*
X404948Y123225D01*
X404892Y123281D01*
X404848Y123347D01*
X403957Y124238D01*
X403891Y124282D01*
X403835Y124338D01*
X402787Y125038D01*
X402714Y125068D01*
X402648Y125112D01*
X401484Y125594D01*
X401407Y125610D01*
X401334Y125640D01*
X400098Y125886D01*
X400019D01*
X399941Y125901D01*
D02*
G37*
G36*
X369941D02*
X368681Y125901D01*
X368603Y125886D01*
X368524D01*
X367288Y125640D01*
X367215Y125610D01*
X367137Y125594D01*
X365973Y125112D01*
X365907Y125068D01*
X365834Y125038D01*
X364787Y124338D01*
X364731Y124282D01*
X364665Y124238D01*
X363774Y123347D01*
X363730Y123281D01*
X363674Y123225D01*
X362974Y122177D01*
X362944Y122104D01*
X362900Y122038D01*
X362417Y120874D01*
X362402Y120796D01*
X362372Y120723D01*
X362126Y119487D01*
Y119408D01*
X362110Y119331D01*
X362110Y118701D01*
Y118070D01*
X362126Y117993D01*
Y117914D01*
X362372Y116678D01*
X362402Y116605D01*
X362417Y116527D01*
X362900Y115363D01*
X362944Y115297D01*
X362974Y115224D01*
X363674Y114176D01*
X363730Y114120D01*
X363774Y114055D01*
X364665Y113163D01*
X364731Y113120D01*
X364787Y113064D01*
X365834Y112364D01*
X365908Y112333D01*
X365973Y112289D01*
X367138Y111807D01*
X367215Y111792D01*
X367288Y111761D01*
X368524Y111516D01*
X368603D01*
X368681Y111500D01*
X369941Y111500D01*
X370019Y111516D01*
X370098D01*
X371334Y111761D01*
X371407Y111792D01*
X371484Y111807D01*
X372649Y112290D01*
X372714Y112333D01*
X372787Y112364D01*
X373835Y113064D01*
X373891Y113120D01*
X373957Y113164D01*
X374848Y114055D01*
X374892Y114121D01*
X374948Y114176D01*
X375648Y115224D01*
X375678Y115297D01*
X375722Y115363D01*
X376204Y116527D01*
X376220Y116605D01*
X376250Y116678D01*
X376496Y117914D01*
Y117993D01*
X376512Y118071D01*
X376511Y118701D01*
Y119331D01*
X376496Y119409D01*
Y119488D01*
X376250Y120724D01*
X376220Y120797D01*
X376204Y120874D01*
X375722Y122038D01*
X375678Y122104D01*
X375648Y122177D01*
X374948Y123225D01*
X374892Y123281D01*
X374848Y123347D01*
X373957Y124238D01*
X373891Y124282D01*
X373835Y124338D01*
X372787Y125038D01*
X372714Y125068D01*
X372649Y125112D01*
X371484Y125594D01*
X371407Y125610D01*
X371334Y125640D01*
X370097Y125886D01*
X370019D01*
X369941Y125901D01*
D02*
G37*
G36*
X173248D02*
X171988Y125901D01*
X171910Y125886D01*
X171831D01*
X170595Y125640D01*
X170522Y125610D01*
X170445Y125594D01*
X169280Y125112D01*
X169214Y125068D01*
X169141Y125038D01*
X168094Y124338D01*
X168038Y124282D01*
X167972Y124238D01*
X167081Y123347D01*
X167037Y123281D01*
X166981Y123225D01*
X166281Y122177D01*
X166251Y122104D01*
X166207Y122038D01*
X165724Y120874D01*
X165709Y120796D01*
X165679Y120723D01*
X165433Y119487D01*
Y119408D01*
X165418Y119331D01*
X165418Y118701D01*
Y118070D01*
X165433Y117993D01*
Y117914D01*
X165679Y116678D01*
X165709Y116605D01*
X165725Y116527D01*
X166207Y115363D01*
X166251Y115297D01*
X166281Y115224D01*
X166981Y114176D01*
X167037Y114120D01*
X167081Y114055D01*
X167972Y113163D01*
X168038Y113120D01*
X168094Y113064D01*
X169142Y112364D01*
X169215Y112333D01*
X169280Y112289D01*
X170445Y111807D01*
X170522Y111792D01*
X170595Y111761D01*
X171831Y111516D01*
X171911D01*
X171988Y111500D01*
X173248Y111500D01*
X173326Y111516D01*
X173405D01*
X174641Y111761D01*
X174714Y111792D01*
X174792Y111807D01*
X175956Y112290D01*
X176022Y112333D01*
X176095Y112364D01*
X177142Y113064D01*
X177198Y113120D01*
X177264Y113164D01*
X178155Y114055D01*
X178199Y114121D01*
X178255Y114176D01*
X178955Y115224D01*
X178985Y115297D01*
X179029Y115363D01*
X179512Y116527D01*
X179527Y116605D01*
X179557Y116678D01*
X179803Y117914D01*
Y117993D01*
X179818Y118071D01*
X179818Y118701D01*
Y119331D01*
X179803Y119409D01*
Y119488D01*
X179557Y120724D01*
X179527Y120797D01*
X179511Y120874D01*
X179029Y122038D01*
X178985Y122104D01*
X178955Y122177D01*
X178255Y123225D01*
X178199Y123281D01*
X178155Y123347D01*
X177264Y124238D01*
X177198Y124282D01*
X177142Y124338D01*
X176094Y125038D01*
X176021Y125068D01*
X175956Y125112D01*
X174791Y125594D01*
X174714Y125610D01*
X174641Y125640D01*
X173405Y125886D01*
X173326D01*
X173248Y125901D01*
D02*
G37*
G36*
X159580Y112939D02*
X156943D01*
Y108760D01*
X157440Y108825D01*
X158136Y109114D01*
X158734Y109573D01*
X159193Y110170D01*
X159481Y110867D01*
X159580Y111614D01*
Y112939D01*
D02*
G37*
G36*
X97376D02*
X94739D01*
Y108760D01*
X95236Y108825D01*
X95932Y109114D01*
X96530Y109573D01*
X96989Y110170D01*
X97277Y110867D01*
X97376Y111614D01*
Y112939D01*
D02*
G37*
G36*
X156443D02*
X153806D01*
Y111614D01*
X153904Y110867D01*
X154193Y110170D01*
X154651Y109573D01*
X155249Y109114D01*
X155946Y108825D01*
X156443Y108760D01*
Y112939D01*
D02*
G37*
G36*
X94239D02*
X91602D01*
Y111614D01*
X91700Y110867D01*
X91989Y110170D01*
X92448Y109573D01*
X93045Y109114D01*
X93742Y108825D01*
X94239Y108760D01*
Y112939D01*
D02*
G37*
G36*
X293635Y112663D02*
X290998D01*
Y108484D01*
X291496Y108550D01*
X292192Y108838D01*
X292790Y109297D01*
X293249Y109895D01*
X293537Y110591D01*
X293635Y111338D01*
Y112663D01*
D02*
G37*
G36*
X355839D02*
X353202D01*
Y108484D01*
X353700Y108550D01*
X354396Y108838D01*
X354994Y109297D01*
X355452Y109895D01*
X355741Y110591D01*
X355839Y111338D01*
Y112663D01*
D02*
G37*
G36*
X352702D02*
X350065D01*
Y111338D01*
X350164Y110591D01*
X350452Y109895D01*
X350911Y109297D01*
X351509Y108838D01*
X352205Y108550D01*
X352702Y108484D01*
Y112663D01*
D02*
G37*
G36*
X290498D02*
X287861D01*
Y111338D01*
X287960Y110591D01*
X288248Y109895D01*
X288707Y109297D01*
X289305Y108838D01*
X290001Y108550D01*
X290498Y108484D01*
Y112663D01*
D02*
G37*
G36*
X230028Y180717D02*
X225484D01*
Y175583D01*
X230028D01*
Y177130D01*
X230877D01*
X232248Y175759D01*
Y166248D01*
X231587D01*
Y160524D01*
X232248D01*
Y156405D01*
X231587D01*
Y150681D01*
X232248D01*
Y146563D01*
X231587D01*
Y140839D01*
X232248D01*
Y136721D01*
X231587D01*
Y130996D01*
X232248D01*
Y126878D01*
X231587D01*
Y121153D01*
X232248D01*
Y117035D01*
X231587D01*
Y111311D01*
X232248D01*
Y107193D01*
X231587D01*
Y101469D01*
X232248D01*
Y97350D01*
X231587D01*
Y91626D01*
X237311D01*
Y97350D01*
X234287D01*
Y101469D01*
X237311D01*
Y107193D01*
X234287D01*
Y111311D01*
X237311D01*
Y117035D01*
X234287D01*
Y121153D01*
X237311D01*
Y126878D01*
X234287D01*
Y130996D01*
X237311D01*
Y136721D01*
X234287D01*
Y140839D01*
X237311D01*
Y146563D01*
X234287D01*
Y150681D01*
X237311D01*
Y156405D01*
X234287D01*
Y160524D01*
X237311D01*
Y166248D01*
X234287D01*
Y176181D01*
X234210Y176571D01*
X233989Y176902D01*
X232020Y178871D01*
X231689Y179092D01*
X231299Y179169D01*
X230028D01*
Y180717D01*
D02*
G37*
%LPD*%
G36*
X226735Y292253D02*
Y291142D01*
X226735Y291142D01*
X226764Y290996D01*
Y287787D01*
X227522D01*
Y282095D01*
X226764D01*
Y276961D01*
X227522D01*
Y271268D01*
X226764D01*
Y266134D01*
X227522D01*
Y264801D01*
X216043D01*
X216043Y264801D01*
X215970Y264786D01*
X215723Y265247D01*
X217664Y267188D01*
X221449D01*
Y266134D01*
X225992D01*
Y271268D01*
X221449D01*
Y270214D01*
X217037D01*
X216458Y270099D01*
X215967Y269771D01*
X215967Y269771D01*
X211489Y265293D01*
X210178D01*
X210062Y265419D01*
X209854Y265793D01*
X209884Y265943D01*
Y270474D01*
X209830Y270746D01*
X209801Y270789D01*
Y277227D01*
X221449D01*
Y276961D01*
X225992D01*
Y282095D01*
X222880D01*
X222689Y282556D01*
X224791Y284658D01*
X224791Y284658D01*
X225119Y285149D01*
X225234Y285728D01*
Y287787D01*
X225992D01*
Y292270D01*
X226492Y292484D01*
X226735Y292253D01*
D02*
G37*
G36*
X201774Y271311D02*
Y270789D01*
X201745Y270746D01*
X201691Y270474D01*
Y265943D01*
X201745Y265672D01*
X201872Y265481D01*
Y264933D01*
X201872Y264933D01*
X201988Y264353D01*
X202316Y263863D01*
X203469Y262709D01*
X203469Y262709D01*
X203960Y262381D01*
X204539Y262266D01*
X212116D01*
X212116Y262266D01*
X212190Y262281D01*
X212436Y261820D01*
X207217Y256602D01*
X206889Y256111D01*
X206774Y255532D01*
X206774Y255531D01*
Y250120D01*
X206745Y250076D01*
X206691Y249805D01*
Y245274D01*
X206555Y245108D01*
X205020D01*
X204884Y245274D01*
Y249805D01*
X204830Y250076D01*
X204781Y250149D01*
Y251670D01*
X204929Y252028D01*
Y252697D01*
X204673Y253314D01*
X204200Y253787D01*
X203582Y254043D01*
X202914D01*
X202296Y253787D01*
X201823Y253314D01*
X201567Y252697D01*
Y252028D01*
X201754Y251575D01*
Y250090D01*
X201745Y250076D01*
X201691Y249805D01*
Y245274D01*
X201555Y245108D01*
X200166D01*
X199899Y245374D01*
Y247441D01*
X199899Y247441D01*
X199884Y247519D01*
Y249805D01*
X199830Y250076D01*
X199801Y250120D01*
Y261024D01*
Y265628D01*
X199830Y265672D01*
X199884Y265943D01*
Y270474D01*
X199830Y270746D01*
X199676Y270975D01*
X199524Y271077D01*
X199549Y271415D01*
X199607Y271577D01*
X201507D01*
X201774Y271311D01*
D02*
G37*
G36*
X299303Y210146D02*
X299303Y210095D01*
Y201807D01*
X257312D01*
X256898Y202221D01*
X257106Y202721D01*
X290338D01*
X290728Y202798D01*
X291059Y203019D01*
X298635Y210595D01*
X299180D01*
X299303Y210146D01*
D02*
G37*
G36*
X309126Y210101D02*
Y206587D01*
X309146Y206488D01*
Y199354D01*
X309146Y199303D01*
X309022Y198854D01*
X305151D01*
X305028Y199303D01*
X305028D01*
Y210095D01*
X305028Y210146D01*
X305151Y210595D01*
X308633D01*
X309126Y210101D01*
D02*
G37*
G36*
X299294Y199299D02*
X299293Y199268D01*
X299180Y198854D01*
X258121D01*
X257669Y199306D01*
X257860Y199768D01*
X299086D01*
X299294Y199299D01*
D02*
G37*
G36*
X333331Y166015D02*
Y159965D01*
X332999Y159876D01*
X332201Y159415D01*
X331550Y158763D01*
X331089Y157965D01*
X330850Y157075D01*
Y156154D01*
X331089Y155263D01*
X331550Y154465D01*
X331881Y154134D01*
X331674Y153634D01*
X327027D01*
X326820Y154134D01*
X327151Y154465D01*
X327612Y155263D01*
X327850Y156154D01*
Y157075D01*
X327612Y157965D01*
X327151Y158763D01*
X326499Y159415D01*
X325701Y159876D01*
X325370Y159965D01*
Y166015D01*
X325870Y166080D01*
X326089Y165263D01*
X326550Y164465D01*
X327201Y163814D01*
X327999Y163353D01*
X328890Y163114D01*
X329811D01*
X330701Y163353D01*
X331499Y163814D01*
X332151Y164465D01*
X332612Y165263D01*
X332831Y166080D01*
X333331Y166015D01*
D02*
G37*
G36*
X306260Y168262D02*
X306089Y167965D01*
X305850Y167075D01*
Y166154D01*
X306089Y165263D01*
X306550Y164465D01*
X307201Y163814D01*
X307999Y163353D01*
X308331Y163264D01*
Y160162D01*
X307850Y160114D01*
Y160114D01*
X302292D01*
X293378Y169028D01*
X293048Y169249D01*
X292658Y169327D01*
X276378D01*
X275988Y169249D01*
X275657Y169028D01*
X272877Y166248D01*
X269047D01*
X268791Y166248D01*
X268576Y166740D01*
X272076Y170240D01*
X304282D01*
X306260Y168262D01*
D02*
G37*
G36*
X318331Y156015D02*
Y155957D01*
X318408Y155567D01*
X318629Y155236D01*
X321973Y151893D01*
X322303Y151672D01*
X322693Y151595D01*
X370902D01*
X371110Y151095D01*
X370641Y150626D01*
X321781D01*
X317440Y154966D01*
X317612Y155263D01*
X317831Y156080D01*
X318331Y156015D01*
D02*
G37*
G36*
X320637Y148885D02*
X320968Y148664D01*
X321358Y148587D01*
X370847D01*
X371054Y148087D01*
X370641Y147673D01*
X319077D01*
X314136Y152614D01*
X314343Y153114D01*
X314811D01*
X315701Y153353D01*
X315998Y153524D01*
X320637Y148885D01*
D02*
G37*
G36*
X308408Y155567D02*
X308629Y155236D01*
X317933Y145933D01*
X318264Y145712D01*
X318654Y145634D01*
X371063D01*
X371453Y145712D01*
X371784Y145933D01*
X372503Y146651D01*
X372965Y146460D01*
Y144720D01*
X317687D01*
X307850Y154557D01*
Y155810D01*
X308350Y155859D01*
X308408Y155567D01*
D02*
G37*
G36*
X218548Y165837D02*
X218511Y165514D01*
X218010Y165322D01*
X198556Y184776D01*
X198225Y184997D01*
X197835Y185075D01*
X134599D01*
X134209Y184997D01*
X133879Y184776D01*
X117370Y168267D01*
X117149Y167937D01*
X117071Y167546D01*
Y167489D01*
X116571Y167423D01*
X116352Y168241D01*
X116181Y168538D01*
X133632Y185988D01*
X198397D01*
X218548Y165837D01*
D02*
G37*
G36*
X217048Y163400D02*
X217011Y163077D01*
X216510Y162885D01*
X197571Y181823D01*
X197241Y182044D01*
X196850Y182122D01*
X137304D01*
X136913Y182044D01*
X136583Y181823D01*
X124739Y169980D01*
X124442Y170151D01*
X123552Y170390D01*
X123083D01*
X122876Y170890D01*
X135022Y183036D01*
X197412D01*
X217048Y163400D01*
D02*
G37*
G36*
X215548Y160963D02*
X215511Y160640D01*
X215010Y160448D01*
X196587Y178871D01*
X196256Y179092D01*
X195866Y179169D01*
X138694D01*
X138304Y179092D01*
X137973Y178871D01*
X127370Y168267D01*
X127149Y167937D01*
X127071Y167546D01*
Y167489D01*
X126571Y167423D01*
X126352Y168241D01*
X126181Y168538D01*
X137726Y180083D01*
X196428D01*
X215548Y160963D01*
D02*
G37*
G36*
X214048Y158526D02*
X214011Y158203D01*
X213510Y158011D01*
X195603Y175918D01*
X195272Y176139D01*
X194882Y176216D01*
X141398D01*
X141008Y176139D01*
X140677Y175918D01*
X134739Y169980D01*
X134442Y170151D01*
X133552Y170390D01*
X133083D01*
X132876Y170890D01*
X139116Y177130D01*
X195444D01*
X214048Y158526D01*
D02*
G37*
G36*
X212548Y156089D02*
X212511Y155766D01*
X212010Y155574D01*
X194619Y172965D01*
X194288Y173186D01*
X193898Y173264D01*
X142789D01*
X142398Y173186D01*
X142068Y172965D01*
X137370Y168267D01*
X137149Y167937D01*
X137071Y167546D01*
Y167489D01*
X136571Y167423D01*
X136352Y168241D01*
X136181Y168538D01*
X141820Y174177D01*
X194460D01*
X212548Y156089D01*
D02*
G37*
G36*
X129829Y165539D02*
X130290Y164741D01*
X130942Y164089D01*
X131740Y163628D01*
X132630Y163390D01*
X133552D01*
X134442Y163628D01*
X135240Y164089D01*
X135892Y164741D01*
X136352Y165539D01*
X136571Y166356D01*
X137071Y166290D01*
Y160240D01*
X136740Y160151D01*
X135942Y159690D01*
X135290Y159039D01*
X134829Y158241D01*
X134591Y157350D01*
Y156429D01*
X134829Y155539D01*
X135290Y154741D01*
X135942Y154089D01*
X135960Y154079D01*
X135826Y153579D01*
X130356D01*
X130222Y154079D01*
X130240Y154089D01*
X130892Y154741D01*
X131352Y155539D01*
X131591Y156429D01*
Y157350D01*
X131352Y158241D01*
X130892Y159039D01*
X130240Y159690D01*
X129442Y160151D01*
X129111Y160240D01*
Y166290D01*
X129611Y166356D01*
X129829Y165539D01*
D02*
G37*
G36*
X211110Y153589D02*
Y152205D01*
X210648Y152014D01*
X192650Y170012D01*
X192319Y170233D01*
X191929Y170311D01*
X146177D01*
X145786Y170233D01*
X145456Y170012D01*
X145173Y169729D01*
X144442Y170151D01*
X143552Y170390D01*
X143083D01*
X142876Y170890D01*
X143211Y171224D01*
X193475D01*
X211110Y153589D01*
D02*
G37*
G36*
X122071Y156290D02*
Y156233D01*
X122149Y155843D01*
X122370Y155512D01*
X126044Y151838D01*
X126374Y151617D01*
X126765Y151540D01*
X173997D01*
X174204Y151040D01*
X173790Y150626D01*
X125797D01*
X121181Y155242D01*
X121352Y155539D01*
X121571Y156356D01*
X122071Y156290D01*
D02*
G37*
G36*
X124653Y148885D02*
X124984Y148664D01*
X125374Y148587D01*
X173997D01*
X174204Y148087D01*
X173790Y147673D01*
X123092D01*
X117876Y152890D01*
X118083Y153390D01*
X118552D01*
X119442Y153628D01*
X119739Y153800D01*
X124653Y148885D01*
D02*
G37*
G36*
X112149Y155843D02*
X112370Y155512D01*
X121949Y145933D01*
X122280Y145712D01*
X122670Y145634D01*
X174213D01*
X174603Y145712D01*
X174934Y145933D01*
X175810Y146809D01*
X176272Y146617D01*
Y144720D01*
X121702D01*
X111591Y154832D01*
Y156085D01*
X112091Y156134D01*
X112149Y155843D01*
D02*
G37*
D10*
X176767Y194882D02*
X192780D01*
X176181Y195468D02*
X176767Y194882D01*
X176181Y195468D02*
Y199508D01*
X193366Y195468D02*
Y208130D01*
X192780Y194882D02*
X193366Y195468D01*
X198366D02*
X198952Y194882D01*
X207677D01*
X198366Y195468D02*
Y200000D01*
X207677Y194882D02*
X209646Y196850D01*
Y201772D01*
X309055Y211614D02*
X310146Y210524D01*
Y206587D02*
Y210524D01*
X298212Y211614D02*
X309055D01*
X310146Y206587D02*
X312008Y204724D01*
X290338Y203740D02*
X298212Y211614D01*
X109091Y168546D02*
X130505Y189961D01*
X199606D02*
X226181Y163386D01*
X130505Y189961D02*
X199606D01*
X133209Y187008D02*
X198819D01*
X219630Y166197D01*
X113091Y166890D02*
X133209Y187008D01*
X197835Y184055D02*
X218130Y163760D01*
X134599Y184055D02*
X197835D01*
X118091Y167546D02*
X134599Y184055D01*
X123091Y166890D02*
X137304Y181102D01*
X196850D01*
X216630Y161323D01*
X128091Y167546D02*
X138694Y178150D01*
X195866D02*
X215130Y158886D01*
X138694Y178150D02*
X195866D01*
X194882Y175197D02*
X213630Y156449D01*
X141398Y175197D02*
X194882D01*
X133091Y166889D02*
X141398Y175197D01*
X193898Y172244D02*
X212130Y154012D01*
X138091Y167546D02*
X142789Y172244D01*
X193898D01*
X256890Y203740D02*
X290338D01*
X253833Y206797D02*
X256890Y203740D01*
X244783Y221358D02*
X244833Y221309D01*
X244783Y216142D02*
X244882Y216240D01*
X244833Y216289D02*
Y221309D01*
X244783Y210749D02*
Y216142D01*
X244833Y216289D02*
X244882Y216240D01*
X244783Y199902D02*
X244783Y199902D01*
Y195079D02*
Y199902D01*
X239784Y195079D02*
Y199902D01*
X239783Y199902D02*
X239784Y199902D01*
X234784Y195079D02*
Y199902D01*
X234783Y199902D02*
X234784Y199902D01*
X229784Y195079D02*
Y199902D01*
X229783Y199902D02*
X229784Y199902D01*
X224783Y199902D02*
X224783Y199902D01*
Y195079D02*
Y199902D01*
X219783Y199902D02*
Y205079D01*
X219783Y199902D02*
X219783Y199902D01*
X214784Y195079D02*
Y199902D01*
X214783Y199902D02*
X214784Y199902D01*
X222441Y226378D02*
X251969D01*
X220980D02*
X222441D01*
Y231988D02*
X222736Y232283D01*
X222441Y226378D02*
Y231988D01*
X249783Y207894D02*
Y221358D01*
X256890Y200787D02*
X300303D01*
X249783Y207894D02*
X256890Y200787D01*
X253833Y206797D02*
Y224513D01*
X257698Y197835D02*
X320866D01*
X244783Y210749D02*
X257698Y197835D01*
X321850Y198819D02*
Y204724D01*
X320866Y197835D02*
X321850Y198819D01*
X300303Y200787D02*
X302165Y202650D01*
Y204724D01*
X251969Y226378D02*
X253833Y224513D01*
X220394Y225792D02*
X220980Y226378D01*
X220394Y221969D02*
Y225792D01*
X219783Y221358D02*
X220394Y221969D01*
X233268Y153543D02*
Y163386D01*
Y143701D02*
Y153543D01*
Y163386D02*
Y176181D01*
X227756Y178150D02*
X231299D01*
X233268Y176181D01*
Y104331D02*
Y143701D01*
Y95669D02*
Y104331D01*
X243406Y94193D02*
X246473Y91126D01*
X243406Y94193D02*
Y178150D01*
X233268Y95669D02*
X234449Y94488D01*
X125374Y149606D02*
X174213D01*
X118091Y156890D02*
X125374Y149606D01*
X174213D02*
X182653Y158047D01*
X122670Y146653D02*
X174213D01*
X180270Y152711D01*
X184128D01*
X182653Y158047D02*
X187425D01*
X113091Y156233D02*
X122670Y146653D01*
X108091Y156889D02*
X121280Y143701D01*
X180118D01*
X184128Y152711D02*
X185118Y153701D01*
X317265Y143701D02*
X376811D01*
X306851Y154114D02*
X317265Y143701D01*
X309350Y155957D02*
X318654Y146653D01*
X371063D01*
X377550Y153141D01*
X381251D02*
X381811Y153701D01*
X377550Y153141D02*
X381251D01*
X371063Y149606D02*
X379504Y158047D01*
X321358Y149606D02*
X371063D01*
X314350Y156614D02*
X321358Y149606D01*
X316988Y188976D02*
X339351Y166614D01*
X249016Y172244D02*
X265748Y188976D01*
X316988D01*
X266732Y186024D02*
X315598D01*
X251969Y171260D02*
X266732Y186024D01*
X315598D02*
X334350Y167271D01*
X254921Y170276D02*
X267717Y183071D01*
X312894D01*
X329350Y166615D01*
X268701Y180118D02*
X311503D01*
X257874Y169291D02*
X268701Y180118D01*
X311503D02*
X324350Y167271D01*
X260827Y168307D02*
X269685Y177165D01*
X308799D01*
X319351Y166614D01*
X307409Y174213D02*
X314350Y167271D01*
X270669Y174213D02*
X307409D01*
X263779Y167323D02*
X270669Y174213D01*
X266732Y166339D02*
X271654Y171260D01*
X304705D02*
X309350Y166615D01*
X271654Y171260D02*
X304705D01*
X292658Y168307D02*
X304350Y156615D01*
X309350Y166615D02*
X309350D01*
X276378Y168307D02*
X292658D01*
X271457Y163386D02*
X276378Y168307D01*
X249016Y116929D02*
Y172244D01*
X251969Y123819D02*
Y171260D01*
X254921Y130688D02*
Y170276D01*
X257874Y137598D02*
Y169291D01*
X260827Y144488D02*
Y168307D01*
X263779Y151378D02*
Y167323D01*
X266732Y158268D02*
Y166339D01*
X324350Y156615D02*
Y167271D01*
X334350Y156615D02*
Y167271D01*
X249016Y116929D02*
X271457Y94488D01*
X251969Y123819D02*
X271457Y104331D01*
X254921Y130688D02*
X266712Y118898D01*
X257874Y137598D02*
X271457Y124016D01*
X260827Y144488D02*
X271457Y133858D01*
X263779Y151378D02*
X271457Y143701D01*
X266732Y158268D02*
X271457Y153543D01*
X219630Y160094D02*
X226181Y153543D01*
X219630Y160094D02*
Y166197D01*
X218130Y151752D02*
Y163760D01*
Y151752D02*
X226181Y143701D01*
X216630Y143409D02*
Y161323D01*
X215130Y135067D02*
Y158886D01*
X191929Y169291D02*
X210630Y150591D01*
Y110039D02*
Y150591D01*
X146177Y169291D02*
X191929D01*
X212130Y118382D02*
Y154012D01*
X213630Y126724D02*
Y156449D01*
X224783Y216909D02*
Y221358D01*
X209646Y201772D02*
X224783Y216909D01*
X193366Y208130D02*
X198366Y213130D01*
Y221260D01*
X193209Y232283D02*
X193366Y232126D01*
X180807Y232283D02*
X193209D01*
X193366Y221260D02*
Y232126D01*
X198366D02*
X198524Y232283D01*
X198366Y221260D02*
Y232126D01*
X246473Y91126D02*
X276362D01*
X279724Y94488D01*
Y153543D02*
Y163386D01*
Y143701D02*
Y153543D01*
Y133858D02*
Y143701D01*
Y124016D02*
Y133858D01*
Y114173D02*
Y124016D01*
Y104331D02*
Y114173D01*
Y94488D02*
Y104331D01*
X304350Y156615D02*
X304351D01*
Y156614D02*
Y156615D01*
X339351Y166614D02*
Y166614D01*
X334350Y156615D02*
X334350Y156615D01*
X266732Y118898D02*
X271457Y114173D01*
X266712Y118898D02*
X266732D01*
X329350Y166614D02*
Y166615D01*
X324350Y156615D02*
X324351Y156615D01*
X319351Y166614D02*
Y166614D01*
X314350Y156615D02*
Y167271D01*
X314350Y156615D02*
X314350Y156615D01*
X309350Y166615D02*
X309350Y166614D01*
X378937Y160433D02*
X385079D01*
X391811Y153701D01*
X371118Y152614D02*
X378937Y160433D01*
X322693Y152614D02*
X371118D01*
X319350Y155957D02*
X322693Y152614D01*
X319350Y155957D02*
Y166614D01*
X319351Y166614D01*
X386811Y143701D02*
Y155512D01*
X384276Y158047D02*
X386811Y155512D01*
X379504Y158047D02*
X384276D01*
X309350Y155957D02*
Y166614D01*
X306850Y154114D02*
X306851D01*
X304351Y156614D02*
X306850Y154114D01*
X143775Y166889D02*
X146177Y169291D01*
X143091Y166889D02*
X143775D01*
X215130Y135067D02*
X226181Y124016D01*
X216630Y143409D02*
X226181Y133858D01*
X210630Y110039D02*
X224319Y96350D01*
X212130Y118382D02*
X226181Y104331D01*
X213630Y126724D02*
X226181Y114173D01*
X109091Y157890D02*
Y168546D01*
X108091Y156890D02*
X109091Y157890D01*
X113091Y166890D02*
X113091D01*
X118091Y156890D02*
Y167546D01*
X118091Y156890D02*
X118091Y156890D01*
X123091Y166889D02*
Y166890D01*
X128091Y156890D02*
Y167546D01*
Y156890D02*
X128091Y156890D01*
X133090Y166889D02*
X133091D01*
X138091Y156890D02*
Y167546D01*
X138091Y156890D02*
X138091Y156890D01*
X224319Y96350D02*
X226181Y94488D01*
X224319Y96350D02*
Y96350D01*
X188386Y160433D02*
X195118Y153701D01*
X174213Y152559D02*
X182087Y160433D01*
X188386D01*
X126765Y152559D02*
X174213D01*
X123091Y156233D02*
X126765Y152559D01*
X123091Y156233D02*
Y166889D01*
X123091Y166889D01*
X190118Y143701D02*
Y155354D01*
X187425Y158047D02*
X190118Y155354D01*
X113091Y156233D02*
Y166890D01*
X113091Y166890D02*
X113091Y166890D01*
X108091Y156889D02*
Y156890D01*
D14*
X175492Y236741D02*
X176645Y237894D01*
X214783D01*
X175492Y232283D02*
Y236741D01*
X257804Y233692D02*
Y236741D01*
X256651Y237894D02*
X257804Y236741D01*
X214783Y237894D02*
X256651D01*
X214783Y221358D02*
Y237894D01*
X257874Y210984D02*
X260197Y208661D01*
X195882Y241126D02*
X220457D01*
X193287Y243721D02*
X195882Y241126D01*
X220457D02*
X223010Y243680D01*
X198386Y244748D02*
Y247441D01*
X199539Y243595D02*
X213398D01*
X215551Y245748D01*
X198386Y244748D02*
X199539Y243595D01*
X202134Y273091D02*
X203287Y271937D01*
X192461Y273091D02*
X202134D01*
X186855Y278696D02*
X192461Y273091D01*
X203287Y268209D02*
Y271937D01*
X203386Y264933D02*
Y268209D01*
X212116Y263779D02*
X217037Y268701D01*
X204539Y263779D02*
X212116D01*
X203386Y264933D02*
X204539Y263779D01*
X214783Y216752D02*
Y221358D01*
X257804Y233692D02*
X260197Y231299D01*
X198287Y247539D02*
X198386Y247441D01*
X198287Y247539D02*
Y261024D01*
X206594Y278740D02*
X222933D01*
X330413Y289370D02*
X331102Y288681D01*
Y278346D02*
Y288681D01*
Y278346D02*
X331890Y277559D01*
X324311Y288386D02*
X325098Y289173D01*
X312008Y288386D02*
X324311D01*
X325098Y289173D02*
Y289370D01*
X307087Y220079D02*
X308268Y218898D01*
X307087Y220079D02*
Y233858D01*
X308268Y218898D02*
X319291D01*
X320550Y220156D02*
Y225077D01*
X323228Y227756D01*
X319291Y218898D02*
X320550Y220156D01*
X303937Y237008D02*
X307087Y233858D01*
X278996Y237008D02*
X303937D01*
X277843Y233692D02*
Y235855D01*
X278996Y237008D01*
X275451Y231299D02*
X277843Y233692D01*
X300787Y227756D02*
Y231918D01*
X288386Y232292D02*
X289164Y233071D01*
X302165Y218373D02*
Y226378D01*
X299634Y233071D02*
X300787Y231918D01*
X289164Y233071D02*
X299634D01*
X300787Y227756D02*
X302165Y226378D01*
X275451Y209646D02*
X277525Y207571D01*
X291363D01*
X302165Y218373D01*
X323228Y231913D02*
X324381Y233066D01*
X334856D02*
X335630Y232292D01*
X323228Y227756D02*
Y231913D01*
X324381Y233066D02*
X334856D01*
X201379Y296655D02*
X237991D01*
X243110Y287106D02*
Y291535D01*
X237991Y296655D02*
X243110Y291535D01*
X194980Y290256D02*
X201379Y296655D01*
X194980Y286221D02*
Y290256D01*
X203635Y294186D02*
X227095D01*
X200787Y291339D02*
X203635Y294186D01*
X200787Y280512D02*
Y291339D01*
X229035Y279528D02*
Y290354D01*
X227095Y294186D02*
X228248Y293033D01*
Y291142D02*
Y293033D01*
Y291142D02*
X229035Y290354D01*
X250197Y281102D02*
X250984Y280315D01*
X243799Y281102D02*
X250197D01*
X243110Y281791D02*
X243799Y281102D01*
X153523Y247047D02*
X175492D01*
X139683Y260886D02*
X153523Y247047D01*
X139683Y260886D02*
Y262718D01*
X138779Y263622D02*
X139683Y262718D01*
X182087Y274606D02*
X187008Y269685D01*
X154764Y274606D02*
X182087D01*
X148779Y268622D02*
X154764Y274606D01*
X187008Y264961D02*
Y269685D01*
X175345Y258022D02*
Y268553D01*
X175197Y268701D02*
X175345Y268553D01*
Y258022D02*
X175492Y257874D01*
X187992D02*
X193287Y252579D01*
Y243721D02*
Y247539D01*
X180807Y257874D02*
X187992D01*
X193287Y247539D02*
Y252579D01*
X187008Y264961D02*
X190945Y261024D01*
X198287D02*
Y268209D01*
X190945Y261024D02*
X198287D01*
X206594Y282480D02*
X220472D01*
X203268Y247559D02*
X203287Y247539D01*
X203268Y247559D02*
Y252343D01*
X203248Y252362D02*
X203268Y252343D01*
X208287Y247539D02*
Y255532D01*
X216043Y263287D01*
X207677Y278740D02*
X208287Y278130D01*
X206594Y278740D02*
X207677D01*
X208287Y268209D02*
Y278130D01*
X194980Y278740D02*
X199016D01*
X200787Y280512D01*
X186855Y278696D02*
Y287554D01*
X180807Y290354D02*
X181130Y290031D01*
X184378D02*
X186855Y287554D01*
X181130Y290031D02*
X184378D01*
X175492Y279528D02*
Y290354D01*
X220472Y282480D02*
X223721Y285728D01*
Y290354D01*
X222933Y278740D02*
X223721Y279528D01*
X206594Y278740D02*
X206594Y278740D01*
X217037Y268701D02*
X223721D01*
X229035Y263287D02*
Y268701D01*
Y257874D02*
Y263287D01*
X216043D02*
X229035D01*
X219488Y257874D02*
X223721D01*
X215551Y253937D02*
X219488Y257874D01*
X215551Y245748D02*
Y253937D01*
X223010Y246337D02*
X223721Y247047D01*
X223010Y243680D02*
Y246337D01*
X203366Y200000D02*
Y205335D01*
X214783Y216752D01*
X188366Y221260D02*
Y223031D01*
X176181Y223228D02*
X188169D01*
X188366Y223031D01*
X175492Y232283D02*
X175837Y231939D01*
Y223573D02*
Y231939D01*
Y223573D02*
X176181Y223228D01*
X257874Y228977D02*
X260197Y231299D01*
X257874Y210984D02*
Y228977D01*
X229035Y268701D02*
Y279528D01*
Y247047D02*
Y257874D01*
X288386Y250984D02*
Y273622D01*
X292323Y277559D01*
X310855D01*
X229035Y247047D02*
X284449D01*
X288386Y250984D01*
X310855Y277559D02*
X312008Y278712D01*
Y288386D01*
X288386Y219685D02*
Y226977D01*
X335630Y219685D02*
Y226977D01*
D17*
X275451Y231299D02*
D03*
X260197D02*
D03*
X275451Y209646D02*
D03*
X260197D02*
D03*
D21*
X321850Y204724D02*
D03*
Y226378D02*
D03*
X302165D02*
D03*
Y204724D02*
D03*
X312008D02*
D03*
Y226378D02*
D03*
D22*
X188366Y221260D02*
D03*
X193366D02*
D03*
X198366D02*
D03*
X203366D02*
D03*
Y200000D02*
D03*
X198366D02*
D03*
X193366D02*
D03*
X188366D02*
D03*
D29*
X302165Y266732D02*
D03*
X292323Y288386D02*
D03*
X312008D02*
D03*
D38*
X223721Y279528D02*
D03*
X229035D02*
D03*
X175492Y268701D02*
D03*
X180807D02*
D03*
X175492Y247047D02*
D03*
X180807D02*
D03*
X229035Y290354D02*
D03*
X223721D02*
D03*
X229035Y247047D02*
D03*
X223721D02*
D03*
X229035Y257874D02*
D03*
X223721D02*
D03*
X229035Y268701D02*
D03*
X223721D02*
D03*
X228051Y232283D02*
D03*
X222736D02*
D03*
X175492Y257874D02*
D03*
X180807D02*
D03*
Y279528D02*
D03*
X175492D02*
D03*
Y290354D02*
D03*
X180807D02*
D03*
X193209Y232283D02*
D03*
X198524D02*
D03*
X175492D02*
D03*
X180807D02*
D03*
X248721Y178150D02*
D03*
X243406D02*
D03*
X222441D02*
D03*
X227756D02*
D03*
X330413Y289370D02*
D03*
X325098D02*
D03*
D39*
X335630Y226977D02*
D03*
Y232292D02*
D03*
X288386Y232292D02*
D03*
Y226977D02*
D03*
X243110Y287106D02*
D03*
Y281791D02*
D03*
D40*
X206594Y278740D02*
D03*
Y282480D02*
D03*
Y286221D02*
D03*
X194980D02*
D03*
Y278740D02*
D03*
D41*
X250984Y288583D02*
D03*
Y280315D02*
D03*
X335630Y211417D02*
D03*
Y219685D02*
D03*
X288386Y219685D02*
D03*
Y211417D02*
D03*
D42*
X249783Y221358D02*
D03*
X244783D02*
D03*
X239783D02*
D03*
X234783D02*
D03*
X229783D02*
D03*
X224783D02*
D03*
X219783D02*
D03*
X214783D02*
D03*
X249783Y199902D02*
D03*
X244783D02*
D03*
X239783D02*
D03*
X234783D02*
D03*
X229783D02*
D03*
X224783D02*
D03*
X219783D02*
D03*
X214783D02*
D03*
D43*
X385827Y185433D02*
D03*
D44*
X176181Y199508D02*
D03*
Y206004D02*
D03*
D45*
Y217520D02*
D03*
Y223228D02*
D03*
D46*
X385827Y269685D02*
D03*
D47*
X226181Y163386D02*
D03*
X234449D02*
D03*
X271457Y94488D02*
D03*
X279724D02*
D03*
X271457Y104331D02*
D03*
X279724D02*
D03*
X271457Y114173D02*
D03*
X279724D02*
D03*
X271457Y124016D02*
D03*
X279724D02*
D03*
X226181Y153543D02*
D03*
X234449D02*
D03*
X271457D02*
D03*
X279724D02*
D03*
X271457Y143701D02*
D03*
X279724D02*
D03*
X271457Y163386D02*
D03*
X279724D02*
D03*
X226181Y94488D02*
D03*
X234449D02*
D03*
X226181Y104331D02*
D03*
X234449D02*
D03*
X226181Y124016D02*
D03*
X234449D02*
D03*
X226181Y114173D02*
D03*
X234449D02*
D03*
X271457Y133858D02*
D03*
X279724D02*
D03*
X226181Y143701D02*
D03*
X234449D02*
D03*
X226181Y133858D02*
D03*
X234449D02*
D03*
X331890Y277559D02*
D03*
X323622D02*
D03*
D48*
X193287Y247539D02*
D03*
X198287D02*
D03*
X203287D02*
D03*
X208287D02*
D03*
X193287Y268209D02*
D03*
X198287D02*
D03*
X203287D02*
D03*
X208287D02*
D03*
D49*
X312008Y269685D02*
X385827D01*
X302165D02*
X312008D01*
Y226378D02*
Y269685D01*
X302165Y266732D02*
Y269685D01*
D50*
X391811Y153701D02*
D03*
X386811Y143701D02*
D03*
X381811Y153701D02*
D03*
X148779Y268622D02*
D03*
X138779Y263622D02*
D03*
X148779Y258622D02*
D03*
X185118Y153701D02*
D03*
X190118Y143701D02*
D03*
X195118Y153701D02*
D03*
D51*
X376811Y143701D02*
D03*
X180118D02*
D03*
D52*
X138779Y273622D02*
D03*
D53*
X290748Y112913D02*
D03*
X352952D02*
D03*
X94489Y113189D02*
D03*
X156693D02*
D03*
D54*
X304350Y156614D02*
D03*
X108091Y156890D02*
D03*
D55*
X309350Y166614D02*
D03*
X314350Y156614D02*
D03*
X319350Y166614D02*
D03*
X324350Y156614D02*
D03*
X329350Y166614D02*
D03*
X334350Y156614D02*
D03*
X339350Y166614D02*
D03*
X113091Y166890D02*
D03*
X118091Y156890D02*
D03*
X123091Y166890D02*
D03*
X128091Y156890D02*
D03*
X133091Y166890D02*
D03*
X138091Y156890D02*
D03*
X143091Y166890D02*
D03*
D56*
X410000Y271969D02*
D03*
X415000Y261968D02*
D03*
X410000Y251969D02*
D03*
X415000Y241968D02*
D03*
X410000Y231968D02*
D03*
X415000Y221969D02*
D03*
X410000Y211968D02*
D03*
X415000Y201969D02*
D03*
X410000Y191969D02*
D03*
X415000Y181968D02*
D03*
X410000Y171968D02*
D03*
X415000Y161969D02*
D03*
X410000Y151969D02*
D03*
X415000Y141969D02*
D03*
X410000Y131968D02*
D03*
X415000Y121968D02*
D03*
X410000Y111969D02*
D03*
X415000Y101969D02*
D03*
X410000Y91969D02*
D03*
X400000Y271969D02*
D03*
X405000Y261968D02*
D03*
X400000Y251969D02*
D03*
X405000Y241968D02*
D03*
X400000Y231968D02*
D03*
X405000Y221969D02*
D03*
X400000Y211968D02*
D03*
X405000Y201969D02*
D03*
X400000Y191969D02*
D03*
X405000Y181968D02*
D03*
X400000Y171968D02*
D03*
X405000Y161969D02*
D03*
X400000Y151969D02*
D03*
X405000Y141969D02*
D03*
X400000Y131968D02*
D03*
X405000Y101969D02*
D03*
X400000Y91969D02*
D03*
X390000Y291968D02*
D03*
X395000Y261968D02*
D03*
X390000Y251969D02*
D03*
X395000Y241968D02*
D03*
X390000Y231968D02*
D03*
X395000Y221969D02*
D03*
X390000Y211968D02*
D03*
X395000Y201969D02*
D03*
Y181968D02*
D03*
X390000Y171968D02*
D03*
X395000Y161969D02*
D03*
Y141969D02*
D03*
X390000Y131968D02*
D03*
Y111969D02*
D03*
X395000Y101969D02*
D03*
X390000Y91969D02*
D03*
X380000Y291968D02*
D03*
X385000Y281968D02*
D03*
Y261968D02*
D03*
X380000Y251969D02*
D03*
X385000Y241968D02*
D03*
X380000Y231968D02*
D03*
X385000Y221969D02*
D03*
X380000Y211968D02*
D03*
X385000Y201969D02*
D03*
X380000Y171968D02*
D03*
Y131968D02*
D03*
X385000Y121968D02*
D03*
X380000Y111969D02*
D03*
X385000Y101969D02*
D03*
X380000Y91969D02*
D03*
X370000Y291968D02*
D03*
X375000Y281968D02*
D03*
Y261968D02*
D03*
X370000Y251969D02*
D03*
X375000Y241968D02*
D03*
X370000Y231968D02*
D03*
X375000Y221969D02*
D03*
X370000Y211968D02*
D03*
X375000Y201969D02*
D03*
X370000Y191969D02*
D03*
X375000Y181968D02*
D03*
X370000Y171968D02*
D03*
X375000Y161969D02*
D03*
X370000Y131968D02*
D03*
X375000Y101969D02*
D03*
X370000Y91969D02*
D03*
X360000Y291968D02*
D03*
X365000Y281968D02*
D03*
Y261968D02*
D03*
X360000Y251969D02*
D03*
X365000Y241968D02*
D03*
X360000Y231968D02*
D03*
X365000Y221969D02*
D03*
X360000Y211968D02*
D03*
X365000Y201969D02*
D03*
X360000Y191969D02*
D03*
X365000Y181968D02*
D03*
X360000Y171968D02*
D03*
X365000Y161969D02*
D03*
X360000Y131968D02*
D03*
Y111969D02*
D03*
X365000Y101969D02*
D03*
X360000Y91969D02*
D03*
X350000Y291968D02*
D03*
X355000Y281968D02*
D03*
Y261968D02*
D03*
X350000Y251969D02*
D03*
X355000Y241968D02*
D03*
X350000Y231968D02*
D03*
X355000Y221969D02*
D03*
X350000Y211968D02*
D03*
X355000Y201969D02*
D03*
X350000Y191969D02*
D03*
X355000Y181968D02*
D03*
X350000Y171968D02*
D03*
X355000Y161969D02*
D03*
Y121968D02*
D03*
Y101969D02*
D03*
X350000Y91969D02*
D03*
X340000Y291968D02*
D03*
X345000Y281968D02*
D03*
Y261968D02*
D03*
X340000Y251969D02*
D03*
X345000Y241968D02*
D03*
X340000Y231968D02*
D03*
X345000Y221969D02*
D03*
X340000Y211968D02*
D03*
X345000Y201969D02*
D03*
X340000Y191969D02*
D03*
X345000Y181968D02*
D03*
X340000Y171968D02*
D03*
X345000Y161969D02*
D03*
Y121968D02*
D03*
X340000Y111969D02*
D03*
X345000Y101969D02*
D03*
X340000Y91969D02*
D03*
X335000Y281968D02*
D03*
Y261968D02*
D03*
X330000Y251969D02*
D03*
X335000Y241968D02*
D03*
X330000Y211968D02*
D03*
X335000Y201969D02*
D03*
X330000Y191969D02*
D03*
X335000Y181968D02*
D03*
X330000Y131968D02*
D03*
X335000Y121968D02*
D03*
X330000Y111969D02*
D03*
X335000Y101969D02*
D03*
X330000Y91969D02*
D03*
X320000Y291968D02*
D03*
X325000Y281968D02*
D03*
Y261968D02*
D03*
X320000Y251969D02*
D03*
X325000Y241968D02*
D03*
X320000Y211968D02*
D03*
Y191969D02*
D03*
Y131968D02*
D03*
X325000Y121968D02*
D03*
X320000Y111969D02*
D03*
X325000Y101969D02*
D03*
X320000Y91969D02*
D03*
X315000Y281968D02*
D03*
X310000Y191969D02*
D03*
X315000Y141969D02*
D03*
X310000Y131968D02*
D03*
X315000Y121968D02*
D03*
X310000Y111969D02*
D03*
X315000Y101969D02*
D03*
X310000Y91969D02*
D03*
X300000Y291968D02*
D03*
X305000Y281968D02*
D03*
X300000Y251969D02*
D03*
X305000Y241968D02*
D03*
X300000Y191969D02*
D03*
X305000Y161969D02*
D03*
X300000Y151969D02*
D03*
X305000Y141969D02*
D03*
Y121968D02*
D03*
X300000Y111969D02*
D03*
X305000Y101969D02*
D03*
X300000Y91969D02*
D03*
X295000Y281968D02*
D03*
Y261968D02*
D03*
Y241968D02*
D03*
Y221969D02*
D03*
X290000Y191969D02*
D03*
X295000Y161969D02*
D03*
X290000Y151969D02*
D03*
X295000Y141969D02*
D03*
X290000Y131968D02*
D03*
X295000Y121968D02*
D03*
Y101969D02*
D03*
X290000Y91969D02*
D03*
X280000Y291968D02*
D03*
X285000Y281968D02*
D03*
X280000Y271969D02*
D03*
X285000Y261968D02*
D03*
X280000Y251969D02*
D03*
X285000Y241968D02*
D03*
X280000Y191969D02*
D03*
X285000Y161969D02*
D03*
Y141969D02*
D03*
Y121968D02*
D03*
Y101969D02*
D03*
X270000Y291968D02*
D03*
X275000Y281968D02*
D03*
X270000Y271969D02*
D03*
X275000Y261968D02*
D03*
X270000Y251969D02*
D03*
X275000Y241968D02*
D03*
X270000Y231968D02*
D03*
X275000Y221969D02*
D03*
X270000Y211968D02*
D03*
Y191969D02*
D03*
X260000Y291968D02*
D03*
X265000Y281968D02*
D03*
X260000Y271969D02*
D03*
X265000Y261968D02*
D03*
X260000Y251969D02*
D03*
X265000Y241968D02*
D03*
Y221969D02*
D03*
X260000Y191969D02*
D03*
Y131968D02*
D03*
Y111969D02*
D03*
X255000Y281968D02*
D03*
X250000Y271969D02*
D03*
X255000Y261968D02*
D03*
X250000Y251969D02*
D03*
X255000Y241968D02*
D03*
X250000Y231968D02*
D03*
Y191969D02*
D03*
X255000Y181968D02*
D03*
X250000Y111969D02*
D03*
X255000Y101969D02*
D03*
X240000Y271969D02*
D03*
X245000Y261968D02*
D03*
X240000Y251969D02*
D03*
X245000Y241968D02*
D03*
X240000Y231968D02*
D03*
Y211968D02*
D03*
Y191969D02*
D03*
X245000Y181968D02*
D03*
X240000Y171968D02*
D03*
Y151969D02*
D03*
Y131968D02*
D03*
Y111969D02*
D03*
Y91969D02*
D03*
X235000Y281968D02*
D03*
Y261968D02*
D03*
Y241968D02*
D03*
X230000Y211968D02*
D03*
Y171968D02*
D03*
X220000Y271969D02*
D03*
Y251969D02*
D03*
X225000Y241968D02*
D03*
Y181968D02*
D03*
X220000Y91969D02*
D03*
X210000Y231968D02*
D03*
Y191969D02*
D03*
X215000Y121968D02*
D03*
Y101969D02*
D03*
X210000Y91969D02*
D03*
X200000Y151969D02*
D03*
X205000Y141969D02*
D03*
X200000Y131968D02*
D03*
X205000Y101969D02*
D03*
X200000Y91969D02*
D03*
X190000Y291968D02*
D03*
X195000Y281968D02*
D03*
X190000Y251969D02*
D03*
Y211968D02*
D03*
X195000Y141969D02*
D03*
X190000Y131968D02*
D03*
X195000Y121968D02*
D03*
X190000Y111969D02*
D03*
X195000Y101969D02*
D03*
X190000Y91969D02*
D03*
X185000Y261968D02*
D03*
X180000Y251969D02*
D03*
X185000Y241968D02*
D03*
X180000Y211968D02*
D03*
X185000Y201969D02*
D03*
X180000Y131968D02*
D03*
X185000Y121968D02*
D03*
X180000Y111969D02*
D03*
X185000Y101969D02*
D03*
X180000Y91969D02*
D03*
X170000Y291968D02*
D03*
Y271969D02*
D03*
Y251969D02*
D03*
X175000Y241968D02*
D03*
X170000Y231968D02*
D03*
Y211968D02*
D03*
Y131968D02*
D03*
X175000Y101969D02*
D03*
X170000Y91969D02*
D03*
X160000Y291968D02*
D03*
X165000Y281968D02*
D03*
X160000Y271969D02*
D03*
X165000Y261968D02*
D03*
X160000Y251969D02*
D03*
X165000Y241968D02*
D03*
X160000Y231968D02*
D03*
X165000Y221969D02*
D03*
X160000Y211968D02*
D03*
X165000Y201969D02*
D03*
X160000Y131968D02*
D03*
X165000Y121968D02*
D03*
Y101969D02*
D03*
X160000Y91969D02*
D03*
X150000Y291968D02*
D03*
X155000Y281968D02*
D03*
Y261968D02*
D03*
Y241968D02*
D03*
X150000Y231968D02*
D03*
X155000Y221969D02*
D03*
X150000Y211968D02*
D03*
X155000Y201969D02*
D03*
Y121968D02*
D03*
X150000Y111969D02*
D03*
X155000Y101969D02*
D03*
X150000Y91969D02*
D03*
X140000Y291968D02*
D03*
X145000Y281968D02*
D03*
Y261968D02*
D03*
X140000Y251969D02*
D03*
X145000Y241968D02*
D03*
X140000Y231968D02*
D03*
X145000Y221969D02*
D03*
X140000Y211968D02*
D03*
X145000Y201969D02*
D03*
X140000Y131968D02*
D03*
X145000Y121968D02*
D03*
X140000Y111969D02*
D03*
X145000Y101969D02*
D03*
X140000Y91969D02*
D03*
X130000Y291968D02*
D03*
X135000Y281968D02*
D03*
X130000Y271969D02*
D03*
Y251969D02*
D03*
X135000Y241968D02*
D03*
X130000Y231968D02*
D03*
X135000Y221969D02*
D03*
X130000Y211968D02*
D03*
X135000Y201969D02*
D03*
X130000Y131968D02*
D03*
X135000Y121968D02*
D03*
X130000Y111969D02*
D03*
X135000Y101969D02*
D03*
X130000Y91969D02*
D03*
X120000Y291968D02*
D03*
X125000Y281968D02*
D03*
X120000Y271969D02*
D03*
X125000Y261968D02*
D03*
Y241968D02*
D03*
X120000Y231968D02*
D03*
X125000Y221969D02*
D03*
X120000Y211968D02*
D03*
X125000Y201969D02*
D03*
X120000Y191969D02*
D03*
Y131968D02*
D03*
X125000Y121968D02*
D03*
X120000Y111969D02*
D03*
X125000Y101969D02*
D03*
X120000Y91969D02*
D03*
X110000Y291968D02*
D03*
Y271969D02*
D03*
X115000Y261968D02*
D03*
Y241968D02*
D03*
X110000Y231968D02*
D03*
X115000Y221969D02*
D03*
X110000Y211968D02*
D03*
X115000Y201969D02*
D03*
X110000Y191969D02*
D03*
X115000Y181968D02*
D03*
X110000Y151969D02*
D03*
X115000Y141969D02*
D03*
Y121968D02*
D03*
X110000Y111969D02*
D03*
X115000Y101969D02*
D03*
X110000Y91969D02*
D03*
X100000Y291968D02*
D03*
X105000Y281968D02*
D03*
X100000Y271969D02*
D03*
X105000Y261968D02*
D03*
X100000Y251969D02*
D03*
X105000Y241968D02*
D03*
X100000Y231968D02*
D03*
X105000Y221969D02*
D03*
X100000Y211968D02*
D03*
X105000Y201969D02*
D03*
X100000Y191969D02*
D03*
X105000Y181968D02*
D03*
X100000Y171968D02*
D03*
X105000Y161969D02*
D03*
X100000Y151969D02*
D03*
X105000Y141969D02*
D03*
Y121968D02*
D03*
X100000Y111969D02*
D03*
X105000Y101969D02*
D03*
X100000Y91969D02*
D03*
X90000Y291968D02*
D03*
X95000Y281968D02*
D03*
X90000Y271969D02*
D03*
X95000Y261968D02*
D03*
X90000Y251969D02*
D03*
X95000Y241968D02*
D03*
X90000Y231968D02*
D03*
X95000Y221969D02*
D03*
X90000Y211968D02*
D03*
X95000Y201969D02*
D03*
X90000Y191969D02*
D03*
X95000Y181968D02*
D03*
X90000Y171968D02*
D03*
X95000Y161969D02*
D03*
X90000Y151969D02*
D03*
X95000Y141969D02*
D03*
X90000Y131968D02*
D03*
X95000Y121968D02*
D03*
X90000Y111969D02*
D03*
X95000Y101969D02*
D03*
X90000Y91969D02*
D03*
D57*
X203248Y252362D02*
D03*
X212500Y282500D02*
D03*
X244882Y216240D02*
D03*
X219783Y205079D02*
D03*
X244783Y195079D02*
D03*
X239784D02*
D03*
X234784D02*
D03*
X229784D02*
D03*
X224783D02*
D03*
X214784D02*
D03*
D58*
X405512Y286417D02*
D03*
M02*
