G04*
G04 #@! TF.GenerationSoftware,Altium Limited,Altium Designer,22.6.1 (34)*
G04*
G04 Layer_Color=65535*
%FSLAX25Y25*%
%MOIN*%
G70*
G04*
G04 #@! TF.SameCoordinates,5978FB97-4CE2-4F40-84F9-A025567A3837*
G04*
G04*
G04 #@! TF.FilePolarity,Positive*
G04*
G01*
G75*
%ADD10C,0.01000*%
%ADD11C,0.00984*%
%ADD12C,0.02362*%
%ADD13C,0.00787*%
%ADD14C,0.01968*%
%ADD15C,0.00591*%
D10*
X119095Y209646D02*
X118831Y210630D01*
X118110Y211350D01*
X117126Y211614D01*
Y180118D02*
X118110Y180382D01*
X118831Y181102D01*
X119095Y182087D01*
X89567Y211614D02*
X88583Y211350D01*
X87862Y210630D01*
X87598Y209646D01*
Y182087D02*
X87862Y181102D01*
X88583Y180382D01*
X89567Y180118D01*
X236221Y249016D02*
X236484Y248031D01*
X237205Y247311D01*
X238189Y247047D01*
X263779Y247047D02*
X264764Y247311D01*
X265484Y248031D01*
X265748Y249016D01*
X265748Y288386D02*
X265484Y289370D01*
X264764Y290091D01*
X263779Y290354D01*
X238189D02*
X237205Y290091D01*
X236484Y289370D01*
X236221Y288386D01*
X222441Y169291D02*
X221457Y169028D01*
X220736Y168307D01*
X220472Y167323D01*
X285433Y167323D02*
X285169Y168307D01*
X284449Y169028D01*
X283465Y169291D01*
Y88583D02*
X284449Y88846D01*
X285169Y89567D01*
X285433Y90551D01*
X220472D02*
X220736Y89567D01*
X221457Y88846D01*
X222441Y88583D01*
X299350Y156264D02*
X298600Y156697D01*
Y155831D01*
X299350Y156264D01*
X103091Y156540D02*
X102341Y156973D01*
Y156107D01*
X103091Y156540D01*
X89567Y180118D02*
X117126D01*
X89567Y211614D02*
X117126D01*
X119095Y182087D02*
Y209646D01*
X87598Y182087D02*
Y209646D01*
X95472Y199803D02*
X111221D01*
X91535Y207677D02*
X115157D01*
X91535Y191929D02*
Y207677D01*
Y191929D02*
X95472D01*
Y199803D02*
Y207677D01*
Y187992D02*
Y191929D01*
Y187992D02*
X99409D01*
Y199803D02*
Y207677D01*
X103347Y199803D02*
Y207677D01*
X107283Y199803D02*
Y207677D01*
Y187992D02*
X111221D01*
Y199803D02*
Y207677D01*
Y187992D02*
Y191929D01*
X115157D01*
Y207677D01*
X99409Y184055D02*
X107283D01*
Y187992D01*
X99409Y184055D02*
Y187992D01*
X236221Y249016D02*
Y288386D01*
X289173Y196063D02*
X334449D01*
X265748Y249016D02*
Y288386D01*
X406319Y87992D02*
Y159252D01*
X362305D02*
X406319D01*
X362303Y87992D02*
Y159252D01*
Y87992D02*
X364767D01*
X406319D01*
X311811Y193110D02*
Y196063D01*
X334449Y193110D02*
Y196063D01*
X289173Y193110D02*
Y196063D01*
X238189Y247047D02*
X263779D01*
X255906Y290354D02*
X263779D01*
X238189Y290354D02*
X246063D01*
X262795Y169291D02*
X272638D01*
X233268D02*
X241142D01*
X278543D02*
X283465D01*
X222441Y169291D02*
X226378D01*
X257382Y166831D02*
X259842Y169291D01*
X257382Y171752D02*
X259842Y169291D01*
X244094D02*
X258858D01*
X285433Y90551D02*
Y167323D01*
X220472Y136811D02*
Y167323D01*
Y98425D02*
Y129921D01*
X222441Y88583D02*
X283465D01*
X319291Y256890D02*
Y259842D01*
X284842Y256890D02*
Y259842D01*
X319291D01*
X362205Y171260D02*
X405512D01*
X165354D02*
X208661D01*
X219004Y131299D02*
X221366Y133661D01*
X219004Y131299D02*
Y136024D01*
X221366Y133661D01*
X219398Y91929D02*
X221760Y94291D01*
X219398Y91929D02*
Y96653D01*
X221760Y94291D01*
X255906Y94488D02*
X270669D01*
X255906Y104331D02*
X270669D01*
X255906Y124011D02*
X270669D01*
X255906Y114168D02*
X270669D01*
X255906Y153539D02*
X270669D01*
X255906Y163381D02*
X270669D01*
X255906Y143701D02*
X270669D01*
X255906Y133858D02*
X270669D01*
X235236Y124016D02*
X250000D01*
X235236Y114173D02*
X250000D01*
X235236Y94493D02*
X250000D01*
X235236Y104335D02*
X250000D01*
X235236Y143706D02*
X250000D01*
X235236Y133863D02*
X250000D01*
X235236Y153543D02*
X250000D01*
X235236Y163386D02*
X250000D01*
X87303Y240453D02*
X353051D01*
X83070Y244114D02*
Y285666D01*
Y288130D01*
X154330D01*
Y244114D02*
Y288128D01*
X83070Y244114D02*
X154330D01*
X290354Y171575D02*
X353346D01*
X290354Y87717D02*
X353346D01*
X290354Y118527D02*
Y171575D01*
Y87717D02*
Y107300D01*
X353346Y118527D02*
Y171575D01*
Y87717D02*
Y107300D01*
X168074Y87992D02*
X209626D01*
X165610D02*
X168074D01*
X165610D02*
Y159252D01*
X165612D02*
X209626D01*
X209626Y87992D02*
Y159252D01*
X94095Y171850D02*
X157087D01*
X94095Y87992D02*
X157087D01*
X94095Y118802D02*
Y171850D01*
Y87992D02*
Y107576D01*
X157087Y118802D02*
Y171850D01*
Y87992D02*
Y107576D01*
X122063Y195130D02*
X123375D01*
X122719D01*
Y191194D01*
X122063D01*
X123375D01*
X125343D02*
Y193818D01*
X127311D01*
X127967Y193162D01*
Y191194D01*
X129279D02*
X131246D01*
X131902Y191850D01*
X131246Y192506D01*
X129935D01*
X129279Y193162D01*
X129935Y193818D01*
X131902D01*
X133870Y194474D02*
Y193818D01*
X133214D01*
X134526D01*
X133870D01*
Y191850D01*
X134526Y191194D01*
X136494Y193818D02*
Y191194D01*
Y192506D01*
X137150Y193162D01*
X137806Y193818D01*
X138462D01*
X140430D02*
Y191850D01*
X141086Y191194D01*
X143054D01*
Y193818D01*
X146989D02*
X145021D01*
X144366Y193162D01*
Y191850D01*
X145021Y191194D01*
X146989D01*
X148957Y194474D02*
Y193818D01*
X148301D01*
X149613D01*
X148957D01*
Y191850D01*
X149613Y191194D01*
X151581D02*
X152893D01*
X152237D01*
Y193818D01*
X151581D01*
X155517Y191194D02*
X156829D01*
X157485Y191850D01*
Y193162D01*
X156829Y193818D01*
X155517D01*
X154861Y193162D01*
Y191850D01*
X155517Y191194D01*
X158797D02*
Y193818D01*
X160765D01*
X161420Y193162D01*
Y191194D01*
X162732D02*
X164700D01*
X165356Y191850D01*
X164700Y192506D01*
X163388D01*
X162732Y193162D01*
X163388Y193818D01*
X165356D01*
X122719Y184071D02*
X124031D01*
X124687Y184727D01*
Y186039D01*
X124031Y186695D01*
X122719D01*
X122063Y186039D01*
Y184727D01*
X122719Y184071D01*
X125999D02*
Y186695D01*
X127967D01*
X128623Y186039D01*
Y184071D01*
X134526Y187351D02*
Y186695D01*
X133870D01*
X135182D01*
X134526D01*
Y184727D01*
X135182Y184071D01*
X137150Y188007D02*
Y184071D01*
Y186039D01*
X137806Y186695D01*
X139118D01*
X139774Y186039D01*
Y184071D01*
X143054D02*
X141742D01*
X141086Y184727D01*
Y186039D01*
X141742Y186695D01*
X143054D01*
X143710Y186039D01*
Y185383D01*
X141086D01*
X148957Y188007D02*
Y184071D01*
X150925D01*
X151581Y184727D01*
Y185383D01*
Y186039D01*
X150925Y186695D01*
X148957D01*
X153549D02*
X154861D01*
X155517Y186039D01*
Y184071D01*
X153549D01*
X152893Y184727D01*
X153549Y185383D01*
X155517D01*
X159452Y186695D02*
X157485D01*
X156829Y186039D01*
Y184727D01*
X157485Y184071D01*
X159452D01*
X160765D02*
Y188007D01*
Y185383D02*
X162732Y186695D01*
X160765Y185383D02*
X162732Y184071D01*
X243769Y270057D02*
Y273992D01*
X245737D01*
X246392Y273337D01*
Y272025D01*
X245737Y271369D01*
X243769D01*
X245081D02*
X246392Y270057D01*
X250328D02*
X247705D01*
X250328Y272681D01*
Y273337D01*
X249672Y273992D01*
X248360D01*
X247705Y273337D01*
X252296Y269401D02*
X252952Y270057D01*
Y270713D01*
X252296D01*
Y270057D01*
X252952D01*
X252296Y269401D01*
X251640Y268745D01*
X255576Y273337D02*
X256232Y273992D01*
X257544D01*
X258200Y273337D01*
Y272681D01*
X257544Y272025D01*
X256888D01*
X257544D01*
X258200Y271369D01*
Y270713D01*
X257544Y270057D01*
X256232D01*
X255576Y270713D01*
X249672Y265558D02*
X252296D01*
X249672Y266870D02*
X252296D01*
X246065Y258123D02*
X247376D01*
X246721D01*
Y262059D01*
X246065Y261403D01*
X251968Y258123D02*
X249344D01*
X251968Y260747D01*
Y261403D01*
X251312Y262059D01*
X250000D01*
X249344Y261403D01*
X253280D02*
X253936Y262059D01*
X255248D01*
X255904Y261403D01*
Y258779D01*
X255248Y258123D01*
X253936D01*
X253280Y258779D01*
Y261403D01*
X247705Y254936D02*
X246393D01*
X245737Y254280D01*
Y251656D01*
X246393Y251000D01*
X247705D01*
X248360Y251656D01*
Y254280D01*
X247705Y254936D01*
X249672D02*
Y251000D01*
Y252968D01*
X250328Y253624D01*
X251640D01*
X252296Y252968D01*
Y251000D01*
X253608D02*
Y253624D01*
X254264D01*
X254920Y252968D01*
Y251000D01*
Y252968D01*
X255576Y253624D01*
X256232Y252968D01*
Y251000D01*
X96488Y193717D02*
X97800D01*
X97144D01*
Y197652D01*
X96488Y196996D01*
X102392Y193717D02*
X99768D01*
X102392Y196340D01*
Y196996D01*
X101736Y197652D01*
X100424D01*
X99768Y196996D01*
X103704D02*
X104360Y197652D01*
X105672D01*
X106327Y196996D01*
Y196340D01*
X105672Y195684D01*
X105016D01*
X105672D01*
X106327Y195028D01*
Y194372D01*
X105672Y193717D01*
X104360D01*
X103704Y194372D01*
X107639Y193717D02*
Y194372D01*
X108295D01*
Y193717D01*
X107639D01*
X110919D02*
Y194372D01*
X111575D01*
Y193717D01*
X110919D01*
X88599Y220618D02*
Y216682D01*
Y218650D01*
X91222D01*
Y220618D01*
Y216682D01*
X92534Y220618D02*
Y216682D01*
Y217994D01*
X95158Y220618D01*
X93190Y218650D01*
X95158Y216682D01*
X96470Y220618D02*
Y217338D01*
X97126Y216682D01*
X98438D01*
X99094Y217338D01*
Y220618D01*
X104341Y216682D02*
Y220618D01*
X106309D01*
X106965Y219962D01*
Y218650D01*
X106309Y217994D01*
X104341D01*
X105653D02*
X106965Y216682D01*
X108933D02*
X110245D01*
X110901Y217338D01*
Y218650D01*
X110245Y219306D01*
X108933D01*
X108277Y218650D01*
Y217338D01*
X108933Y216682D01*
X112213Y220618D02*
Y216682D01*
X114181D01*
X114837Y217338D01*
Y217994D01*
Y218650D01*
X114181Y219306D01*
X112213D01*
X116805Y216682D02*
X118117D01*
X118772Y217338D01*
Y218650D01*
X118117Y219306D01*
X116805D01*
X116149Y218650D01*
Y217338D01*
X116805Y216682D01*
X122708Y219306D02*
X120740D01*
X120084Y218650D01*
Y217338D01*
X120740Y216682D01*
X122708D01*
X124676D02*
X125988D01*
X126644Y217338D01*
Y218650D01*
X125988Y219306D01*
X124676D01*
X124020Y218650D01*
Y217338D01*
X124676Y216682D01*
X127956D02*
Y219306D01*
X129924D01*
X130580Y218650D01*
Y216682D01*
X135827Y220618D02*
Y216682D01*
X141731Y220618D02*
Y216682D01*
X143699D01*
X144355Y217338D01*
Y217994D01*
X143699Y218650D01*
X141731D01*
X143699D01*
X144355Y219306D01*
Y219962D01*
X143699Y220618D01*
X141731D01*
X145667Y219306D02*
Y217338D01*
X146323Y216682D01*
X148291D01*
Y216026D01*
X147635Y215370D01*
X146979D01*
X148291Y216682D02*
Y219306D01*
X153538Y220618D02*
X154850D01*
X154194D01*
Y216682D01*
X153538D01*
X154850D01*
X156818D02*
X158130D01*
X157474D01*
Y220618D01*
X156818D01*
X160754Y216682D02*
X162066D01*
X162722Y217338D01*
Y218650D01*
X162066Y219306D01*
X160754D01*
X160098Y218650D01*
Y217338D01*
X160754Y216682D01*
X271667Y183414D02*
X271011Y184070D01*
X269699D01*
X269043Y183414D01*
Y180790D01*
X269699Y180134D01*
X271011D01*
X271667Y180790D01*
X273634Y182758D02*
X274946D01*
X275602Y182102D01*
Y180134D01*
X273634D01*
X272978Y180790D01*
X273634Y181446D01*
X275602D01*
X276914Y184070D02*
Y180134D01*
X278882D01*
X279538Y180790D01*
Y181446D01*
Y182102D01*
X278882Y182758D01*
X276914D01*
X280850Y180134D02*
X282162D01*
X281506D01*
Y184070D01*
X280850D01*
X286098Y180134D02*
X284786D01*
X284130Y180790D01*
Y182102D01*
X284786Y182758D01*
X286098D01*
X286754Y182102D01*
Y181446D01*
X284130D01*
X294625Y183414D02*
X293969Y184070D01*
X292657D01*
X292001Y183414D01*
Y180790D01*
X292657Y180134D01*
X293969D01*
X294625Y180790D01*
X296593Y180134D02*
X297905D01*
X298561Y180790D01*
Y182102D01*
X297905Y182758D01*
X296593D01*
X295937Y182102D01*
Y180790D01*
X296593Y180134D01*
X299873D02*
Y182758D01*
X301840D01*
X302497Y182102D01*
Y180134D01*
X303808D02*
Y182758D01*
X305776D01*
X306432Y182102D01*
Y180134D01*
X309712D02*
X308400D01*
X307744Y180790D01*
Y182102D01*
X308400Y182758D01*
X309712D01*
X310368Y182102D01*
Y181446D01*
X307744D01*
X314304Y182758D02*
X312336D01*
X311680Y182102D01*
Y180790D01*
X312336Y180134D01*
X314304D01*
X316272Y183414D02*
Y182758D01*
X315616D01*
X316928D01*
X316272D01*
Y180790D01*
X316928Y180134D01*
X318895D02*
X320207D01*
X319551D01*
Y182758D01*
X318895D01*
X322831Y180134D02*
X324143D01*
X324799Y180790D01*
Y182102D01*
X324143Y182758D01*
X322831D01*
X322175Y182102D01*
Y180790D01*
X322831Y180134D01*
X326111D02*
Y182758D01*
X328079D01*
X328735Y182102D01*
Y180134D01*
X333982Y184070D02*
X336606D01*
X335294D01*
Y180134D01*
X339886D02*
X338574D01*
X337918Y180790D01*
Y182102D01*
X338574Y182758D01*
X339886D01*
X340542Y182102D01*
Y181446D01*
X337918D01*
X341854Y180134D02*
X343822D01*
X344478Y180790D01*
X343822Y181446D01*
X342510D01*
X341854Y182102D01*
X342510Y182758D01*
X344478D01*
X346446Y183414D02*
Y182758D01*
X345790D01*
X347101D01*
X346446D01*
Y180790D01*
X347101Y180134D01*
X351037D02*
X349725D01*
X349069Y180790D01*
Y182102D01*
X349725Y182758D01*
X351037D01*
X351693Y182102D01*
Y181446D01*
X349069D01*
X353005Y182758D02*
Y180134D01*
Y181446D01*
X353661Y182102D01*
X354317Y182758D01*
X354973D01*
X333137Y187221D02*
Y191156D01*
X331169Y189188D01*
X333793D01*
X335105Y187221D02*
Y191156D01*
X337073D01*
X337729Y190500D01*
Y189188D01*
X337073Y188532D01*
X335105D01*
X285893Y190500D02*
X286549Y191156D01*
X287861D01*
X288517Y190500D01*
Y189844D01*
X287861Y189188D01*
X288517Y188532D01*
Y187876D01*
X287861Y187221D01*
X286549D01*
X285893Y187876D01*
Y188532D01*
X286549Y189188D01*
X285893Y189844D01*
Y190500D01*
X286549Y189188D02*
X287861D01*
X289829Y187221D02*
Y191156D01*
X291797D01*
X292453Y190500D01*
Y189188D01*
X291797Y188532D01*
X289829D01*
X308531Y191156D02*
X307219D01*
X306563Y190500D01*
Y187876D01*
X307219Y187221D01*
X308531D01*
X309187Y187876D01*
Y190500D01*
X308531Y191156D01*
X313123D02*
X310499D01*
Y189188D01*
X311811D01*
X310499D01*
Y187221D01*
X317059Y191156D02*
X314435D01*
Y189188D01*
X315747D01*
X314435D01*
Y187221D01*
X269695Y247062D02*
X272319D01*
X271007D01*
Y243126D01*
X275599D02*
X274287D01*
X273631Y243782D01*
Y245094D01*
X274287Y245750D01*
X275599D01*
X276255Y245094D01*
Y244438D01*
X273631D01*
X277567Y245750D02*
Y243126D01*
Y244438D01*
X278223Y245094D01*
X278879Y245750D01*
X279535D01*
X281502Y243126D02*
Y245750D01*
X282158D01*
X282814Y245094D01*
Y243126D01*
Y245094D01*
X283470Y245750D01*
X284126Y245094D01*
Y243126D01*
X285438D02*
X286750D01*
X286094D01*
Y245750D01*
X285438D01*
X288718Y243126D02*
Y245750D01*
X290686D01*
X291342Y245094D01*
Y243126D01*
X293310Y245750D02*
X294621D01*
X295278Y245094D01*
Y243126D01*
X293310D01*
X292654Y243782D01*
X293310Y244438D01*
X295278D01*
X297245Y246406D02*
Y245750D01*
X296589D01*
X297901D01*
X297245D01*
Y243782D01*
X297901Y243126D01*
X300525D02*
X301837D01*
X302493Y243782D01*
Y245094D01*
X301837Y245750D01*
X300525D01*
X299869Y245094D01*
Y243782D01*
X300525Y243126D01*
X303805Y245750D02*
Y243126D01*
Y244438D01*
X304461Y245094D01*
X305117Y245750D01*
X305773D01*
X311676Y247062D02*
X314300D01*
X312988D01*
Y243126D01*
X317580D02*
X316268D01*
X315612Y243782D01*
Y245094D01*
X316268Y245750D01*
X317580D01*
X318236Y245094D01*
Y244438D01*
X315612D01*
X319548Y243126D02*
X321516D01*
X322172Y243782D01*
X321516Y244438D01*
X320204D01*
X319548Y245094D01*
X320204Y245750D01*
X322172D01*
X324140Y246406D02*
Y245750D01*
X323484D01*
X324796D01*
X324140D01*
Y243782D01*
X324796Y243126D01*
X328731D02*
X327419D01*
X326763Y243782D01*
Y245094D01*
X327419Y245750D01*
X328731D01*
X329387Y245094D01*
Y244438D01*
X326763D01*
X330699Y245750D02*
Y243126D01*
Y244438D01*
X331355Y245094D01*
X332011Y245750D01*
X332667D01*
X283137Y254936D02*
X281826D01*
X281170Y254280D01*
Y251656D01*
X281826Y251000D01*
X283137D01*
X283793Y251656D01*
Y254280D01*
X283137Y254936D01*
X287729D02*
X285105D01*
Y252968D01*
X286417D01*
X285105D01*
Y251000D01*
X291665Y254936D02*
X289041D01*
Y252968D01*
X290353D01*
X289041D01*
Y251000D01*
X318570Y254936D02*
X317258D01*
X316602Y254280D01*
Y251656D01*
X317258Y251000D01*
X318570D01*
X319226Y251656D01*
Y254280D01*
X318570Y254936D01*
X320538Y251000D02*
Y254936D01*
X323162Y251000D01*
Y254936D01*
X166354Y167337D02*
X168978D01*
X167666D01*
Y163402D01*
X170290Y166025D02*
Y163402D01*
Y164714D01*
X170946Y165369D01*
X171602Y166025D01*
X172258D01*
X174882D02*
X176194D01*
X176850Y165369D01*
Y163402D01*
X174882D01*
X174226Y164058D01*
X174882Y164714D01*
X176850D01*
X178162Y163402D02*
Y166025D01*
X180129D01*
X180785Y165369D01*
Y163402D01*
X182097D02*
X184065D01*
X184721Y164058D01*
X184065Y164714D01*
X182753D01*
X182097Y165369D01*
X182753Y166025D01*
X184721D01*
X186033Y163402D02*
Y166025D01*
X186689D01*
X187345Y165369D01*
Y163402D01*
Y165369D01*
X188001Y166025D01*
X188657Y165369D01*
Y163402D01*
X189969D02*
X191281D01*
X190625D01*
Y166025D01*
X189969D01*
X193904Y166681D02*
Y166025D01*
X193249D01*
X194561D01*
X193904D01*
Y164058D01*
X194561Y163402D01*
X363402Y163598D02*
Y167534D01*
X365369D01*
X366025Y166878D01*
Y165566D01*
X365369Y164910D01*
X363402D01*
X364714D02*
X366025Y163598D01*
X369305D02*
X367993D01*
X367337Y164254D01*
Y165566D01*
X367993Y166222D01*
X369305D01*
X369961Y165566D01*
Y164910D01*
X367337D01*
X373897Y166222D02*
X371929D01*
X371273Y165566D01*
Y164254D01*
X371929Y163598D01*
X373897D01*
X377177D02*
X375865D01*
X375209Y164254D01*
Y165566D01*
X375865Y166222D01*
X377177D01*
X377833Y165566D01*
Y164910D01*
X375209D01*
X379145Y163598D02*
X380456D01*
X379801D01*
Y166222D01*
X379145D01*
X382424D02*
X383736Y163598D01*
X385048Y166222D01*
X388328Y163598D02*
X387016D01*
X386360Y164254D01*
Y165566D01*
X387016Y166222D01*
X388328D01*
X388984Y165566D01*
Y164910D01*
X386360D01*
X251641Y106314D02*
X254265D01*
Y105658D01*
X251641Y103034D01*
Y102378D01*
X252297Y161433D02*
X253609D01*
X252953D01*
Y165369D01*
X252297Y164713D01*
X253609Y131905D02*
Y135841D01*
X251641Y133873D01*
X254265D01*
Y151591D02*
X251641D01*
X254265Y154214D01*
Y154870D01*
X253609Y155526D01*
X252297D01*
X251641Y154870D01*
Y145028D02*
X252297Y145684D01*
X253609D01*
X254265Y145028D01*
Y144372D01*
X253609Y143716D01*
X252953D01*
X253609D01*
X254265Y143060D01*
Y142404D01*
X253609Y141748D01*
X252297D01*
X251641Y142404D01*
X254265Y116156D02*
X252953Y115500D01*
X251641Y114188D01*
Y112876D01*
X252297Y112221D01*
X253609D01*
X254265Y112876D01*
Y113532D01*
X253609Y114188D01*
X251641D01*
X254265Y125999D02*
X251641D01*
Y124031D01*
X252953Y124687D01*
X253609D01*
X254265Y124031D01*
Y122719D01*
X253609Y122063D01*
X252297D01*
X251641Y122719D01*
Y95815D02*
X252297Y96471D01*
X253609D01*
X254265Y95815D01*
Y95159D01*
X253609Y94503D01*
X254265Y93847D01*
Y93191D01*
X253609Y92535D01*
X252297D01*
X251641Y93191D01*
Y93847D01*
X252297Y94503D01*
X251641Y95159D01*
Y95815D01*
X252297Y94503D02*
X253609D01*
D11*
X255029Y231299D02*
X254290Y231725D01*
Y230873D01*
X255029Y231299D01*
Y209646D02*
X254290Y210072D01*
Y209220D01*
X255029Y209646D01*
X207087Y275295D02*
X206348Y275722D01*
Y274869D01*
X207087Y275295D01*
X302751Y196949D02*
X302013Y197375D01*
Y196523D01*
X302751Y196949D01*
X188858Y194685D02*
X188120Y195111D01*
Y194259D01*
X188858Y194685D01*
X211929Y199902D02*
X211191Y200328D01*
Y199475D01*
X211929Y199902D01*
X386319Y277756D02*
X385581Y278182D01*
Y277330D01*
X386319Y277756D01*
X312500Y295472D02*
X311762Y295899D01*
Y295046D01*
X312500Y295472D01*
X212028Y268209D02*
X211289Y268635D01*
Y267782D01*
X212028Y268209D01*
D12*
X217717Y208268D02*
X217272Y209191D01*
X216273Y209419D01*
X215471Y208780D01*
Y207755D01*
X216273Y207116D01*
X217272Y207344D01*
X217717Y208268D01*
X207874Y260236D02*
X207429Y261160D01*
X206430Y261388D01*
X205629Y260749D01*
Y259724D01*
X206430Y259085D01*
X207429Y259313D01*
X207874Y260236D01*
D13*
X416531Y250271D02*
X415841Y250931D01*
X415137Y251577D01*
X414419Y252207D01*
X413688Y252821D01*
X412943Y253419D01*
X412186Y254000D01*
X411416Y254565D01*
X355123Y187524D02*
X355846Y186833D01*
X356584Y186158D01*
X357337Y185501D01*
X358106Y184860D01*
X358888Y184238D01*
X359685Y183633D01*
X360495Y183047D01*
X361318Y182479D01*
X362154Y181930D01*
X363002Y181400D01*
X363863Y180890D01*
X364734Y180400D01*
X365617Y179929D01*
X366510Y179479D01*
X367413Y179049D01*
X368325Y178640D01*
X369247Y178252D01*
X370177Y177884D01*
X371115Y177538D01*
X372061Y177214D01*
X373015Y176911D01*
X373974Y176630D01*
X374940Y176371D01*
X375912Y176134D01*
X376889Y175920D01*
X377870Y175727D01*
X378856Y175557D01*
X379845Y175409D01*
X380837Y175285D01*
X381832Y175182D01*
X382829Y175102D01*
X383827Y175046D01*
X384827Y175011D01*
X385827Y175000D01*
X386827Y175011D01*
X387826Y175046D01*
X388825Y175102D01*
X389822Y175182D01*
X390817Y175285D01*
X391809Y175409D01*
X392798Y175557D01*
X393784Y175727D01*
X394765Y175920D01*
X395742Y176134D01*
X396713Y176371D01*
X397679Y176630D01*
X398639Y176911D01*
X399592Y177214D01*
X400538Y177539D01*
X401477Y177884D01*
X402407Y178252D01*
X403329Y178640D01*
X404241Y179049D01*
X405144Y179479D01*
X406037Y179929D01*
X406920Y180400D01*
X407791Y180890D01*
X408651Y181400D01*
X409500Y181930D01*
X410336Y182479D01*
X411159Y183047D01*
X411969Y183633D01*
X412766Y184238D01*
X413548Y184861D01*
X414316Y185501D01*
X415070Y186159D01*
X415808Y186833D01*
X416531Y187524D01*
X360237Y254565D02*
X359468Y254000D01*
X358710Y253419D01*
X357966Y252821D01*
X357235Y252207D01*
X356517Y251577D01*
X355813Y250931D01*
X355123Y250271D01*
X265855Y223819D02*
Y238779D01*
X258828Y237067D02*
Y239055D01*
Y223543D02*
Y225532D01*
Y223543D02*
X276820D01*
Y237067D02*
Y239055D01*
Y223543D02*
Y225532D01*
X258828Y239055D02*
X276820D01*
X265855Y202165D02*
Y217126D01*
X258828Y215413D02*
Y217402D01*
Y201890D02*
Y203878D01*
Y201890D02*
X276820D01*
Y215413D02*
Y217402D01*
Y201890D02*
Y203878D01*
X258828Y217402D02*
X276820D01*
X198819Y276378D02*
X202756D01*
X198819Y288583D02*
X202756D01*
Y276378D02*
Y288583D01*
X198819Y276378D02*
Y288583D01*
X248524Y284248D02*
Y284650D01*
X253445Y284248D02*
Y284650D01*
X338090Y215350D02*
Y215752D01*
X333169Y215350D02*
Y215752D01*
X294291Y222638D02*
X298228D01*
X294291Y208465D02*
Y222638D01*
Y208465D02*
X298228D01*
X325787Y222638D02*
X329724D01*
X325787Y208465D02*
X329724D01*
Y222638D01*
X285925Y215350D02*
Y215752D01*
X290846Y215350D02*
Y215752D01*
X205709Y204528D02*
Y216732D01*
X186024Y204528D02*
Y216732D01*
X251969Y204331D02*
Y216929D01*
X212598Y204331D02*
Y216929D01*
X251969D01*
X212598Y204331D02*
X251969D01*
X416535Y187520D02*
Y250276D01*
X394488Y268661D02*
X411417D01*
Y254567D02*
Y268661D01*
X355118Y187520D02*
Y250276D01*
X360236Y254567D02*
Y268661D01*
X377165D01*
X230114Y160925D02*
X230516D01*
X230114Y165847D02*
X230516D01*
X231209Y167244D02*
Y172244D01*
X228709D02*
X231209Y169744D01*
X228709Y167244D02*
X231209Y169744D01*
X228709Y167244D02*
Y172244D01*
X318898Y270669D02*
Y284449D01*
X285433D02*
X288878D01*
X295768D02*
X308563D01*
X315453D02*
X318898D01*
X285433Y270669D02*
Y284449D01*
Y270669D02*
X298721D01*
X305610D02*
X318898D01*
X190945Y251575D02*
Y264173D01*
X210630Y251575D02*
Y264173D01*
X190945Y251575D02*
X210630D01*
X190945Y264173D02*
X210630D01*
X275390Y92028D02*
X275791D01*
X275390Y96949D02*
X275791D01*
X275390Y101870D02*
X275791D01*
X275390Y106791D02*
X275791D01*
X275390Y111713D02*
X275791D01*
X275390Y116634D02*
X275791D01*
X275390Y121555D02*
X275791D01*
X275390Y126476D02*
X275791D01*
X230114Y151083D02*
X230516D01*
X230114Y156004D02*
X230516D01*
X275390Y151083D02*
X275791D01*
X275390Y156004D02*
X275791D01*
X275390Y141240D02*
X275791D01*
X275390Y146161D02*
X275791D01*
X275390Y160925D02*
X275791D01*
X275390Y165847D02*
X275791D01*
X276484Y167244D02*
Y172244D01*
X273984D02*
X276484Y169744D01*
X273984Y167244D02*
X276484Y169744D01*
X273984Y167244D02*
Y172244D01*
X230114Y92028D02*
X230516D01*
X230114Y96949D02*
X230516D01*
X230114Y101870D02*
X230516D01*
X230114Y106791D02*
X230516D01*
X230114Y121555D02*
X230516D01*
X230114Y126476D02*
X230516D01*
X230114Y111713D02*
X230516D01*
X230114Y116634D02*
X230516D01*
X275390Y131398D02*
X275791D01*
X275390Y136319D02*
X275791D01*
X230114Y141240D02*
X230516D01*
X230114Y146161D02*
X230516D01*
X230114Y131398D02*
X230516D01*
X230114Y136319D02*
X230516D01*
X327555Y280020D02*
X327957D01*
X327555Y275098D02*
X327957D01*
X326862Y268701D02*
Y273701D01*
Y271201D02*
X329362Y268701D01*
X326862Y271201D02*
X329362Y273701D01*
Y268701D02*
Y273701D01*
X385828Y257874D02*
Y261810D01*
X383860Y259842D02*
X387796D01*
X385875Y198398D02*
Y194462D01*
D14*
X88583Y224213D02*
Y234052D01*
X93502D01*
X95142Y232412D01*
Y229132D01*
X93502Y227492D01*
X88583D01*
X91862D02*
X95142Y224213D01*
X104982Y234052D02*
X101702D01*
X103342D01*
Y225852D01*
X101702Y224213D01*
X100062D01*
X98422Y225852D01*
X118101Y234052D02*
X124660D01*
X121380D01*
Y224213D01*
X132860D02*
X129580D01*
X127940Y225852D01*
Y229132D01*
X129580Y230772D01*
X132860D01*
X134500Y229132D01*
Y227492D01*
X127940D01*
X137779Y224213D02*
X142699D01*
X144339Y225852D01*
X142699Y227492D01*
X139419D01*
X137779Y229132D01*
X139419Y230772D01*
X144339D01*
X149259Y232412D02*
Y230772D01*
X147619D01*
X150899D01*
X149259D01*
Y225852D01*
X150899Y224213D01*
X160738D02*
X157458D01*
X155818Y225852D01*
Y229132D01*
X157458Y230772D01*
X160738D01*
X162378Y229132D01*
Y227492D01*
X155818D01*
X165657Y230772D02*
Y224213D01*
Y227492D01*
X167297Y229132D01*
X168937Y230772D01*
X170577D01*
D15*
X221870Y297244D02*
Y293307D01*
Y297244D02*
X223557D01*
X224119Y297056D01*
X224307Y296869D01*
X224494Y296494D01*
Y296119D01*
X224307Y295744D01*
X224119Y295557D01*
X223557Y295369D01*
X221870D01*
X223182D02*
X224494Y293307D01*
X225375Y296494D02*
X225750Y296681D01*
X226312Y297244D01*
Y293307D01*
X230886Y297244D02*
X229011Y293307D01*
X228262Y297244D02*
X230886D01*
X221964Y286417D02*
Y282481D01*
Y286417D02*
X223651D01*
X224213Y286229D01*
X224400Y286042D01*
X224588Y285667D01*
Y285292D01*
X224400Y284917D01*
X224213Y284730D01*
X223651Y284542D01*
X221964D01*
X223276D02*
X224588Y282481D01*
X225469Y285667D02*
X225844Y285855D01*
X226406Y286417D01*
Y282481D01*
X230605Y285855D02*
X230417Y286229D01*
X229855Y286417D01*
X229480D01*
X228918Y286229D01*
X228543Y285667D01*
X228355Y284730D01*
Y283793D01*
X228543Y283043D01*
X228918Y282668D01*
X229480Y282481D01*
X229667D01*
X230230Y282668D01*
X230605Y283043D01*
X230792Y283605D01*
Y283793D01*
X230605Y284355D01*
X230230Y284730D01*
X229667Y284917D01*
X229480D01*
X228918Y284730D01*
X228543Y284355D01*
X228355Y283793D01*
X292211Y231299D02*
Y227363D01*
Y231299D02*
X293898D01*
X294460Y231111D01*
X294648Y230924D01*
X294835Y230549D01*
Y230174D01*
X294648Y229799D01*
X294460Y229612D01*
X293898Y229424D01*
X292211D01*
X293523D02*
X294835Y227363D01*
X298340Y231299D02*
X296466Y227363D01*
X295716Y231299D02*
X298340D01*
X230892Y234251D02*
Y230315D01*
Y234251D02*
X232579D01*
X233141Y234064D01*
X233329Y233877D01*
X233516Y233502D01*
Y233127D01*
X233329Y232752D01*
X233141Y232565D01*
X232579Y232377D01*
X230892D01*
X232204D02*
X233516Y230315D01*
X236646Y234251D02*
X234772D01*
X234585Y232565D01*
X234772Y232752D01*
X235334Y232940D01*
X235897D01*
X236459Y232752D01*
X236834Y232377D01*
X237021Y231815D01*
Y231440D01*
X236834Y230878D01*
X236459Y230503D01*
X235897Y230315D01*
X235334D01*
X234772Y230503D01*
X234585Y230690D01*
X234397Y231065D01*
X259731Y222441D02*
Y218504D01*
Y222441D02*
X261043D01*
X261605Y222253D01*
X261980Y221878D01*
X262167Y221503D01*
X262355Y220941D01*
Y220004D01*
X262167Y219442D01*
X261980Y219067D01*
X261605Y218692D01*
X261043Y218504D01*
X259731D01*
X263423Y221503D02*
Y221691D01*
X263611Y222066D01*
X263798Y222253D01*
X264173Y222441D01*
X264923D01*
X265298Y222253D01*
X265485Y222066D01*
X265672Y221691D01*
Y221316D01*
X265485Y220941D01*
X265110Y220379D01*
X263236Y218504D01*
X265860D01*
X259590Y200787D02*
Y196851D01*
Y200787D02*
X260902D01*
X261464Y200600D01*
X261839Y200225D01*
X262027Y199850D01*
X262214Y199287D01*
Y198350D01*
X262027Y197788D01*
X261839Y197413D01*
X261464Y197038D01*
X260902Y196851D01*
X259590D01*
X263095Y200037D02*
X263470Y200225D01*
X264032Y200787D01*
Y196851D01*
X333480Y291338D02*
Y287402D01*
Y291338D02*
X335167D01*
X335729Y291151D01*
X335916Y290963D01*
X336104Y290588D01*
Y290213D01*
X335916Y289839D01*
X335729Y289651D01*
X335167Y289464D01*
X333480D01*
X334792D02*
X336104Y287402D01*
X336985Y290588D02*
X337359Y290776D01*
X337922Y291338D01*
Y287402D01*
X342308Y290026D02*
X342120Y289464D01*
X341745Y289089D01*
X341183Y288901D01*
X340996D01*
X340434Y289089D01*
X340059Y289464D01*
X339871Y290026D01*
Y290213D01*
X340059Y290776D01*
X340434Y291151D01*
X340996Y291338D01*
X341183D01*
X341745Y291151D01*
X342120Y290776D01*
X342308Y290026D01*
Y289089D01*
X342120Y288152D01*
X341745Y287589D01*
X341183Y287402D01*
X340808D01*
X340246Y287589D01*
X340059Y287964D01*
X338565Y231299D02*
Y227363D01*
Y231299D02*
X340251D01*
X340814Y231111D01*
X341001Y230924D01*
X341189Y230549D01*
Y230174D01*
X341001Y229799D01*
X340814Y229612D01*
X340251Y229424D01*
X338565D01*
X339877D02*
X341189Y227363D01*
X344319Y230736D02*
X344131Y231111D01*
X343569Y231299D01*
X343194D01*
X342632Y231111D01*
X342257Y230549D01*
X342070Y229612D01*
Y228675D01*
X342257Y227925D01*
X342632Y227550D01*
X343194Y227363D01*
X343382D01*
X343944Y227550D01*
X344319Y227925D01*
X344506Y228487D01*
Y228675D01*
X344319Y229237D01*
X343944Y229612D01*
X343382Y229799D01*
X343194D01*
X342632Y229612D01*
X342257Y229237D01*
X342070Y228675D01*
X235031Y180118D02*
Y176181D01*
Y180118D02*
X236718D01*
X237280Y179930D01*
X237467Y179743D01*
X237655Y179368D01*
Y178993D01*
X237467Y178618D01*
X237280Y178431D01*
X236718Y178243D01*
X235031D01*
X236343D02*
X237655Y176181D01*
X240410Y180118D02*
X238536Y177494D01*
X241347D01*
X240410Y180118D02*
Y176181D01*
X213864Y180118D02*
Y176181D01*
Y180118D02*
X215551D01*
X216114Y179930D01*
X216301Y179743D01*
X216489Y179368D01*
Y178993D01*
X216301Y178618D01*
X216114Y178431D01*
X215551Y178243D01*
X213864D01*
X215177D02*
X216489Y176181D01*
X217744Y180118D02*
X219806D01*
X218682Y178618D01*
X219244D01*
X219619Y178431D01*
X219806Y178243D01*
X219994Y177681D01*
Y177306D01*
X219806Y176744D01*
X219431Y176369D01*
X218869Y176181D01*
X218307D01*
X217744Y176369D01*
X217557Y176556D01*
X217370Y176931D01*
X210321Y288385D02*
Y285574D01*
X210509Y285012D01*
X210884Y284637D01*
X211446Y284449D01*
X211821D01*
X212383Y284637D01*
X212758Y285012D01*
X212945Y285574D01*
Y288385D01*
X215907D02*
X214033Y285761D01*
X216844D01*
X215907Y288385D02*
Y284449D01*
X212384Y263779D02*
Y260968D01*
X212571Y260405D01*
X212946Y260030D01*
X213508Y259843D01*
X213883D01*
X214445Y260030D01*
X214820Y260405D01*
X215008Y260968D01*
Y263779D01*
X216470D02*
X218531D01*
X217407Y262280D01*
X217969D01*
X218344Y262092D01*
X218531Y261905D01*
X218719Y261342D01*
Y260968D01*
X218531Y260405D01*
X218157Y260030D01*
X217594Y259843D01*
X217032D01*
X216470Y260030D01*
X216282Y260218D01*
X216095Y260593D01*
X246832Y194881D02*
Y192070D01*
X247020Y191508D01*
X247395Y191133D01*
X247957Y190945D01*
X248332D01*
X248894Y191133D01*
X249269Y191508D01*
X249456Y192070D01*
Y194881D01*
X250731Y193944D02*
Y194132D01*
X250918Y194507D01*
X251106Y194694D01*
X251481Y194881D01*
X252231D01*
X252605Y194694D01*
X252793Y194507D01*
X252980Y194132D01*
Y193757D01*
X252793Y193382D01*
X252418Y192820D01*
X250544Y190945D01*
X253168D01*
X196495Y197834D02*
Y195023D01*
X196682Y194460D01*
X197057Y194086D01*
X197619Y193898D01*
X197994D01*
X198556Y194086D01*
X198931Y194460D01*
X199119Y195023D01*
Y197834D01*
X200206Y197084D02*
X200581Y197272D01*
X201143Y197834D01*
Y193898D01*
X310284Y268138D02*
X309909Y268513D01*
X309347Y268700D01*
X308597D01*
X308034Y268513D01*
X307660Y268138D01*
Y267763D01*
X307847Y267388D01*
X308034Y267201D01*
X308409Y267014D01*
X309534Y266639D01*
X309909Y266451D01*
X310096Y266264D01*
X310284Y265889D01*
Y265326D01*
X309909Y264952D01*
X309347Y264764D01*
X308597D01*
X308034Y264952D01*
X307660Y265326D01*
X311165Y268700D02*
X312102Y264764D01*
X313039Y268700D02*
X312102Y264764D01*
X313039Y268700D02*
X313976Y264764D01*
X314913Y268700D02*
X313976Y264764D01*
X315888Y267763D02*
Y267951D01*
X316075Y268325D01*
X316263Y268513D01*
X316638Y268700D01*
X317388D01*
X317762Y268513D01*
X317950Y268325D01*
X318137Y267951D01*
Y267576D01*
X317950Y267201D01*
X317575Y266639D01*
X315701Y264764D01*
X318325D01*
X326350Y227466D02*
X325975Y227091D01*
X325788Y226529D01*
Y225779D01*
X325975Y225217D01*
X326350Y224842D01*
X326725D01*
X327100Y225029D01*
X327287Y225217D01*
X327475Y225591D01*
X327850Y226716D01*
X328037Y227091D01*
X328224Y227278D01*
X328599Y227466D01*
X329162D01*
X329537Y227091D01*
X329724Y226529D01*
Y225779D01*
X329537Y225217D01*
X329162Y224842D01*
X325788Y228347D02*
X329724Y229284D01*
X325788Y230221D02*
X329724Y229284D01*
X325788Y230221D02*
X329724Y231158D01*
X325788Y232095D02*
X329724Y231158D01*
X326538Y232883D02*
X326350Y233258D01*
X325788Y233820D01*
X329724D01*
X173642Y253937D02*
Y250000D01*
Y253937D02*
X175329D01*
X175891Y253749D01*
X176078Y253562D01*
X176266Y253187D01*
Y252812D01*
X176078Y252437D01*
X175891Y252250D01*
X175329Y252062D01*
X173642D01*
X174954D02*
X176266Y250000D01*
X177147Y253187D02*
X177522Y253374D01*
X178084Y253937D01*
Y250000D01*
X182283Y253937D02*
X180408D01*
X180221Y252250D01*
X180408Y252437D01*
X180971Y252625D01*
X181533D01*
X182095Y252437D01*
X182470Y252062D01*
X182658Y251500D01*
Y251125D01*
X182470Y250563D01*
X182095Y250188D01*
X181533Y250000D01*
X180971D01*
X180408Y250188D01*
X180221Y250375D01*
X180033Y250750D01*
X173548Y264763D02*
Y260827D01*
Y264763D02*
X175235D01*
X175797Y264576D01*
X175985Y264388D01*
X176172Y264014D01*
Y263639D01*
X175985Y263264D01*
X175797Y263076D01*
X175235Y262889D01*
X173548D01*
X174860D02*
X176172Y260827D01*
X177053Y264014D02*
X177428Y264201D01*
X177990Y264763D01*
Y260827D01*
X181814Y264763D02*
X179940Y262139D01*
X182751D01*
X181814Y264763D02*
Y260827D01*
X173642Y275590D02*
Y271654D01*
Y275590D02*
X175329D01*
X175891Y275403D01*
X176078Y275215D01*
X176266Y274840D01*
Y274465D01*
X176078Y274091D01*
X175891Y273903D01*
X175329Y273716D01*
X173642D01*
X174954D02*
X176266Y271654D01*
X177147Y274840D02*
X177522Y275028D01*
X178084Y275590D01*
Y271654D01*
X180408Y275590D02*
X182470D01*
X181345Y274091D01*
X181908D01*
X182283Y273903D01*
X182470Y273716D01*
X182658Y273153D01*
Y272779D01*
X182470Y272216D01*
X182095Y271841D01*
X181533Y271654D01*
X180971D01*
X180408Y271841D01*
X180221Y272029D01*
X180033Y272404D01*
X173642Y286417D02*
Y282481D01*
Y286417D02*
X175329D01*
X175891Y286229D01*
X176078Y286042D01*
X176266Y285667D01*
Y285292D01*
X176078Y284917D01*
X175891Y284730D01*
X175329Y284542D01*
X173642D01*
X174954D02*
X176266Y282481D01*
X177147Y285667D02*
X177522Y285855D01*
X178084Y286417D01*
Y282481D01*
X180221Y285480D02*
Y285667D01*
X180408Y286042D01*
X180596Y286229D01*
X180971Y286417D01*
X181720D01*
X182095Y286229D01*
X182283Y286042D01*
X182470Y285667D01*
Y285292D01*
X182283Y284917D01*
X181908Y284355D01*
X180033Y282481D01*
X182658D01*
X173501Y297244D02*
Y293307D01*
Y297244D02*
X175188D01*
X175750Y297056D01*
X175938Y296869D01*
X176125Y296494D01*
Y296119D01*
X175938Y295744D01*
X175750Y295557D01*
X175188Y295369D01*
X173501D01*
X174813D02*
X176125Y293307D01*
X177006Y296494D02*
X177381Y296681D01*
X177943Y297244D01*
Y293307D01*
X179893Y296494D02*
X180267Y296681D01*
X180830Y297244D01*
Y293307D01*
X221870Y253937D02*
Y250000D01*
Y253937D02*
X223557D01*
X224119Y253749D01*
X224307Y253562D01*
X224494Y253187D01*
Y252812D01*
X224307Y252437D01*
X224119Y252250D01*
X223557Y252062D01*
X221870D01*
X223182D02*
X224494Y250000D01*
X225375Y253187D02*
X225750Y253374D01*
X226312Y253937D01*
Y250000D01*
X229386Y253937D02*
X228824Y253749D01*
X228449Y253187D01*
X228262Y252250D01*
Y251687D01*
X228449Y250750D01*
X228824Y250188D01*
X229386Y250000D01*
X229761D01*
X230324Y250188D01*
X230698Y250750D01*
X230886Y251687D01*
Y252250D01*
X230698Y253187D01*
X230324Y253749D01*
X229761Y253937D01*
X229386D01*
X222423Y264763D02*
Y260827D01*
Y264763D02*
X224110D01*
X224672Y264576D01*
X224859Y264388D01*
X225047Y264014D01*
Y263639D01*
X224859Y263264D01*
X224672Y263076D01*
X224110Y262889D01*
X222423D01*
X223735D02*
X225047Y260827D01*
X228365Y263451D02*
X228177Y262889D01*
X227802Y262514D01*
X227240Y262327D01*
X227052D01*
X226490Y262514D01*
X226115Y262889D01*
X225928Y263451D01*
Y263639D01*
X226115Y264201D01*
X226490Y264576D01*
X227052Y264763D01*
X227240D01*
X227802Y264576D01*
X228177Y264201D01*
X228365Y263451D01*
Y262514D01*
X228177Y261577D01*
X227802Y261015D01*
X227240Y260827D01*
X226865D01*
X226303Y261015D01*
X226115Y261389D01*
X222329Y275590D02*
Y271654D01*
Y275590D02*
X224016D01*
X224578Y275403D01*
X224766Y275215D01*
X224953Y274840D01*
Y274465D01*
X224766Y274091D01*
X224578Y273903D01*
X224016Y273716D01*
X222329D01*
X223641D02*
X224953Y271654D01*
X226771Y275590D02*
X226209Y275403D01*
X226022Y275028D01*
Y274653D01*
X226209Y274278D01*
X226584Y274091D01*
X227334Y273903D01*
X227896Y273716D01*
X228271Y273341D01*
X228458Y272966D01*
Y272404D01*
X228271Y272029D01*
X228083Y271841D01*
X227521Y271654D01*
X226771D01*
X226209Y271841D01*
X226022Y272029D01*
X225834Y272404D01*
Y272966D01*
X226022Y273341D01*
X226396Y273716D01*
X226959Y273903D01*
X227709Y274091D01*
X228083Y274278D01*
X228271Y274653D01*
Y275028D01*
X228083Y275403D01*
X227521Y275590D01*
X226771D01*
X201660Y234251D02*
Y230315D01*
Y234251D02*
X203347D01*
X203909Y234064D01*
X204097Y233877D01*
X204284Y233502D01*
Y233127D01*
X204097Y232752D01*
X203909Y232565D01*
X203347Y232377D01*
X201660D01*
X202972D02*
X204284Y230315D01*
X205352Y233314D02*
Y233502D01*
X205540Y233877D01*
X205727Y234064D01*
X206102Y234251D01*
X206852D01*
X207227Y234064D01*
X207414Y233877D01*
X207602Y233502D01*
Y233127D01*
X207414Y232752D01*
X207039Y232190D01*
X205165Y230315D01*
X207789D01*
X183802Y234251D02*
Y230315D01*
Y234251D02*
X185489D01*
X186052Y234064D01*
X186239Y233877D01*
X186427Y233502D01*
Y233127D01*
X186239Y232752D01*
X186052Y232565D01*
X185489Y232377D01*
X183802D01*
X185115D02*
X186427Y230315D01*
X187308Y233502D02*
X187682Y233689D01*
X188245Y234251D01*
Y230315D01*
X148725Y285433D02*
Y282434D01*
X148538Y281871D01*
X148351Y281684D01*
X147976Y281497D01*
X147601D01*
X147226Y281684D01*
X147038Y281871D01*
X146851Y282434D01*
Y282809D01*
X151987Y285433D02*
X150112D01*
X149925Y283746D01*
X150112Y283933D01*
X150675Y284121D01*
X151237D01*
X151799Y283933D01*
X152174Y283558D01*
X152362Y282996D01*
Y282621D01*
X152174Y282059D01*
X151799Y281684D01*
X151237Y281497D01*
X150675D01*
X150112Y281684D01*
X149925Y281871D01*
X149738Y282246D01*
X294301Y169291D02*
Y166292D01*
X294113Y165730D01*
X293926Y165542D01*
X293551Y165355D01*
X293176D01*
X292801Y165542D01*
X292614Y165730D01*
X292427Y166292D01*
Y166667D01*
X297187Y169291D02*
X295313Y166667D01*
X298125D01*
X297187Y169291D02*
Y165355D01*
X97544Y170275D02*
Y167276D01*
X97357Y166714D01*
X97169Y166526D01*
X96794Y166339D01*
X96420D01*
X96045Y166526D01*
X95857Y166714D01*
X95670Y167276D01*
Y167651D01*
X98931Y170275D02*
X100993D01*
X99869Y168776D01*
X100431D01*
X100806Y168588D01*
X100993Y168401D01*
X101181Y167839D01*
Y167464D01*
X100993Y166901D01*
X100618Y166526D01*
X100056Y166339D01*
X99494D01*
X98931Y166526D01*
X98744Y166714D01*
X98556Y167089D01*
X366245Y157480D02*
Y154481D01*
X366058Y153919D01*
X365870Y153731D01*
X365495Y153544D01*
X365120D01*
X364745Y153731D01*
X364558Y153919D01*
X364371Y154481D01*
Y154856D01*
X367445Y156543D02*
Y156730D01*
X367632Y157105D01*
X367819Y157292D01*
X368194Y157480D01*
X368944D01*
X369319Y157292D01*
X369506Y157105D01*
X369694Y156730D01*
Y156355D01*
X369506Y155980D01*
X369132Y155418D01*
X367257Y153544D01*
X369881D01*
X169254Y157480D02*
Y154481D01*
X169066Y153919D01*
X168879Y153731D01*
X168504Y153544D01*
X168129D01*
X167754Y153731D01*
X167567Y153919D01*
X167379Y154481D01*
Y154856D01*
X170266Y156730D02*
X170641Y156918D01*
X171203Y157480D01*
Y153544D01*
X335369Y279527D02*
Y275591D01*
Y279527D02*
X336681D01*
X337243Y279340D01*
X337618Y278965D01*
X337806Y278590D01*
X337993Y278028D01*
Y277091D01*
X337806Y276528D01*
X337618Y276153D01*
X337243Y275778D01*
X336681Y275591D01*
X335369D01*
X341498Y278965D02*
X341123Y279340D01*
X340561Y279527D01*
X339811D01*
X339249Y279340D01*
X338874Y278965D01*
Y278590D01*
X339061Y278215D01*
X339249Y278028D01*
X339624Y277840D01*
X340748Y277465D01*
X341123Y277278D01*
X341311Y277091D01*
X341498Y276716D01*
Y276153D01*
X341123Y275778D01*
X340561Y275591D01*
X339811D01*
X339249Y275778D01*
X338874Y276153D01*
X342379Y278777D02*
X342754Y278965D01*
X343316Y279527D01*
Y275591D01*
X347702Y278215D02*
X347515Y277653D01*
X347140Y277278D01*
X346578Y277091D01*
X346390D01*
X345828Y277278D01*
X345453Y277653D01*
X345265Y278215D01*
Y278402D01*
X345453Y278965D01*
X345828Y279340D01*
X346390Y279527D01*
X346578D01*
X347140Y279340D01*
X347515Y278965D01*
X347702Y278215D01*
Y277278D01*
X347515Y276341D01*
X347140Y275778D01*
X346578Y275591D01*
X346203D01*
X345640Y275778D01*
X345453Y276153D01*
X175722Y194929D02*
X175534Y195303D01*
X175160Y195678D01*
X174785Y195866D01*
X174035D01*
X173660Y195678D01*
X173285Y195303D01*
X173098Y194929D01*
X172910Y194366D01*
Y193429D01*
X173098Y192867D01*
X173285Y192492D01*
X173660Y192117D01*
X174035Y191930D01*
X174785D01*
X175160Y192117D01*
X175534Y192492D01*
X175722Y192867D01*
X177015Y194929D02*
Y195116D01*
X177203Y195491D01*
X177390Y195678D01*
X177765Y195866D01*
X178515D01*
X178890Y195678D01*
X179077Y195491D01*
X179264Y195116D01*
Y194741D01*
X179077Y194366D01*
X178702Y193804D01*
X176828Y191930D01*
X179452D01*
X176565Y213629D02*
X176378Y214004D01*
X176003Y214379D01*
X175628Y214566D01*
X174878D01*
X174504Y214379D01*
X174129Y214004D01*
X173941Y213629D01*
X173754Y213067D01*
Y212130D01*
X173941Y211567D01*
X174129Y211193D01*
X174504Y210818D01*
X174878Y210630D01*
X175628D01*
X176003Y210818D01*
X176378Y211193D01*
X176565Y211567D01*
X177671Y213817D02*
X178046Y214004D01*
X178608Y214566D01*
Y210630D01*
X360406Y275000D02*
Y271063D01*
Y275000D02*
X362093D01*
X362655Y274812D01*
X362842Y274625D01*
X363030Y274250D01*
Y273875D01*
X362842Y273500D01*
X362655Y273313D01*
X362093Y273125D01*
X360406D02*
X362093D01*
X362655Y272938D01*
X362842Y272750D01*
X363030Y272375D01*
Y271813D01*
X362842Y271438D01*
X362655Y271251D01*
X362093Y271063D01*
X360406D01*
X365223Y275000D02*
Y271063D01*
X363911Y275000D02*
X366535D01*
X367003Y274250D02*
X367378Y274437D01*
X367941Y275000D01*
Y271063D01*
M02*
