M48
;Layer_Color=9474304
;FILE_FORMAT=2:4
INCH,TZ
;TYPE=PLATED
T1F00S00C0.0098
T2F00S00C0.0118
T4F00S00C0.0360
T5F00S00C0.0394
T6F00S00C0.1969
%
T01
X21478Y19508
X22478
X22978
X23478
X23978
X24478
X24488Y21624
X21978Y20508
X20325Y25236
X21250Y28250
T02
X9000Y9197
X10000
X11000
X12000
X13000
X14000
X15000
X15500Y10197
X14500
X13500
X12500
X11500
X10500
X9500
X10000Y11197
X11000
X12000
X13000
X14000
X15000
X15500Y12197
X14500
X13500
X12500
X11500
X10500
X9500
X9000Y13197
X9500Y14197
X10500
X11500
X12000Y13197
X13000
X14000
X11000Y15197
X10000
X9000
Y11197
X16500Y12197
X17000Y13197
X18000
X19000
X20000
X20500Y14197
X19500
X20000Y15197
X19500Y12197
X18500
X19000Y11197
X18000
X18500Y10197
X19500
X20500
X21500
X22000Y9197
X21000
X20000
X19000
X18000
X17000
X16000
X16500Y10197
X17500
X16000Y13197
X21500Y12197
X24000Y13197
X26000
Y11197
X25000
X24000
Y9197
X25500Y10197
X28500
X29500
X30500
X31000Y11197
X30000
X30500Y12197
X29500
X28500
X29000Y13197
X29500Y14197
X30500
X31000Y13197
X30000Y15197
X29000
X28500Y14197
X29000Y9197
X30000
X31000
X24000Y15197
X31500Y14197
X32000Y13197
X33000
X33500Y12197
X34500
X35500
X36000Y13197
X37000
X38000
X39000
X40000
X41000
X41500Y14197
X40500
X39500
X40000Y15197
X41000
X41500Y12197
X41000Y11197
X41500Y10197
X40500
X39500
X38500
X37500
X36500
X35500
X34500
X33500
X32500
X31500
X32000Y11197
X33000
X34000
X36000
X38000
X39000
X38500Y12197
X39000Y9197
X40000
X41000
X38000
X37000
X36000
X35000
X34000
X33000
X32000
X32500Y12197
X31500
X34500Y16197
X35500
X36500
X37500
X38000Y17197
X39000
X40000
X41000
X41500Y18197
X40500
X39500
X40000Y19197
X41000
X41500Y20197
X40500
X39500
X38500
X37500
X36500
X35500
X34500
X33500
X34000Y21197
X35000
X36000
X37000
X38000
X39000
X40000
X41000
X41500Y22197
X40500
X39500
X38500
X37500
X36500
X35500
X34500
X35000Y23197
X36000
X37000
X38000
X39000
X40000
X41000
X41500Y24197
X40500
X39500
X38500
X37500
X36500
X35500
X34500
X33500
X32500
X33000Y25197
X34000
X35000
X36000
X37000
X38000
X39000
X40000
X41000
X41500Y26197
X40500
X39500
X38500
X37500
X36500
X35500
X34500
X33500
X32500
X32000Y25197
X32500Y28197
X33500
X34500
X35500
X36500
X37500
X38500
X39000Y29197
X38000
X37000
X36000
X35000
X34000
X32000
X31500Y28197
X34000Y23197
X33000Y21197
X32000
Y19197
X33000
X34000
X35000
X36000
X37000
X37500Y18197
X36500
X35500
X34500
X33500
X34000Y17197
X35000
X36000
X37000
X39500Y16197
X40500
X41500
X41000Y27197
X40000
X30500Y28197
X29500
X28500
X27500
X26500
X25500
X26000Y29197
X27000
X28000
X30000
X29500Y26197
X28500
X27500
X26500
X25500
X24500
X23500
X24000Y27197
X25000
X26000
X27000
X28000
Y25197
X27000
X26000
X25000
X24000
X24500Y24197
X25500
X26500
X27500
X28500
X29500
X30500
X30000Y25197
X29500Y22197
X27500
X26500
X27000Y23197
Y21197
Y19197
X28000
X29000
X30000
X31000
X30500Y16197
X29500
X28500
X25500Y18197
X24500
X25000Y19197
X26000
X24000
Y21197
X23000
X24000Y23197
X25000
X23500Y24197
X22500
X22000Y25197
Y27197
X23500Y28197
X19500
X19000Y29197
X17000
X16000
X16500Y28197
X17000Y27197
X16000
X16500Y26197
X17000Y25197
X18000
X19000
X18500Y26197
Y24197
X17500
X16500
X17000Y23197
X16000
X16500Y22197
X17000Y21197
X18000
X19000
X18500Y20197
X16500
X16000Y21197
Y25197
X21000Y23197
Y19197
X22500Y18197
X23000Y17197
X24000
X15500Y20197
X14500
X13500
X12500
X11500
X10500
X9500
X10000Y21197
X11000
X12000
X13000
X14000
X15000
X15500Y22197
X14500
X13500
X12500
X11500
X10500
X9500
X10000Y23197
X11000
X12000
X13000
X14000
X15000
X15500Y24197
X14500
X13500
X12500
X11500
X10500
X9500
X10000Y25197
X9000
X9500Y26197
X10500
X11500
X12500
X13000Y27197
X12000
X11000
X10000
X9000
X9500Y28197
X10500
X11000Y29197
X12000
X13000
X14000
X15000
X15500Y28197
X14500
X13500
X12500
X13000Y25197
X14000
X14500Y26197
X15500
X10000Y29197
X9000
Y23197
Y21197
Y19197
X10000
X11000
X12000
X11500Y18197
X10500
X9500
X10000Y17197
X9000
X9500Y16197
X10500
T04
X31435Y15661
X32435
X33435
X32935Y16661
X31935
X33935
X30935Y16661
X30435Y15661
X13809Y15689
X12809
X11809
X10809
X11309Y16689
X12309Y16689
X13309
X14309
T05
X18012Y14370
X19012
X18512Y15370
X19512
X38181
X39181
X38681Y14370
X37681
X14878Y25862
Y26862
X13878Y27362
Y26362
T06
X40551Y28642
M30
